<svg width="778" height="434" viewBox="0 0 778 434" fill="none" xmlns="http://www.w3.org/2000/svg">
<path d="M748.352 144.651C717.065 235.29 768.024 207.725 777.242 258.316C786.467 308.946 710.442 325.827 603.932 357.544C524.245 381.273 394.764 462.142 307.504 423.88C255.043 400.877 280.779 381.311 191.815 343.395C126.564 315.585 0.000132782 341.888 0 258.316C-0.000115004 185.933 31.0973 198.289 93.2377 157.599C158.203 115.06 117.513 86.0816 177.429 45.4593C237.798 10.4842 307.293 -3.53001 387.827 0.745339C454.514 4.2856 477.643 23.9336 526.823 35.4664C593.584 51.122 667.326 -8.19863 731.286 40.1807C766.228 73.8121 764.069 99.1174 748.352 144.651Z" fill="url(#paint0_linear)"/>
<defs>
<linearGradient id="paint0_linear" x2="1" gradientUnits="userSpaceOnUse" gradientTransform="translate(-160.161 198.798) scale(778 434) rotate(-41.5997)">
<stop stop-color="#FF5F6D"/>
<stop offset="1" stop-color="#FFC371"/>
</linearGradient>
</defs>
</svg>
