<svg width="555" height="935" viewBox="0 0 555 935" fill="none" xmlns="http://www.w3.org/2000/svg">
<g opacity="0.3">
<path d="M6.68629 0.509717L7.83511 3.60475C7.91783 3.81598 8.08326 3.99048 8.29465 4.06396L11.392 5.21197C12.0721 5.45994 12.0721 6.42426 11.392 6.68142L8.29465 7.82943C8.08326 7.91209 7.90864 8.0774 7.83511 8.28863L6.68629 11.3837C6.43814 12.0633 5.47311 12.0633 5.21577 11.3837L4.06692 8.28863C3.9842 8.0774 3.81877 7.9029 3.60738 7.82943L0.510097 6.68142C-0.17002 6.43345 -0.17002 5.46912 0.510097 5.21197L3.60738 4.06396C3.81877 3.9813 3.99339 3.81598 4.06692 3.60475L5.21577 0.509717C5.46392 -0.169905 6.42895 -0.169905 6.68629 0.509717Z" transform="translate(369.111 64.9985)" fill="#FFD41D"/>
<path d="M3.80038 0.28929L4.45293 2.04346C4.49888 2.16285 4.59079 2.26387 4.71946 2.30979L6.4749 2.96187C6.86091 3.10881 6.86091 3.65068 6.4749 3.79763L4.71946 4.44968C4.59998 4.4956 4.49888 4.58746 4.45293 4.71603L3.80038 6.47018C3.65333 6.85591 3.11108 6.85591 2.96402 6.47018L2.31148 4.71603C2.26552 4.59664 2.17362 4.4956 2.04495 4.44968L0.289509 3.79763C-0.0965031 3.65068 -0.0965031 3.10881 0.289509 2.96187L2.04495 2.30979C2.16443 2.26387 2.26552 2.17204 2.31148 2.04346L2.96402 0.28929C3.11108 -0.0964418 3.66252 -0.0964418 3.80038 0.28929Z" transform="translate(0 265.505)" fill="#FFD41D"/>
<path d="M2.83306 0.22042L3.32016 1.53374C3.35692 1.62558 3.42127 1.69906 3.51318 1.72661L4.82745 2.21336C5.11236 2.32357 5.11236 2.72767 4.82745 2.83788L3.51318 3.32463C3.42127 3.36137 3.34773 3.42567 3.32016 3.51751L2.83306 4.83082C2.72277 5.11553 2.31837 5.11553 2.20808 4.83082L1.72098 3.51751C1.68421 3.42567 1.61987 3.35219 1.52796 3.32463L0.213688 2.83788C-0.0712262 2.72767 -0.0712262 2.32357 0.213688 2.21336L1.52796 1.72661C1.61987 1.68988 1.6934 1.62558 1.72098 1.53374L2.20808 0.22042C2.31837 -0.0734704 2.72277 -0.0734704 2.83306 0.22042Z" transform="translate(175.693 130.247)" fill="#FFD41D"/>
<path d="M2.83306 0.213539L3.32017 1.52684C3.35694 1.61869 3.42126 1.69217 3.51317 1.71972L4.82745 2.20648C5.11237 2.31669 5.11237 2.72079 4.82745 2.831L3.51317 3.31774C3.42126 3.35448 3.34775 3.41877 3.32017 3.51062L2.83306 4.82394C2.72277 5.10865 2.31837 5.10865 2.20808 4.82394L1.72097 3.51062C1.6842 3.41877 1.61988 3.34529 1.52797 3.31774L0.21369 2.831C-0.071224 2.72079 -0.071224 2.31669 0.21369 2.20648L1.52797 1.71972C1.61988 1.68298 1.69339 1.61869 1.72097 1.52684L2.20808 0.213539C2.30918 -0.0711677 2.72277 -0.0711677 2.83306 0.213539Z" transform="translate(256.471 398.218)" fill="#FFD41D"/>
<path d="M2.10651 0.164183L2.46486 1.1377C2.49243 1.20198 2.54757 1.25709 2.61189 1.28464L3.58589 1.64282C3.79723 1.72548 3.79723 2.02855 3.58589 2.10202L2.61189 2.4602C2.54757 2.48776 2.49243 2.54286 2.46486 2.60715L2.10651 3.58066C2.02381 3.7919 1.72058 3.7919 1.64707 3.58066L1.28871 2.60715C1.26115 2.54286 1.20602 2.48776 1.1417 2.4602L0.158505 2.11121C-0.052835 2.02855 -0.052835 1.72548 0.158505 1.652L1.1325 1.29383C1.19683 1.26627 1.25196 1.21117 1.27953 1.14688L1.63788 0.173367C1.72058 -0.0562349 2.02381 -0.0562349 2.10651 0.164183Z" transform="translate(69.2823 26.973)" fill="#FFD41D"/>
<path d="M6.6863 0.509717L7.83514 3.60475C7.91786 3.81598 8.08329 3.99048 8.29468 4.06395L11.392 5.21196C12.0721 5.45993 12.0721 6.42426 11.392 6.68142L8.29468 7.82943C8.08329 7.91208 7.90867 8.0774 7.83514 8.28863L6.6863 11.3837C6.43814 12.0633 5.47311 12.0633 5.21577 11.3837L4.06693 8.28863C3.98421 8.0774 3.81877 7.9029 3.60739 7.82943L0.510079 6.68142C-0.170038 6.43344 -0.170038 5.46912 0.510079 5.21196L3.60739 4.06395C3.81877 3.98129 3.9934 3.81598 4.06693 3.60475L5.21577 0.509717C5.46392 -0.169905 6.42895 -0.169905 6.6863 0.509717Z" transform="translate(216.204 305.061)" fill="#FFD41D"/>
<path d="M6.68629 0.509721L7.83513 3.60475C7.91785 3.81599 8.08328 3.99048 8.29467 4.06396L11.392 5.21197C12.0721 5.45994 12.0721 6.42427 11.392 6.68142L8.29467 7.82943C8.08328 7.91209 7.90866 8.0774 7.83513 8.28863L6.68629 11.3837C6.43813 12.0633 5.4731 12.0633 5.21576 11.3837L4.06692 8.28863C3.9842 8.0774 3.81877 7.9029 3.60738 7.82943L0.510092 6.68142C-0.170025 6.43345 -0.170025 5.46912 0.510092 5.21197L3.60738 4.06396C3.81877 3.9813 3.99339 3.81599 4.06692 3.60475L5.21576 0.509721C5.4731 -0.169901 6.43813 -0.169901 6.68629 0.509721Z" transform="translate(141.152 339.116)" fill="#FFD41D"/>
<path d="M3.80037 0.296182L4.45292 2.05035C4.49887 2.16974 4.59077 2.27076 4.71944 2.31668L6.47489 2.96876C6.8609 3.1157 6.8609 3.65755 6.47489 3.8045L4.71944 4.45658C4.59996 4.5025 4.49887 4.59433 4.45292 4.7229L3.80037 6.47707C3.65331 6.8628 3.11109 6.8628 2.96404 6.47707L2.31149 4.7229C2.26553 4.60351 2.17364 4.5025 2.04496 4.45658L0.289518 3.8045C-0.0964941 3.65755 -0.0964941 3.1157 0.289518 2.96876L2.04496 2.31668C2.16444 2.27076 2.26553 2.17893 2.31149 2.05035L2.96404 0.296182C3.1019 -0.0987334 3.65331 -0.0987334 3.80037 0.296182Z" transform="translate(390.608 352.086)" fill="#FFD41D"/>
<path d="M6.68628 0.509717L7.83512 3.60475C7.91784 3.81598 8.08327 3.99048 8.29466 4.06395L11.392 5.21196C12.0721 5.45993 12.0721 6.42426 11.392 6.68142L8.29466 7.82943C8.08327 7.91208 7.90865 8.0774 7.83512 8.28863L6.68628 11.3837C6.43813 12.0633 5.47309 12.0633 5.21575 11.3837L4.06691 8.28863C3.98419 8.0774 3.81876 7.9029 3.60737 7.82943L0.510106 6.68142C-0.170011 6.43344 -0.170011 5.46912 0.510106 5.21196L3.60737 4.06395C3.81876 3.98129 3.99338 3.81598 4.06691 3.60475L5.21575 0.509717C5.47309 -0.169905 6.43813 -0.169905 6.68628 0.509717Z" transform="translate(459.603 201.143)" fill="#FFD41D"/>
<path d="M78.8936 0L0 78.8362" transform="translate(471.106 53.9459)" stroke="url(#paint0_linear)" stroke-width="10" stroke-miterlimit="10" stroke-linecap="round"/>
<path d="M78.9028 -4.48442e-06L-5.6096e-07 78.8362" transform="translate(46.1331 265.639)" stroke="url(#paint1_linear)" stroke-width="10" stroke-miterlimit="10" stroke-linecap="round"/>
<path d="M1.3048 2.60827C2.02541 2.60827 2.60959 2.02441 2.60959 1.30416C2.60959 0.583901 2.02541 0 1.3048 0C0.584178 0 0 0.583901 0 1.30416C0 2.02441 0.584178 2.60827 1.3048 2.60827Z" transform="translate(60.1123 496.829)" fill="#FFED00"/>
<path d="M1.30479 2.60827C2.0254 2.60827 2.6096 2.02439 2.6096 1.30414C2.6096 0.583879 2.0254 0 1.30479 0C0.584167 0 -4.48667e-06 0.583879 -4.48667e-06 1.30414C-4.48667e-06 2.02439 0.584167 2.60827 1.30479 2.60827Z" transform="translate(253.688 224.338)" fill="#FFED00"/>
<path d="M1.30481 2.60829C2.02543 2.60829 2.60958 2.02439 2.60958 1.30413C2.60958 0.583874 2.02543 -4.48441e-06 1.30481 -4.48441e-06C0.584194 -4.48441e-06 0 0.583874 0 1.30413C0 2.02439 0.584194 2.60829 1.30481 2.60829Z" transform="translate(470.204 315.646)" fill="#FFED00"/>
<path d="M1.30479 2.60828C2.0254 2.60828 2.6096 2.02439 2.6096 1.30414C2.6096 0.583879 2.0254 0 1.30479 0C0.584167 0 1.79467e-05 0.583879 1.79467e-05 1.30414C1.79467e-05 2.02439 0.584167 2.60828 1.30479 2.60828Z" transform="translate(504.504 125.517)" fill="#FFED00"/>
<path d="M2.8859 5.76759C4.47974 5.76759 5.7718 4.47647 5.7718 2.88379C5.7718 1.29111 4.47974 0 2.8859 0C1.29206 0 4.48768e-06 1.29111 4.48768e-06 2.88379C4.48768e-06 4.47647 1.29206 5.76759 2.8859 5.76759Z" transform="translate(133.115 435.847)" fill="#FFED00"/>
<path d="M2.8859 5.76759C4.47974 5.76759 5.7718 4.47647 5.7718 2.88379C5.7718 1.29111 4.47974 0 2.8859 0C1.29206 0 4.48768e-06 1.29111 4.48768e-06 2.88379C4.48768e-06 4.47647 1.29206 5.76759 2.8859 5.76759Z" transform="translate(104.023 630.367)" fill="#FFED00"/>
<path d="M3.97042 7.93504C6.16322 7.93504 7.94083 6.15874 7.94083 3.96754C7.94083 1.77634 6.16322 0 3.97042 0C1.77762 0 -8.97536e-06 1.77634 -8.97536e-06 3.96754C-8.97536e-06 6.15874 1.77762 7.93504 3.97042 7.93504Z" transform="translate(346.078 503.494)" fill="#FF5F6D"/>
<path d="M2.83306 0.22042L3.32016 1.53374C3.35692 1.62558 3.42127 1.69906 3.51318 1.72661L4.82745 2.21336C5.11236 2.32357 5.11236 2.72767 4.82745 2.83788L3.51318 3.32463C3.42127 3.36137 3.34773 3.42567 3.32016 3.51751L2.83306 4.83082C2.72277 5.11553 2.31837 5.11553 2.20808 4.83082L1.72098 3.51751C1.68421 3.42567 1.61987 3.35219 1.52796 3.32463L0.213688 2.83788C-0.0712262 2.72767 -0.0712262 2.32357 0.213688 2.21336L1.52796 1.72661C1.61987 1.68988 1.6934 1.62558 1.72098 1.53374L2.20808 0.22042C2.31837 -0.0734704 2.72277 -0.0734704 2.83306 0.22042Z" transform="translate(175.693 565.809)" fill="#FFD41D"/>
<path d="M2.83306 0.213539L3.32017 1.52684C3.35694 1.61869 3.42126 1.69217 3.51317 1.71972L4.82745 2.20648C5.11237 2.31669 5.11237 2.72079 4.82745 2.831L3.51317 3.31774C3.42126 3.35448 3.34775 3.41877 3.32017 3.51062L2.83306 4.82394C2.72277 5.10865 2.31837 5.10865 2.20808 4.82394L1.72097 3.51062C1.6842 3.41877 1.61988 3.34529 1.52797 3.31774L0.21369 2.831C-0.071224 2.72079 -0.071224 2.31669 0.21369 2.20648L1.52797 1.71972C1.61988 1.68298 1.69339 1.61869 1.72097 1.52684L2.20808 0.213539C2.30918 -0.0711677 2.72277 -0.0711677 2.83306 0.213539Z" transform="translate(256.471 833.78)" fill="#FFD41D"/>
<path d="M2.10651 0.164183L2.46486 1.1377C2.49243 1.20198 2.54757 1.25709 2.61189 1.28464L3.58589 1.64282C3.79723 1.72548 3.79723 2.02855 3.58589 2.10202L2.61189 2.4602C2.54757 2.48776 2.49243 2.54286 2.46486 2.60715L2.10651 3.58066C2.02381 3.7919 1.72058 3.7919 1.64707 3.58066L1.28871 2.60715C1.26115 2.54286 1.20602 2.48776 1.1417 2.4602L0.158505 2.11121C-0.052835 2.02855 -0.052835 1.72548 0.158505 1.652L1.1325 1.29383C1.19683 1.26627 1.25196 1.21117 1.27953 1.14688L1.63788 0.173367C1.72058 -0.0562349 2.02381 -0.0562349 2.10651 0.164183Z" transform="translate(69.2823 462.535)" fill="#FFD41D"/>
<path d="M6.6863 0.509717L7.83514 3.60475C7.91786 3.81598 8.08329 3.99048 8.29468 4.06395L11.392 5.21196C12.0721 5.45993 12.0721 6.42426 11.392 6.68142L8.29468 7.82943C8.08329 7.91208 7.90867 8.0774 7.83514 8.28863L6.6863 11.3837C6.43814 12.0633 5.47311 12.0633 5.21577 11.3837L4.06693 8.28863C3.98421 8.0774 3.81877 7.9029 3.60739 7.82943L0.510079 6.68142C-0.170038 6.43344 -0.170038 5.46912 0.510079 5.21196L3.60739 4.06395C3.81877 3.98129 3.9934 3.81598 4.06693 3.60475L5.21577 0.509717C5.46392 -0.169905 6.42895 -0.169905 6.6863 0.509717Z" transform="translate(306.224 720.644)" fill="#FFD41D"/>
<path d="M6.68629 0.509721L7.83513 3.60475C7.91785 3.81599 8.08328 3.99048 8.29467 4.06396L11.392 5.21197C12.0721 5.45994 12.0721 6.42427 11.392 6.68142L8.29467 7.82943C8.08328 7.91209 7.90866 8.0774 7.83513 8.28863L6.68629 11.3837C6.43813 12.0633 5.4731 12.0633 5.21576 11.3837L4.06692 8.28863C3.9842 8.0774 3.81877 7.9029 3.60738 7.82943L0.510092 6.68142C-0.170025 6.43345 -0.170025 5.46912 0.510092 5.21197L3.60738 4.06396C3.81877 3.9813 3.99339 3.81599 4.06692 3.60475L5.21576 0.509721C5.4731 -0.169901 6.43813 -0.169901 6.68629 0.509721Z" transform="translate(222.05 640.357)" fill="#FFD41D"/>
<path d="M3.80037 0.296182L4.45292 2.05035C4.49887 2.16974 4.59077 2.27076 4.71944 2.31668L6.47489 2.96876C6.8609 3.1157 6.8609 3.65755 6.47489 3.8045L4.71944 4.45658C4.59996 4.5025 4.49887 4.59433 4.45292 4.7229L3.80037 6.47707C3.65331 6.8628 3.11109 6.8628 2.96404 6.47707L2.31149 4.7229C2.26553 4.60351 2.17364 4.5025 2.04496 4.45658L0.289518 3.8045C-0.0964941 3.65755 -0.0964941 3.1157 0.289518 2.96876L2.04496 2.31668C2.16444 2.27076 2.26553 2.17893 2.31149 2.05035L2.96404 0.296182C3.1019 -0.0987334 3.65331 -0.0987334 3.80037 0.296182Z" transform="translate(390.608 787.648)" fill="#FFD41D"/>
<path d="M6.68628 0.509717L7.83512 3.60475C7.91784 3.81598 8.08327 3.99048 8.29466 4.06395L11.392 5.21196C12.0721 5.45993 12.0721 6.42426 11.392 6.68142L8.29466 7.82943C8.08327 7.91208 7.90865 8.0774 7.83512 8.28863L6.68628 11.3837C6.43813 12.0633 5.47309 12.0633 5.21575 11.3837L4.06691 8.28863C3.98419 8.0774 3.81876 7.9029 3.60737 7.82943L0.510106 6.68142C-0.170011 6.43344 -0.170011 5.46912 0.510106 5.21196L3.60737 4.06395C3.81876 3.98129 3.99338 3.81598 4.06691 3.60475L5.21575 0.509717C5.47309 -0.169905 6.43813 -0.169905 6.68628 0.509717Z" transform="translate(459.603 636.706)" fill="#FFD41D"/>
<path d="M78.8936 -1.1211e-06L-8.97536e-06 78.8362" transform="translate(204.046 736.22)" stroke="url(#paint2_linear)" stroke-width="5" stroke-miterlimit="10" stroke-linecap="round"/>
<path d="M78.9028 0L0 78.8362" transform="translate(391.088 389.609)" stroke="url(#paint3_linear)" stroke-width="15" stroke-miterlimit="10" stroke-linecap="round"/>
<path d="M1.3048 2.60827C2.02541 2.60827 2.60959 2.02441 2.60959 1.30416C2.60959 0.583901 2.02541 0 1.3048 0C0.584178 0 0 0.583901 0 1.30416C0 2.02441 0.584178 2.60827 1.3048 2.60827Z" transform="translate(60.1123 932.392)" fill="#FFED00"/>
<path d="M1.30479 2.60827C2.0254 2.60827 2.6096 2.02439 2.6096 1.30414C2.6096 0.583879 2.0254 0 1.30479 0C0.584167 0 -4.48667e-06 0.583879 -4.48667e-06 1.30414C-4.48667e-06 2.02439 0.584167 2.60827 1.30479 2.60827Z" transform="translate(253.688 659.9)" fill="#FFED00"/>
<path d="M1.30481 2.60829C2.02543 2.60829 2.60958 2.02439 2.60958 1.30413C2.60958 0.583874 2.02543 -4.48441e-06 1.30481 -4.48441e-06C0.584194 -4.48441e-06 0 0.583874 0 1.30413C0 2.02439 0.584194 2.60829 1.30481 2.60829Z" transform="translate(470.204 751.208)" fill="#FFED00"/>
<path d="M1.30479 2.60828C2.0254 2.60828 2.6096 2.02439 2.6096 1.30414C2.6096 0.583879 2.0254 0 1.30479 0C0.584167 0 1.79467e-05 0.583879 1.79467e-05 1.30414C1.79467e-05 2.02439 0.584167 2.60828 1.30479 2.60828Z" transform="translate(504.504 561.079)" fill="#FFED00"/>
<path d="M2.8859 5.76759C4.47974 5.76759 5.7718 4.47647 5.7718 2.88379C5.7718 1.29111 4.47974 0 2.8859 0C1.29206 0 4.48768e-06 1.29111 4.48768e-06 2.88379C4.48768e-06 4.47647 1.29206 5.76759 2.8859 5.76759Z" transform="translate(133.115 871.409)" fill="#FFED00"/>
<path d="M3.97042 7.93504C6.16322 7.93504 7.94083 6.15874 7.94083 3.96754C7.94083 1.77634 6.16322 0 3.97042 0C1.77762 0 -8.97536e-06 1.77634 -8.97536e-06 3.96754C-8.97536e-06 6.15874 1.77762 7.93504 3.97042 7.93504Z" transform="translate(29.0065 644.353)" fill="#FF5F6D"/>
<path d="M3.97042 7.93504C6.16322 7.93504 7.94083 6.15874 7.94083 3.96754C7.94083 1.77634 6.16322 0 3.97042 0C1.77762 0 -8.97536e-06 1.77634 -8.97536e-06 3.96754C-8.97536e-06 6.15874 1.77762 7.93504 3.97042 7.93504Z" transform="translate(96.0217 540.457)" fill="#FF5F6D"/>
<path d="M2.82958 0.220691L3.31608 1.53562C3.3528 1.62758 3.41707 1.70115 3.50886 1.72873L4.82152 2.21608C5.10608 2.32643 5.10608 2.73103 4.82152 2.84137L3.50886 3.32872C3.41707 3.3655 3.34362 3.42988 3.31608 3.52183L2.82958 4.83676C2.71942 5.12182 2.31552 5.12182 2.20537 4.83676L1.71886 3.52183C1.68214 3.42988 1.61788 3.35631 1.52608 3.32872L0.213425 2.84137C-0.0711387 2.73103 -0.0711387 2.32643 0.213425 2.21608L1.52608 1.72873C1.61788 1.69195 1.69132 1.62758 1.71886 1.53562L2.20537 0.220691C2.31552 -0.0735608 2.71942 -0.0735608 2.82958 0.220691Z" transform="translate(149.08 795.201) rotate(88.0582)" fill="#FFD41D"/>
<path d="M6.67807 0.510348L7.82551 3.60918C7.90812 3.82068 8.07335 3.99539 8.28448 4.06895L11.378 5.21838C12.0572 5.46665 12.0572 6.43216 11.378 6.68964L8.28448 7.83906C8.07335 7.92182 7.89894 8.08733 7.82551 8.29883L6.67807 11.3977C6.43023 12.0781 5.46638 12.0781 5.20936 11.3977L4.06192 8.29883C3.97931 8.08733 3.81407 7.91262 3.60295 7.83906L0.509466 6.68964C-0.169816 6.44136 -0.169816 5.47585 0.509466 5.21838L3.60295 4.06895C3.81407 3.9862 3.98849 3.82068 4.06192 3.60918L5.20936 0.510348C5.46638 -0.17011 6.43023 -0.17011 6.67807 0.510348Z" transform="translate(36.8707 797.725) rotate(88.0582)" fill="#FFD41D"/>
<path d="M3.96555 7.9448C6.15565 7.9448 7.93108 6.16632 7.93108 3.97242C7.93108 1.77852 6.15565 0 3.96555 0C1.77544 0 -8.96434e-06 1.77852 -8.96434e-06 3.97242C-8.96434e-06 6.16632 1.77544 7.9448 3.96555 7.9448Z" transform="translate(175.978 728.268) rotate(88.0582)" fill="#FF5F6D"/>
<path d="M1.30479 2.60828C2.0254 2.60828 2.6096 2.0244 2.6096 1.30414C2.6096 0.583888 2.0254 8.96883e-06 1.30479 8.96883e-06C0.584167 8.96883e-06 1.79467e-05 0.583888 1.79467e-05 1.30414C1.79467e-05 2.0244 0.584167 2.60828 1.30479 2.60828Z" transform="translate(500.231 362.108)" fill="#FF5F6D"/>
<path d="M1.3048 2.60829C2.02542 2.60829 2.60959 2.02439 2.60959 1.30413C2.60959 0.583874 2.02542 -4.48441e-06 1.3048 -4.48441e-06C0.584185 -4.48441e-06 -8.97333e-06 0.583874 -8.97333e-06 1.30413C-8.97333e-06 2.02439 0.584185 2.60829 1.3048 2.60829Z" transform="translate(327.141 353.714)" fill="#FF5F6D"/>
<path d="M1.30481 2.60828C2.02543 2.60828 2.60958 2.02438 2.60958 1.30412C2.60958 0.583865 2.02543 8.96883e-06 1.30481 8.96883e-06C0.584194 8.96883e-06 0 0.583865 0 1.30412C0 2.02438 0.584194 2.60828 1.30481 2.60828Z" transform="translate(390.704 421.529)" fill="#FF5F6D"/>
<path d="M1.30479 2.60828C2.02541 2.60828 2.60958 2.0244 2.60958 1.30414C2.60958 0.583888 2.02541 8.96883e-06 1.30479 8.96883e-06C0.584172 8.96883e-06 0 0.583888 0 1.30414C0 2.0244 0.584172 2.60828 1.30479 2.60828Z" transform="translate(348.84 287.488)" fill="#0085AE"/>
<path d="M1.30479 2.60828C2.02541 2.60828 2.60959 2.0244 2.60959 1.30414C2.60959 0.583888 2.02541 -2.24221e-06 1.30479 -2.24221e-06C0.584175 -2.24221e-06 0 0.583888 0 1.30414C0 2.0244 0.584175 2.60828 1.30479 2.60828Z" transform="translate(45.7379 172.135)" fill="#FF5F6D"/>
<path d="M1.30479 2.60828C2.02541 2.60828 2.60958 2.0244 2.60958 1.30414C2.60958 0.583885 2.02541 0 1.30479 0C0.584176 0 4.48667e-06 0.583885 4.48667e-06 1.30414C4.48667e-06 2.0244 0.584176 2.60828 1.30479 2.60828Z" transform="translate(109.586 120.852)" fill="#0085AE"/>
<path d="M1.30479 2.60828C2.02541 2.60828 2.60958 2.0244 2.60958 1.30414C2.60958 0.583883 2.02541 0 1.30479 0C0.584176 0 4.48667e-06 0.583883 4.48667e-06 1.30414C4.48667e-06 2.0244 0.584176 2.60828 1.30479 2.60828Z" transform="translate(219.953 43.3287)" fill="#0085AE"/>
<path d="M1.30479 2.60828C2.02541 2.60828 2.60959 2.0244 2.60959 1.30414C2.60959 0.583884 2.02541 0 1.30479 0C0.584176 0 0 0.583884 0 1.30414C0 2.0244 0.584176 2.60828 1.30479 2.60828Z" transform="translate(44.2858 45.9278)" fill="#0085AE"/>
<path d="M4.1818 8.35753C6.49134 8.35753 8.3636 6.48664 8.3636 4.17877C8.3636 1.87091 6.49134 1.79377e-05 4.1818 1.79377e-05C1.87226 1.79377e-05 0 1.87091 0 4.17877C0 6.48664 1.87226 8.35753 4.1818 8.35753Z" transform="translate(8.59802 499.133)" fill="#0085AE"/>
<path d="M4.1818 8.35753C6.49134 8.35753 8.3636 6.48664 8.3636 4.17877C8.3636 1.87091 6.49134 1.79377e-05 4.1818 1.79377e-05C1.87226 1.79377e-05 0 1.87091 0 4.17877C0 6.48664 1.87226 8.35753 4.1818 8.35753Z" transform="translate(354.08 615.382)" fill="#0085AE"/>
<path d="M5.18359 10.3596C8.04641 10.3596 10.3672 8.04057 10.3672 5.17983C10.3672 2.31909 8.04641 1.79377e-05 5.18359 1.79377e-05C2.32077 1.79377e-05 8.97536e-06 2.31909 8.97536e-06 5.17983C8.97536e-06 8.04057 2.32077 10.3596 5.18359 10.3596Z" transform="translate(248.056 454.543)" fill="#FFC371"/>
<path d="M1.30414 2.60958C2.0244 2.60958 2.60828 2.02543 2.60828 1.30481C2.60828 0.584195 2.0244 0 1.30414 0C0.583884 0 0 0.584195 0 1.30481C0 2.02543 0.583884 2.60958 1.30414 2.60958Z" transform="translate(311.197 97.4993) scale(1.00061 0.999385) rotate(-135)" fill="#FFED00"/>
<path d="M3.96753 7.93903C6.15874 7.93903 7.93505 6.16184 7.93505 3.96954C7.93505 1.77723 6.15874 0 3.96753 0C1.77633 0 -8.96883e-06 1.77723 -8.96883e-06 3.96954C-8.96883e-06 6.16184 1.77633 7.93903 3.96753 7.93903Z" transform="translate(316.692 41.2894) scale(1.00061 0.999385) rotate(-135)" fill="#FF5F6D"/>
<path d="M5.18041 10.366C8.04147 10.366 10.3608 8.04552 10.3608 5.18302C10.3608 2.32052 8.04147 1.79487e-05 5.18041 1.79487e-05C2.31935 1.79487e-05 8.96985e-06 2.32052 8.96985e-06 5.18302C8.96985e-06 8.04552 2.31935 10.366 5.18041 10.366Z" transform="translate(158.365 14.6471) scale(1.00061 0.999385) rotate(-135)" fill="#FFC371"/>
</g>
<defs>
<linearGradient id="paint0_linear" x2="1" gradientUnits="userSpaceOnUse" gradientTransform="matrix(79.0179 -78.9207 79.0576 78.9604 -39.5288 39.4405)">
<stop stop-color="#FDEA18"/>
<stop offset="1" stop-color="#FDEA18" stop-opacity="0"/>
</linearGradient>
<linearGradient id="paint1_linear" x2="1" gradientUnits="userSpaceOnUse" gradientTransform="matrix(79.0179 -78.9207 79.0576 78.9604 -39.6514 39.5348)">
<stop stop-color="#FF5F6D"/>
<stop offset="1" stop-color="#FF5F6D" stop-opacity="0"/>
</linearGradient>
<linearGradient id="paint2_linear" x2="1" gradientUnits="userSpaceOnUse" gradientTransform="translate(-0.783109 -0.782066) scale(80.463 80.4044)">
<stop stop-color="#FDEA18"/>
<stop offset="1" stop-color="#FDEA18" stop-opacity="0"/>
</linearGradient>
<linearGradient id="paint3_linear" x2="1" gradientUnits="userSpaceOnUse" gradientTransform="matrix(79.518 -81.9177 82.0597 79.4601 -41.0299 39.1905)">
<stop stop-color="#FF5F6D"/>
<stop offset="1" stop-color="#FF5F6D" stop-opacity="0"/>
</linearGradient>
</defs>
</svg>
