<svg width="929" height="815" viewBox="0 0 929 815" fill="none" xmlns="http://www.w3.org/2000/svg">
<g opacity="0.2" filter="url(#filter0_d)">
<path d="M14.3592 69.1237C35.7874 27.9153 78.6438 -6.76118e-06 128.349 -6.76118e-06C199.261 -6.76118e-06 256.697 57.6031 256.697 128.942C256.697 200.06 199.261 257.663 128.349 257.663C62.7383 257.663 8.61549 208.479 0.883652 144.672V144.451V144.229C0.220923 139.134 2.69665e-05 134.038 2.69665e-05 128.721C2.69665e-05 127.17 2.69665e-05 125.619 2.69665e-05 124.29" transform="translate(667.303 186.545)" stroke="#F8F8F8" stroke-miterlimit="10"/>
<path d="M2.69665e-05 29.6878C0.662756 25.0352 1.54635 20.6042 2.6509 15.9516C3.97636 10.4129 5.74368 5.09565 7.73187 -6.76118e-06" transform="translate(668.408 267.411)" stroke="#F8F8F8" stroke-miterlimit="10"/>
<path d="M2.69665e-05 -6.76118e-06C23.6374 23.4843 51.251 38.5498 79.7484 45.1963" transform="translate(680.558 332.769)" stroke="#F8F8F8" stroke-miterlimit="10"/>
<path d="M2.69665e-05 77.7642C21.8701 72.8901 42.6355 62.9203 60.971 47.1902C75.5511 34.7834 88.5848 19.2749 99.4094 -6.76118e-06" transform="translate(823.044 300.644)" stroke="#F8F8F8" stroke-miterlimit="10"/>
<path d="M0 127.17C0 127.17 0 127.391 0 127.17C0 127.391 0 127.391 0 127.613C2.2091 140.463 5.52274 149.99 5.52274 149.99C5.08092 144.229 8.83641 135.81 12.5919 129.164C15.4637 124.068 18.3355 119.859 19.2192 118.751C24.521 131.822 34.241 142.457 47.4956 148.439C52.1347 150.433 56.7738 151.762 61.6338 152.648C70.6911 161.953 81.5157 169.043 92.1194 174.36C98.0839 177.24 103.828 179.899 109.129 181.893C124.151 187.432 135.418 189.426 135.418 189.426L154.858 175.025L177.832 157.744C142.929 139.577 129.895 108.338 129.895 108.338C137.185 88.6201 134.534 68.2375 125.035 52.2859C124.814 51.3997 124.814 50.5135 124.814 49.6273C124.814 32.7895 144.696 5.31721 144.696 5.31721C130.779 6.33861e-06 106.258 3.38059e-06 106.258 3.38059e-06C75.5511 6.86806 53.0183 29.0231 48.3792 33.8972C39.7637 38.9929 32.0319 46.304 26.0673 55.3876" transform="translate(667.966 203.605)" stroke="#F8F8F8" stroke-miterlimit="10"/>
<path d="M-1.34833e-05 13.7361L15.4637 5.09566C16.1264 3.32325 16.7891 1.7724 17.4518 -6.76118e-06" transform="translate(671.059 269.627)" stroke="#F8F8F8" stroke-miterlimit="10"/>
<path d="M0.441819 0C0.22091 1.7724 -2.69665e-05 3.76636 -2.69665e-05 5.53876C-2.69665e-05 5.76031 -2.69665e-05 5.98187 -2.69665e-05 6.20342C-2.69665e-05 6.42497 -2.69665e-05 6.42496 -2.69665e-05 6.64651" transform="translate(587.998 274.723)" stroke="#F8F8F8" stroke-miterlimit="10"/>
<path d="M-2.69665e-05 14.6223C6.84817 5.7603 17.4519 -3.38059e-06 29.6019 -3.38059e-06C45.0656 -3.38059e-06 58.3201 9.52666 64.0638 23.0412C65.8311 27.4722 66.9357 32.3463 66.9357 37.442C66.9357 43.2023 65.6102 48.7411 63.1802 53.6152" transform="translate(595.729 242.819)" stroke="#F8F8F8" stroke-miterlimit="10"/>
<path d="M-1.34833e-05 0C6.84819 8.64046 17.4519 14.4008 29.381 14.4008C38.2174 14.4008 46.391 11.2991 52.7974 6.20342" transform="translate(595.95 303.524)" stroke="#F8F8F8" stroke-miterlimit="10"/>
<path d="M18.7774 0C13.9173 8.64046 7.29005 15.0654 2.69665e-05 18.8318" transform="translate(643.004 275.83)" stroke="#F8F8F8" stroke-miterlimit="10"/>
<path d="M26.951 17.2809C18.3355 15.287 9.94094 10.6344 3.09274 3.32324C2.2091 2.43704 1.32543 1.3293 0.441792 0.443097C0.220883 0.221547 0.220923 0.221554 1.34833e-05 3.38059e-06" transform="translate(587.555 281.147)" stroke="#F8F8F8" stroke-miterlimit="10"/>
<path d="M-1.34833e-05 0L9.72 5.98185L22.3119 13.7361C26.5092 20.6042 20.7655 30.1308 12.5919 29.6877L2.43001 23.2628L0.22091 21.9335" transform="translate(586.008 251.46)" stroke="#F8F8F8" stroke-miterlimit="10"/>
<path d="M0.883639 -6.76118e-06L1.34833e-05 0.443087" transform="translate(250.668 414.742)" stroke="#F8F8F8" stroke-miterlimit="10"/>
<path d="M5.30183 6.76118e-06L1.34833e-05 2.43704" transform="translate(207.591 383.947)" stroke="#F8F8F8" stroke-miterlimit="10"/>
<path d="M1.34833e-05 0C16.1264 1.10775 28.9392 14.6223 28.9392 31.017C28.9392 39.6575 25.4046 47.6333 19.661 53.1721" transform="translate(566.569 130.715)" stroke="#F8F8F8" stroke-miterlimit="10"/>
<path d="M0.883639 -3.38059e-06C0.22091 2.43705 1.34833e-05 5.09565 1.34833e-05 7.75426C1.34833e-05 16.3947 3.53458 24.149 9.05732 29.6877" transform="translate(533.432 154.199)" stroke="#F8F8F8" stroke-miterlimit="10"/>
<path d="M0.165949 0.166423C-0.0553345 -0.0554756 -0.0553345 -0.0554756 0.165949 0.166423" transform="translate(309.706 60.5386)" stroke="#F8F8F8" stroke-miterlimit="10"/>
<path d="M0 17.4538C5.74365 5.49011 18.9982 -1.82105 32.6946 0.394452C39.9847 1.5022 46.1701 5.26856 50.8092 10.1427" transform="translate(294.629 1.15649)" stroke="#F8F8F8" stroke-miterlimit="10"/>
<path d="M3.31366 0.66465L1.34833e-05 8.45147e-07" transform="translate(377.691 64.4711)" stroke="#F8F8F8" stroke-miterlimit="10"/>
<path d="M0.582398 31.9032C-1.18488 18.6102 0.582398 7.08961 12.7324 -2.11287e-07H12.9534L149.917 32.5679L149.475 34.5619" transform="translate(332.705 11.2991)" stroke="#F8F8F8" stroke-miterlimit="10"/>
<path d="M6.74163e-06 26.586L57.4365 -1.69029e-06H57.6574" transform="translate(252.214 60.4832)" stroke="#F8F8F8" stroke-miterlimit="10"/>
<path d="M13.0337 77.0995C16.7891 68.9021 24.7419 62.6987 33.7992 62.4772L34.4619 62.6987C30.0437 55.6091 22.7537 50.2919 13.9173 48.5195C9.2782 47.6333 4.63912 47.8549 0.441833 48.9626L-1.34833e-05 48.0764L101.839 0.66465L103.165 8.45147e-07C116.64 6.20341 124.151 17.5025 122.605 33.011" transform="translate(192.789 17.9456)" stroke="#F8F8F8" stroke-miterlimit="10"/>
<path d="M1.54636 6.2034C0.883632 4.20945 0.441819 1.99394 0 -1.35224e-05" transform="translate(166.501 297.764)" stroke="#F8F8F8" stroke-miterlimit="10"/>
<path d="M0 0C8.83639 19.9395 20.7655 38.1067 35.5665 53.8367C46.1701 65.3574 58.3202 75.5486 71.3538 83.9676C72.0166 84.4107 72.6793 84.8538 73.1211 85.0753" transform="translate(177.547 330.11)" stroke="#F8F8F8" stroke-miterlimit="10"/>
<path d="M2.69665e-05 0C26.951 25.4783 46.8329 58.4893 55.8902 95.7097" transform="translate(486.157 105.236)" stroke="#F8F8F8" stroke-miterlimit="10"/>
<path d="M1.34833e-05 -1.69029e-06C23.8583 3.1017 46.1701 10.6344 66.4938 21.7119" transform="translate(379.9 54.9445)" stroke="#F8F8F8" stroke-miterlimit="10"/>
<path d="M2.87183 3.38059e-06C1.76728 3.54481 0.883639 7.0896 0 10.6344" transform="translate(166.501 194.743)" stroke="#F8F8F8" stroke-miterlimit="10"/>
<path d="M1.34833e-05 50.9566C2.43002 45.6394 4.86003 40.5437 7.73185 35.6696C13.0337 25.9214 19.4401 16.8378 26.2883 8.19736C26.7301 7.53271 27.3928 6.86806 28.0555 6.20341C29.8228 4.20946 31.5901 1.99396 33.3574 3.38059e-06" transform="translate(177.768 121.631)" stroke="#F8F8F8" stroke-miterlimit="10"/>
<path d="M8.75659 52.5074C2.57111 46.304 -0.742518 37.442 0.141121 27.9153C1.46658 13.5146 12.2911 2.21551 25.9875 3.38059e-06" transform="translate(115.771 142.678)" stroke="#F8F8F8" stroke-miterlimit="10"/>
<path d="M10.6037 -6.76118e-06C11.0455 2.6586 11.2664 5.53876 11.0455 8.41891C10.1618 17.0594 6.18547 24.3705 0 29.6877" transform="translate(166.501 167.714)" stroke="#F8F8F8" stroke-miterlimit="10"/>
<path d="M2.20908 1.7724L-1.34833e-05 1.69029e-06" transform="translate(201.625 127.835)" stroke="#F8F8F8" stroke-miterlimit="10"/>
<path d="M43.7146 52.2859L36.2037 62.6987C22.5073 68.2375 -2.45551 53.6152 0.195406 37.2205L27.3673 -1.69029e-06L29.7973 1.7724" transform="translate(141.563 104.793)" stroke="#F8F8F8" stroke-miterlimit="10"/>
<path d="M6.74163e-06 14.6223C3.75547 6.42496 11.7082 0.221549 20.7655 -1.69029e-06L21.4282 0.221554" transform="translate(205.823 80.4227)" stroke="#F8F8F8" stroke-miterlimit="10"/>
<path d="M35.575 60.7048C34.2495 60.9263 32.9241 61.1479 31.5986 61.1479C29.3895 61.1479 27.1804 61.1479 25.1922 60.7048C13.7049 58.4893 4.86856 50.2919 1.55492 39.8791C0.00854976 35.005 -0.43327 29.6877 0.450369 24.3705C2.65947 12.1853 11.9377 2.88016 22.9832 1.69029e-06" transform="translate(170.028 66.9082)" stroke="#F8F8F8" stroke-miterlimit="10"/>
<path d="M15.0218 3.38059e-06C15.6846 0.664654 16.3473 1.32931 17.01 1.99396C17.8937 3.10171 18.7773 4.20946 19.661 5.31721C22.9746 10.1913 24.9628 16.1732 24.9628 22.5981C24.9628 23.0412 24.9628 23.7059 24.9628 24.3705C24.3 38.7713 13.6964 50.5135 1.34833e-05 53.1721" transform="translate(570.987 278.932)" stroke="#F8F8F8" stroke-miterlimit="10"/>
<path d="M0.883666 28.3585C0.220937 25.9214 -2.69665e-05 23.4843 -2.69665e-05 20.8257C-2.69665e-05 12.8499 3.09272 5.53876 7.95274 6.76118e-06" transform="translate(533.874 280.926)" stroke="#F8F8F8" stroke-miterlimit="10"/>
<path d="M0 60.7811L39.3219 2.73496C39.9846 2.51341 40.6474 2.07029 41.531 1.84874C55.4483 -3.46847 74.6675 2.51341 77.9811 22.0098L31.1483 91.5766" transform="translate(496.761 304.777)" stroke="#F8F8F8" stroke-miterlimit="10"/>
<path d="M30.9273 -1.69029e-06L70.0284 53.6152L70.4702 54.0583C71.1329 70.2314 48.3792 82.4167 38.2174 77.321L37.9965 76.878L-1.34833e-05 27.0291" transform="translate(496.54 77.0995)" stroke="#F8F8F8" stroke-miterlimit="10"/>
<path d="M-1.34833e-05 23.3143C3.97636 7.58425 19.661 -2.38552 35.7874 0.494638C51.9138 3.59634 62.9593 18.6618 60.7502 35.0565C60.7502 35.7211 60.5292 36.3858 60.5292 36.8289C57.6574 51.8943 44.182 62.5287 29.381 62.0856C27.6137 62.0856 26.0673 61.8641 24.3001 61.6425C23.8582 61.6425 23.1955 61.421 22.7537 61.1994" transform="translate(466.717 42.043)" stroke="#F8F8F8" stroke-miterlimit="10"/>
<path d="M111.78 38.7713L17.2309 90.8356L16.3473 89.0632C17.01 87.5124 17.4519 85.74 17.6728 83.9676C20.3237 69.5668 12.8128 55.6091 1.34833e-05 49.8488L90.3521 8.45147e-07C105.374 0.443101 119.07 19.718 111.78 38.7713Z" transform="translate(379.9 63.3634)" stroke="#F8F8F8" stroke-miterlimit="10"/>
<path d="M40.8683 45.3164C41.531 44.2087 41.9728 43.1009 42.4147 41.9932C43.0774 40.4423 43.5192 38.6699 43.7401 36.8975C46.3911 22.4967 38.8801 8.53908 26.0674 2.77877C23.8583 1.89257 21.4282 1.00637 18.9982 0.563271C12.3709 -0.76603 5.74366 0.341718 6.74163e-06 3.00032" transform="translate(353.833 110.655)" stroke="#F8F8F8" stroke-miterlimit="10"/>
<path d="M13.2546 13.5146C7.51092 10.4129 2.87182 5.7603 -6.74163e-06 -6.76118e-06" transform="translate(339.252 155.528)" stroke="#F8F8F8" stroke-miterlimit="10"/>
<path d="M57.4365 58.5796L44.8446 15.8204L41.7519 5.18596C28.2764 -5.89155 2.65092 1.64116 0 19.5867L2.87183 29.1134L15.9055 72.9804C16.1264 72.9804 16.3473 72.9804 16.5682 72.9804" transform="translate(349.856 140.151)" stroke="#F8F8F8" stroke-miterlimit="10"/>
<path d="M150.486 33.2325C141.429 39.2144 141.208 63.585 136.127 75.3271L13.964 42.7592L5.79037 40.5437C-1.05783 32.3463 -1.27875 22.5981 2.2558 14.6223C6.01127 6.42496 13.964 0.221549 23.0213 -1.69029e-06L23.684 0.221554L48.8678 6.86806L150.486 33.2325Z" transform="translate(203.346 80.4227)" stroke="#F8F8F8" stroke-miterlimit="10"/>
<path d="M0.454121 6.76118e-06C-2.4177 16.8378 8.62777 32.7895 25.196 35.8912C30.4978 36.9989 35.7997 36.5558 40.8806 34.7834" transform="translate(172.011 414.964)" stroke="#F8F8F8" stroke-miterlimit="10"/>
<path d="M22.5328 19.718C18.9982 9.96975 10.8246 2.2155 0 0" transform="translate(209.578 389.928)" stroke="#F8F8F8" stroke-miterlimit="10"/>
<path d="M-1.34833e-05 23.2628C3.53454 9.30511 16.1264 0 30.0437 0C32.0319 0 33.7992 0.221544 35.7874 0.443094C50.5883 3.32325 60.9711 16.1732 60.9711 30.7955C60.9711 32.7894 60.7501 34.7834 60.5292 36.7774C57.4365 53.6152 41.0892 64.6927 24.3001 61.591C23.8582 61.591 23.1955 61.3694 22.7537 61.3694" transform="translate(466.717 365.558)" stroke="#F8F8F8" stroke-miterlimit="10"/>
<path d="M-2.69665e-05 19.9395L35.5664 -6.76118e-06C50.8092 0.443094 64.5056 19.4964 56.9947 38.7713L5.52272 67.7944" transform="translate(434.465 387.048)" stroke="#F8F8F8" stroke-miterlimit="10"/>
<path d="M2.69665e-05 12.8499L22.9746 -1.35224e-05" transform="translate(396.688 466.142)" stroke="#F8F8F8" stroke-miterlimit="10"/>
<path d="M26.2882 -1.35224e-05C26.0673 -1.35224e-05 26.0673 -1.35224e-05 26.2882 -1.35224e-05L0.22091 14.6223L-1.34833e-05 14.8439" transform="translate(376.144 425.155)" stroke="#F8F8F8" stroke-miterlimit="10"/>
<path d="M1.34833e-05 0.443094C0.220923 0.443094 0.220923 0.443094 1.34833e-05 0.443094L0.662716 0" transform="translate(418.559 415.407)" stroke="#F8F8F8" stroke-miterlimit="10"/>
<path d="M-6.74163e-06 -6.76118e-06C3.53455 7.0896 9.72004 12.6284 17.4519 15.5085" transform="translate(339.252 483.423)" stroke="#F8F8F8" stroke-miterlimit="10"/>
<path d="M9.2782 60.2617C18.1146 57.16 25.4046 49.8488 28.4974 40.5437C28.9392 39.2144 29.1601 38.1067 29.381 36.7774C32.2528 21.0473 22.9746 5.76032 7.95273 1.32932C6.84819 0.886215 5.74364 0.664644 4.63909 0.443094C3.09272 0.221544 1.54634 0 -2.69665e-05 0" transform="translate(368.191 438.669)" stroke="#F8F8F8" stroke-miterlimit="10"/>
<path d="M148.289 32.7894L23.0332 -6.76118e-06C5.13953 0.443094 -8.11506 23.7059 5.80225 40.5437L135.918 75.3271C140.557 64.6927 140.999 43.2023 148.068 35.2265" transform="translate(203.334 408.096)" stroke="#F8F8F8" stroke-miterlimit="10"/>
<path d="M53.902 52.0643C58.9829 46.5256 62.0756 39.2144 62.0756 31.017C62.0756 18.6102 54.7856 7.75425 44.1819 2.88015C40.2056 1.10774 35.7874 3.38059e-06 30.9274 3.38059e-06C18.7773 3.38059e-06 8.17364 7.08962 3.09272 17.5025C1.10454 21.7119 0 26.3645 0 31.2386C0 40.1006 3.75545 48.0764 9.72001 53.8367" transform="translate(363.111 195.851)" stroke="#F8F8F8" stroke-miterlimit="10"/>
<path d="M0 6.76118e-06H13.2546C27.8346 6.76118e-06 39.7637 15.9516 39.7637 35.4481C39.7637 54.9445 27.8346 70.8961 13.2546 70.8961H0" transform="translate(243.819 232.185)" stroke="#F8F8F8" stroke-miterlimit="10"/>
<path d="M26.5092 70.896C41.1498 70.896 53.0184 55.0254 53.0184 35.448C53.0184 15.8706 41.1498 6.76117e-06 26.5092 6.76117e-06C11.8686 6.76117e-06 0 15.8706 0 35.448C0 55.0254 11.8686 70.896 26.5092 70.896Z" transform="matrix(0.999698 -0.0237951 0.0236577 0.999702 216.474 232.821)" stroke="#F8F8F8" stroke-miterlimit="10"/>
<path d="M19.8819 58.9324C30.8623 58.9324 39.7637 45.7399 39.7637 29.4662C39.7637 13.1925 30.8623 0 19.8819 0C8.90142 0 0 13.1925 0 29.4662C0 45.7399 8.90142 58.9324 19.8819 58.9324Z" transform="translate(223.937 238.167)" stroke="#F8F8F8" stroke-miterlimit="10"/>
<path d="M-1.34833e-05 -3.05176e-06H12.3709" transform="translate(260.167 239.718)" stroke="#F8F8F8" stroke-miterlimit="10"/>
<path d="M-1.34833e-05 0H12.3709" transform="translate(266.794 248.136)" stroke="#F8F8F8" stroke-miterlimit="10"/>
<path d="M-1.34833e-05 1.52588e-06H12.3709" transform="translate(269.003 256.777)" stroke="#F8F8F8" stroke-miterlimit="10"/>
<path d="M-1.34833e-05 3.05176e-06H12.3709" transform="translate(271.212 265.417)" stroke="#F8F8F8" stroke-miterlimit="10"/>
<path d="M-1.34833e-05 -1.52588e-06H12.3709" transform="translate(269.003 273.836)" stroke="#F8F8F8" stroke-miterlimit="10"/>
<path d="M-1.34833e-05 0H12.3709" transform="translate(269.003 282.477)" stroke="#F8F8F8" stroke-miterlimit="10"/>
<path d="M-1.34833e-05 3.05176e-06H12.3709" transform="translate(264.585 290.896)" stroke="#F8F8F8" stroke-miterlimit="10"/>
<path d="M-1.34833e-05 -3.05176e-06H12.3709" transform="translate(255.749 299.536)" stroke="#F8F8F8" stroke-miterlimit="10"/>
<path d="M39.7637 6.76118e-06H26.5092C11.9291 6.76118e-06 0 15.9516 0 35.4481C0 54.9445 11.9291 70.8961 26.5092 70.8961H39.7637" transform="translate(447.056 218.892)" stroke="#F8F8F8" stroke-miterlimit="10"/>
<path d="M35.448 53.0184C55.0254 53.0184 70.896 41.1498 70.896 26.5092C70.896 11.8686 55.0254 6.74164e-06 35.448 6.74164e-06C15.8706 6.74164e-06 0 11.8686 0 26.5092C0 41.1498 15.8706 53.0184 35.448 53.0184Z" transform="matrix(0.0236577 -0.999702 0.999698 0.0237951 459.553 289.02)" stroke="#F8F8F8" stroke-miterlimit="10"/>
<path d="M19.8819 58.9324C30.8623 58.9324 39.7637 45.7399 39.7637 29.4662C39.7637 13.1925 30.8623 0 19.8819 0C8.90142 0 0 13.1925 0 29.4662C0 45.7399 8.90142 58.9324 19.8819 58.9324Z" transform="translate(466.938 224.874)" stroke="#F8F8F8" stroke-miterlimit="10"/>
<path d="M12.371 -3.05176e-06H0" transform="translate(458.102 226.425)" stroke="#F8F8F8" stroke-miterlimit="10"/>
<path d="M12.371 0H0" transform="translate(451.475 234.843)" stroke="#F8F8F8" stroke-miterlimit="10"/>
<path d="M12.371 1.52588e-06H0" transform="translate(449.266 243.484)" stroke="#F8F8F8" stroke-miterlimit="10"/>
<path d="M12.371 3.05176e-06H0" transform="translate(447.056 252.124)" stroke="#F8F8F8" stroke-miterlimit="10"/>
<path d="M12.371 -1.52588e-06H0" transform="translate(449.266 260.543)" stroke="#F8F8F8" stroke-miterlimit="10"/>
<path d="M12.371 0H0" transform="translate(449.266 269.184)" stroke="#F8F8F8" stroke-miterlimit="10"/>
<path d="M12.371 3.05176e-06H0" transform="translate(453.684 277.602)" stroke="#F8F8F8" stroke-miterlimit="10"/>
<path d="M12.371 -3.05176e-06H0" transform="translate(462.52 286.243)" stroke="#F8F8F8" stroke-miterlimit="10"/>
<path d="M-1.34833e-05 5.31721L0.662722 14.1792C1.32545 23.9274 17.6728 30.5739 37.1128 29.2446C56.5529 27.9153 71.7957 18.6102 71.1329 8.86201L70.4702 0" transform="translate(309.871 56.4953)" stroke="#F8F8F8" stroke-miterlimit="10"/>
<path d="M63.8429 12.7945C64.2847 13.6807 64.7265 14.7885 64.7265 15.6747C64.9475 17.6686 64.0638 19.6626 62.2965 21.6565M70.2493 13.4592C68.0402 6.14802 56.7738 0.830812 42.4147 0.166161C39.9847 -0.0553893 37.3337 -0.0553893 34.6828 0.166161C30.7064 0.387711 27.1719 0.830814 23.6373 1.71701C16.3473 3.48942 9.94092 6.14802 5.74364 9.69283C2.20908 12.573 0.220916 15.6747 6.74163e-06 18.9979V19.2195C6.74163e-06 19.441 6.74163e-06 19.6626 6.74163e-06 19.8841C0.441826 29.6324 16.5682 36.722 36.0083 35.6142C38.4383 35.3927 40.6474 35.1711 42.8565 34.9496C54.3438 33.1772 63.622 28.5246 68.0402 22.9858C69.8075 20.7703 70.6911 18.3333 70.6911 15.8962C70.6911 15.01 70.4702 14.1238 70.2493 13.4592Z" transform="translate(309.651 41.4854)" stroke="#F8F8F8" stroke-miterlimit="10"/>
<path d="M57.6755 8.41891C54.8036 3.5448 45.7463 0.443102 34.4799 1.69029e-06C32.4917 1.69029e-06 30.2826 -1.7002e-06 28.2944 0.221549C24.7599 0.443099 21.4462 1.10775 18.3535 1.7724C7.30801 4.43101 -0.423797 9.96976 0.0180222 15.7301C0.0180222 16.1732 0.018002 16.3947 0.238912 16.8378C2.00619 23.4843 15.0399 27.9153 30.2826 26.8076C41.9909 25.9214 51.9318 22.155 56.35 17.2809" transform="translate(315.818 45.861)" stroke="#F8F8F8" stroke-miterlimit="10"/>
<path d="M-6.74163e-06 -3.38059e-06L0.441806 8.19736" transform="translate(318.266 72.2254)" stroke="#F8F8F8" stroke-miterlimit="10"/>
<path d="M-6.74163e-06 -1.69029e-06L0.441806 8.19736" transform="translate(327.102 75.9918)" stroke="#F8F8F8" stroke-miterlimit="10"/>
<path d="M1.34833e-05 1.69029e-06L0.441826 8.19737" transform="translate(335.719 76.8781)" stroke="#F8F8F8" stroke-miterlimit="10"/>
<path d="M0 -3.38059e-06L0.441813 8.19736" transform="translate(344.333 77.7642)" stroke="#F8F8F8" stroke-miterlimit="10"/>
<path d="M6.74163e-06 -3.38059e-06L0.441819 8.19736" transform="translate(352.728 75.5487)" stroke="#F8F8F8" stroke-miterlimit="10"/>
<path d="M1.34833e-05 3.38059e-06L0.662716 8.19736" transform="translate(361.123 75.1056)" stroke="#F8F8F8" stroke-miterlimit="10"/>
<path d="M-2.69665e-05 1.69029e-06L0.662743 8.41891" transform="translate(369.296 71.3393)" stroke="#F8F8F8" stroke-miterlimit="10"/>
<path d="M0 -1.69029e-06L0.662702 8.19736" transform="translate(377.47 64.9143)" stroke="#F8F8F8" stroke-miterlimit="10"/>
<path d="M38.4383 -1.35224e-05L71.3538 55.6091L72.2375 57.3815C70.0284 72.8901 52.3556 86.1831 34.6828 81.7521L34.0201 80.6443L-6.74163e-06 22.155" transform="translate(138.224 334.32)" stroke="#F8F8F8" stroke-miterlimit="10"/>
<path d="M31.1483 1.35224e-05C31.811 0.443114 32.2528 0.886208 32.6946 1.55086C38.6592 7.31117 42.1938 15.287 42.1938 23.9274C42.1938 25.2567 42.1937 26.3645 41.9728 27.4722C41.7519 29.0231 41.531 30.3524 41.0892 31.6817C37.5547 44.9747 25.4046 54.9445 11.0455 54.9445C8.17365 54.9445 5.30185 54.5014 2.65093 53.8367C1.76729 53.6152 0.883625 53.3936 -1.34833e-05 52.9505" transform="translate(135.353 302.638)" stroke="#F8F8F8" stroke-miterlimit="10"/>
<path d="M0.883645 1.10775C0.883645 0.886201 0.662736 0.886201 0.883645 1.10775C0.441826 0.664651 0.220896 0.443101 -1.34833e-05 0" transform="translate(123.202 346.726)" stroke="#F8F8F8" stroke-miterlimit="10"/>
<path d="M42.8565 120.413L43.0774 120.191C43.5192 119.748 43.961 119.526 44.1819 119.083V8.30814C36.671 -2.76938 7.95272 -2.76938 -2.69665e-05 8.30814V118.64" transform="translate(372.61 238.721)" stroke="#F8F8F8" stroke-miterlimit="10"/>
<path d="M43.961 104.179C33.5783 116.808 10.1618 117.029 0 106.173V8.691C7.95275 -1.05721 30.9274 -4.60202 44.1819 8.691L43.961 104.179Z" transform="translate(542.048 175.196)" stroke="#F8F8F8" stroke-miterlimit="10"/>
<path d="M0.883625 81.0874C0.441806 79.9796 0 78.8719 0 77.7641V8.41891C0.22091 3.5448 4.85999 6.76118e-06 10.6036 6.76118e-06C16.3473 6.76118e-06 20.7655 3.76635 21.2073 8.41891V77.7641C21.2073 79.315 20.5446 80.6443 19.6609 81.9736" transform="translate(378.574 260.986)" stroke="#F8F8F8" stroke-miterlimit="10"/>
<path d="M9.05728 123.404C19.6609 127.835 33.7992 125.619 42.4147 116.757V114.763V110.11V17.2809V7.97581C35.3456 -2.6586 7.51094 -2.6586 6.74163e-06 7.97581V100.362" transform="translate(124.087 187.875)" stroke="#F8F8F8" stroke-miterlimit="10"/>
<path d="M12.15 82.8598C16.5682 81.9736 20.1028 78.8719 20.3237 74.884V8.19735C20.1028 3.5448 15.6846 0 10.1618 0C4.86 0 0.441826 3.5448 6.74163e-06 8.19735V66.022" transform="translate(129.609 211.581)" stroke="#F8F8F8" stroke-miterlimit="10"/>
<path d="M1.32547 37.6108V36.5031L0.883625 26.0902L0 4.82139C2.43001 -0.0527187 13.9173 -2.71133 18.5564 4.15673L19.44 26.9764L19.661 33.1798V35.8384" transform="translate(378.574 315.983)" stroke="#F8F8F8" stroke-miterlimit="10"/>
<path d="M52.3556 -1.35224e-05C52.1347 0.221537 51.9138 0.443094 51.6929 0.664644C47.7165 4.65255 42.6356 7.53272 37.3338 9.30513C36.671 9.52668 36.0082 9.74822 35.3455 9.74822C32.2528 10.6344 29.1601 10.856 25.8464 10.856C15.9055 10.856 6.6273 6.86807 6.74163e-06 0.443114" transform="translate(367.087 415.185)" stroke="#F8F8F8" stroke-miterlimit="10"/>
<path d="M1.34833e-05 40.1006C1.34833e-05 39.436 1.34833e-05 38.7713 1.34833e-05 38.1066C1.34833e-05 37.8851 1.34833e-05 37.6635 1.34833e-05 37.6635C1.34833e-05 24.3705 6.84819 12.6284 17.2309 5.98185C18.1146 5.53875 18.7773 4.87411 19.661 4.43101C21.2073 3.5448 22.7537 2.88015 24.3001 2.2155C28.2765 0.664651 32.6946 0 37.1128 0C39.101 0 40.8683 0.221544 42.8565 0.443094C49.2629 1.32929 55.0065 3.9879 59.8666 7.75426C60.5293 8.19736 60.9711 8.64047 61.6338 9.08357C69.5866 15.9516 74.6675 26.1429 74.6675 37.442C74.6675 37.6635 74.6675 37.8851 74.6675 38.3282" transform="translate(355.601 351.157)" stroke="#F8F8F8" stroke-miterlimit="10"/>
<path d="M1.34833e-05 6.76118e-06C1.34833e-05 0.221557 0.220903 0.22155 0.220903 0.443101" transform="translate(355.6 389.485)" stroke="#F8F8F8" stroke-miterlimit="10"/>
<path d="M-6.74163e-06 1.99394C15.9055 12.6284 35.7874 11.7422 50.5883 0" transform="translate(366.866 397.683)" stroke="#F8F8F8" stroke-miterlimit="10"/>
<path d="M-1.34833e-05 1.32929C0.220896 0.886188 0.441846 0.664637 0.662756 0.221537C0.662756 0.221537 0.662702 6.76118e-06 0.883612 6.76118e-06" transform="translate(429.163 382.839)" stroke="#F8F8F8" stroke-miterlimit="10"/>
<path d="M26.0673 109.224C30.9274 128.499 37.5546 146.445 46.6119 159.295C38.6592 160.181 30.7065 161.732 23.1955 163.947C17.0101 151.097 9.94095 132.93 5.30185 109.224C2.20911 93.2727 -6.74163e-06 74.6625 -6.74163e-06 53.6152V52.9505C-6.74163e-06 52.5074 -6.74163e-06 51.8428 -6.74163e-06 51.1781C-6.74163e-06 35.8911 1.32546 19.4964 3.97637 1.55087C3.97637 1.10776 4.1973 0.443087 4.1973 -1.35224e-05C7.51094 3.98789 11.2664 7.31115 15.2428 9.96975C15.2428 14.6223 15.2428 19.9395 15.2428 26.1429C15.4637 33.011 15.9055 40.5437 16.3473 48.741C16.7891 55.6091 17.6728 62.6987 18.5564 69.7883C20.5446 82.8598 22.9746 96.3744 26.0673 109.224Z" transform="translate(351.402 389.707)" stroke="#F8F8F8" stroke-miterlimit="10"/>
<path d="M-1.34833e-05 164.39C3.53454 156.415 15.9055 126.505 19.2192 81.752C20.3237 66.4651 20.5446 49.6273 18.7773 31.2386V31.017C18.3355 26.586 17.6728 18.8318 16.7891 13.5146C21.2073 9.96978 25.1837 5.53876 28.4973 0C28.7182 1.3293 29.1601 4.43101 29.6019 5.53876C30.4855 8.64046 32.2528 14.6223 34.0201 22.8197C36.4501 34.5619 38.8801 50.9566 39.5428 70.453C40.4264 97.2606 37.5546 130.05 25.6255 164.833C25.6255 165.055 25.6255 165.277 25.4046 165.277" transform="translate(400.444 384.39)" stroke="#F8F8F8" stroke-miterlimit="10"/>
<path d="M115.094 0.664658C115.978 0.664658 116.64 0.443094 117.524 0.443094C121.058 -6.76778e-06 124.814 0 128.569 0C133.429 0 138.51 0.221537 143.149 0.886188C207.213 8.19735 256.918 62.6988 256.918 128.942C256.918 200.06 199.481 257.663 128.569 257.663C57.6574 257.663 -6.74163e-06 200.06 -6.74163e-06 128.942C-6.74163e-06 79.7581 27.3928 36.9989 67.8193 15.287C69.8074 14.1792 71.7956 13.293 73.5629 12.4068C73.5629 12.4068 73.7838 12.4068 73.7838 12.1853C73.7838 12.1853 74.0047 12.1853 74.0047 11.9637C79.5275 9.3051 85.2711 7.0896 91.2357 5.31719C91.2357 5.53874 91.4566 5.76032 91.4566 5.76032" transform="translate(282.92 548.337)" stroke="#F8F8F8" stroke-miterlimit="10"/>
<path d="M-1.34833e-05 17.5025C72.6793 106.344 196.831 103.464 254.93 0" transform="translate(283.362 662.435)" stroke="#F8F8F8" stroke-miterlimit="10"/>
<path d="M75.3302 6.76118e-06C91.0148 1.55086 100.293 5.76029 100.293 5.76029L79.7484 62.9203L26.5092 66.9082L0 14.1792" transform="translate(350.961 549.002)" stroke="#F8F8F8" stroke-miterlimit="10"/>
<path d="M1.34833e-05 7.08961C1.34833e-05 7.08961 0.220903 7.0896 0.220903 6.86805C0.220903 6.86805 0.441826 6.86807 0.441826 6.64652C6.40639 4.20946 12.15 1.55086 17.6728 6.76118e-06" transform="translate(356.705 553.433)" stroke="#F8F8F8" stroke-miterlimit="10"/>
<path d="M35.5664 -6.76118e-06C44.8446 0.664644 54.1228 1.10775 63.1801 2.88015C74.6674 5.09566 86.1548 8.64047 96.7584 13.5146C106.699 18.1671 115.978 23.9274 124.151 31.4601C126.36 33.4541 128.569 35.8911 129.011 38.7713C129.453 41.873 127.686 44.7532 125.477 46.7471C121.5 50.0704 115.978 51.6212 110.897 53.1721C104.269 55.166 95.2121 56.7169 88.3639 57.16C73.342 58.4893 58.3201 59.8186 43.2983 58.7108C35.5664 58.2677 27.8346 57.16 20.3237 54.9445C16.5682 53.8367 12.8127 52.5074 9.27819 50.9566C6.18546 49.6273 3.09276 47.8549 2.69665e-05 46.5256C2.69665e-05 46.5256 16.7891 47.6333 28.0555 42.7592C73.1211 49.8488 103.607 39.879 108.688 36.5558C108.688 36.5558 94.7703 16.1732 45.2865 13.9577" transform="translate(614.285 251.903)" stroke="#F8F8F8" stroke-miterlimit="10"/>
<path d="M-1.34833e-05 32.0614C-1.34833e-05 40.0372 9.94092 45.3545 16.5682 40.7019L32.9156 9.0202C29.1601 1.04439 23.4164 -0.949569 16.3473 0.379732L-1.34833e-05 32.0614Z" transform="translate(116.575 270.798)" stroke="#F8F8F8" stroke-miterlimit="10"/>
<path d="M1.34833e-05 61.8125C5.08094 62.0341 10.1618 61.3694 15.2428 59.3755C23.4164 56.2738 30.0437 50.2919 34.241 43.2023C39.7638 33.8972 41.0892 22.3766 37.1128 11.5206C37.1128 11.2991 36.8919 11.0775 36.8919 11.0775C35.3456 6.86806 32.9155 3.1017 30.2646 0" transform="translate(101.554 312.386)" stroke="#F8F8F8" stroke-miterlimit="10"/>
<path d="M15.262 67.6066C9.51836 63.3971 5.10016 57.6368 2.44924 50.7687C-4.84078 31.4939 4.65834 9.78191 24.0984 2.47075C33.1557 -1.07405 42.6548 -0.630936 51.0494 2.69232" transform="translate(66.189 299.281)" stroke="#F8F8F8" stroke-miterlimit="10"/>
<path d="M27.1719 11.0775C18.1146 10.6344 8.61549 7.08962 6.74163e-06 6.76118e-06" transform="translate(67.7544 345.175)" stroke="#F8F8F8" stroke-miterlimit="10"/>
<path d="M1.34833e-05 27.4722C1.34833e-05 27.4722 0.220923 27.4722 1.34833e-05 27.4722C0.220923 27.2507 0.220923 27.2507 1.34833e-05 27.4722ZM1.34833e-05 27.4722C0.220923 27.2507 0.220903 27.2507 0.220903 27.2507C2.20909 26.1429 4.19729 24.8136 5.96457 23.2628C12.8128 17.724 18.1146 9.96976 21.4282 0.443094C21.4282 0.221544 21.6491 0 21.6491 0" transform="translate(117.017 323.464)" stroke="#F8F8F8" stroke-miterlimit="10"/>
<path d="M-3.37081e-06 40.3221C0.220906 39.879 0.662729 39.6575 0.883639 39.2144C15.9055 23.0412 34.0201 8.64046 53.2392 -6.76118e-06C49.7047 6.42495 49.042 13.0715 49.2629 20.6042C37.7756 30.5739 25.1837 40.3222 13.2546 52.2859C13.0337 52.5074 12.8128 52.729 12.5919 52.9505" transform="translate(16.5037 318.368)" stroke="#F8F8F8" stroke-miterlimit="10"/>
<path d="M0 61.591C0.22091 61.591 0.220903 61.3694 0.441813 61.3694C1.98818 60.4832 3.53456 59.597 5.08093 58.7108C21.2073 49.1842 36.4501 39.2144 50.1465 26.586C53.0183 23.7059 55.8902 20.8257 58.762 17.724C61.4129 14.8439 63.8429 11.9637 66.2729 8.862C68.482 5.98184 70.6911 3.1017 72.6793 0.22155L72.9002 -1.35224e-05C72.9002 -1.35224e-05 72.6793 0 72.6793 0.22155" transform="translate(51.6279 347.612)" stroke="#F8F8F8" stroke-miterlimit="10"/>
<path d="M74.0047 6.76118e-06C68.0402 2.43706 59.6456 5.31721 51.6929 5.53876C47.2747 9.30512 42.6356 12.8499 38.2174 16.1732C25.1837 25.9214 12.3709 34.1188 0.441823 40.9868C0.441823 40.9868 0.220903 41.2083 -6.74163e-06 41.2083" transform="translate(43.2334 350.714)" stroke="#F8F8F8" stroke-miterlimit="10"/>
<path d="M128.349 257.441C199.233 257.441 256.697 199.811 256.697 128.721C256.697 57.6302 199.233 -1.35224e-05 128.349 -1.35224e-05C57.4636 -1.35224e-05 0 57.6302 0 128.721C0 199.811 57.4636 257.441 128.349 257.441Z" transform="translate(-196.896 326.565)" stroke="#F8F8F8" stroke-miterlimit="10"/>
<path d="M-2.63345e-08 6.76118e-06C58.5411 71.5608 150.66 83.5245 214.503 31.4601" transform="translate(-196.454 458.166)" stroke="#F8F8F8" stroke-miterlimit="10"/>
<path d="M145.8 179.234C145.579 179.234 145.579 179.234 145.8 179.234C144.696 181.45 144.033 182.336 144.033 182.336C133.871 179.899 115.094 158.187 115.094 158.187C138.069 120.745 129.011 89.7279 129.011 89.7279C107.362 69.5668 94.7703 48.7411 94.7703 48.7411C62.0756 23.2628 26.2883 31.0171 26.2883 31.0171C18.1146 16.8378 1.10455 1.10776 -3.37081e-06 6.76118e-06" transform="translate(-97.2651 329.667)" stroke="#F8F8F8" stroke-miterlimit="10"/>
<path d="M2.69665e-05 191.641C2.69665e-05 191.641 34.6828 113.212 13.9173 -1.35224e-05" transform="translate(401.107 613.473)" stroke="#F8F8F8" stroke-miterlimit="10"/>
<path d="M44.8446 249.244C98.7466 219.556 128.349 34.3403 0 6.76118e-06" transform="translate(794.989 186.767)" stroke="#F8F8F8" stroke-miterlimit="10"/>
</g>
<defs>
<filter id="filter0_d" x="-201.396" y="0.656433" width="1129.9" height="813.844" filterUnits="userSpaceOnUse" color-interpolation-filters="sRGB">
<feFlood flood-opacity="0" result="BackgroundImageFix"/>
<feColorMatrix in="SourceAlpha" type="matrix" values="0 0 0 0 0 0 0 0 0 0 0 0 0 0 0 0 0 0 255 0"/>
<feOffset dy="4"/>
<feGaussianBlur stdDeviation="2"/>
<feColorMatrix type="matrix" values="0 0 0 0 0 0 0 0 0 0 0 0 0 0 0 0 0 0 0.25 0"/>
<feBlend mode="normal" in2="BackgroundImageFix" result="effect1_dropShadow"/>
<feBlend mode="normal" in="SourceGraphic" in2="effect1_dropShadow" result="shape"/>
</filter>
</defs>
</svg>
