<svg id="Calque_1" data-name="Calque 1" xmlns="http://www.w3.org/2000/svg" xmlns:xlink="http://www.w3.org/1999/xlink" viewBox="0 0 556 341"><defs><style>.cls-1{fill:url(#Dégradé_sans_nom_38);}.cls-2{fill:#fff;}.cls-3{fill:#333;}</style><linearGradient id="Dégradé_sans_nom_38" x1="215.58" y1="170.49" x2="555.58" y2="170.49" gradientUnits="userSpaceOnUse"><stop offset="0" stop-color="#ff5f6d"/><stop offset="0.21" stop-color="#ff7a6e"/><stop offset="0.56" stop-color="#ffa270"/><stop offset="0.83" stop-color="#ffba71"/><stop offset="1" stop-color="#ffc371"/></linearGradient></defs><title>full-color-black</title><path class="cls-1" d="M530.33,243.85c-.7-1.14-1.41-2.27-2.13-3.42l-.54-.85c-.55-.87-1.09-1.73-1.66-2.6-.75-1.15-1.5-2.32-2.27-3.49s-1.54-2.34-2.34-3.51-1.58-2.35-2.38-3.53l-2.5-3.6-2.2-3.13-.35-.49q-1.28-1.8-2.6-3.63l-2.68-3.66c-1.45-2-2.94-4-4.44-5.95-.37-.47-.72-1-1.09-1.44-.95-1.24-1.9-2.49-2.87-3.73-1.8-2.35-3.65-4.69-5.53-7.06-.37-.47-.74-.95-1.13-1.42q-8.64-10.82-18.18-21.85t-20.1-22.41c.16-.19.32-.37.47-.56-.15.19-.31.37-.48.55-.27-.3-.55-.6-.83-.89-1.15-1.24-2.3-2.47-3.48-3.72Q441.81,133.7,432.1,124c-1-1-2-2-3-3s-2-2-3-3q-6-5.91-12.06-11.62c-.88-.85-1.78-1.69-2.66-2.52L408,100.74q4-3.42,7.94-6.7,4.13-3.45,8.23-6.74,3.58-2.88,7.11-5.65l1.92-1.5,1.9-1.47q5-3.86,9.91-7.46c1.27-.94,2.52-1.85,3.77-2.75l1.87-1.34q5.73-4.11,11.29-7.84c.53-.36,1.05-.7,1.58-1,.75-.51,1.51-1,2.25-1.49,1.05-.69,2.08-1.36,3.12-2,34.95-22.43,52.2-25.14,56.71-24.27.87,4.51-1.84,21.76-24.26,56.72l-2,3.11q-5.13,7.83-11,16l-2.06,2.85-.32.43c-.79,1.08-1.59,2.17-2.4,3.26-2.59,3.48-5.25,7-8,10.55l-1.07,1.37h0q10.51,11.22,20.32,22.43c3.27-4.11,6.44-8.2,9.49-12.23,1.5-2,3-4,4.44-6l2.68-3.66q2.64-3.66,5.15-7.25l2.5-3.6c.8-1.18,1.6-2.35,2.38-3.53s1.57-2.35,2.34-3.51h0c.77-1.16,1.52-2.33,2.26-3.48.57-.87,1.11-1.73,1.66-2.6l.54-.85c.72-1.15,1.43-2.28,2.13-3.42,26.78-43.55,32.19-72.32,16.56-87.95a28.62,28.62,0,0,0-13-7.47c-1-.26-2-.49-3.12-.67A39.51,39.51,0,0,0,524,.49a63.12,63.12,0,0,0-14.9,2c-1.8.45-3.65,1-5.55,1.55a133.9,133.9,0,0,0-14.1,5.35c-1.42.63-2.87,1.29-4.33,2a272.92,272.92,0,0,0-26.22,14.39c-1.41.86-2.84,1.76-4.27,2.66-.86.55-1.73,1.1-2.59,1.67s-2,1.29-3,2-2.06,1.35-3.09,2c-.72.47-1.43,1-2.15,1.45-1.49,1-3,2-4.51,3.09l-2.19,1.52q-11.44,8-23.41,17.36L411.76,59l-2.91,2.3-1.42,1.14q-10.8,8.62-21.85,18.17t-22.41,20.11c-1.12,1-2.25,2.08-3.37,3.14q-1.33,1.25-2.67,2.52-6,5.71-12.05,11.62c-1,1-2,2-3,3s-2,2-3,3q-9.7,9.71-18.92,19.49l-3.49,3.72-.83.9-.13-.15c-3.36-3.93-6.65-7.85-9.82-11.73-1.08-1.31-2.15-2.63-3.19-3.93s-1.92-2.39-2.87-3.57-2.07-2.62-3.08-3.91l-.5-.64c-.92-1.18-1.85-2.37-2.74-3.55s-2-2.57-2.93-3.84c-1.39-1.83-2.74-3.65-4.08-5.46-5.29-7.18-10.18-14.21-14.64-21-.69-1-1.35-2.08-2-3.11-22.42-35-25.14-52.22-24.26-56.72,4.5-.87,21.75,1.84,56.71,24.27,1,.66,2.07,1.33,3.11,2,.75.48,1.51,1,2.26,1.49.53.34,1.05.69,1.57,1,8.66,5.81,17.64,12.31,26.84,19.39,1.17.9,2.33,1.8,3.5,2.73l.32.24q11.22-10.53,22.44-20.33L359.41,59l-2-1.53c-8-6.21-15.79-12-23.42-17.36l-2.18-1.52q-5-3.44-9.75-6.59c-1-.66-2-1.32-3-2-.86-.57-1.73-1.12-2.59-1.67-1.44-.9-2.86-1.8-4.27-2.66C268.68-1,239.91-6.45,224.28,9.18a28.46,28.46,0,0,0-7.47,13c-.27,1-.5,2-.68,3.11a39.51,39.51,0,0,0-.55,6.75,63.19,63.19,0,0,0,2,14.91q.68,2.69,1.56,5.54c.79,2.53,1.71,5.16,2.76,7.87l.61,1.53c.42,1,.84,2.07,1.29,3.11.22.53.46,1.06.69,1.59.93,2.13,2,4.32,3,6.55.72,1.48,1.47,3,2.27,4.53q4.72,9.18,11.05,19.47c.7,1.14,1.4,2.27,2.13,3.42l.54.85c.55.87,1.09,1.73,1.66,2.6.75,1.15,1.5,2.32,2.27,3.48.09.15.19.29.28.43.67,1,1.36,2.06,2.06,3.09q2.37,3.54,4.88,7.13l2.55,3.61q2.58,3.62,5.28,7.3c.89,1.2,1.8,2.41,2.7,3.64q2.61,3.47,5.3,6.95c.59.78,1.2,1.55,1.81,2.34,1.35,1.74,2.73,3.5,4.13,5.25q9.13,11.5,19.3,23.27,9.66,11.16,20.11,22.41l.83.9,3.49,3.72q6.35,6.73,13,13.48c1,1,2,2,3,3s2,2,3,3,2,2,3,3,2,2,3,3q6,5.89,12.05,11.62,1.33,1.28,2.67,2.52c1.12,1.06,2.25,2.1,3.37,3.14h0q-4,3.41-7.94,6.69-4.38,3.65-8.71,7.12l-3.07,2.45q-1.79,1.42-3.57,2.81c-.88.7-1.77,1.39-2.64,2.06s-1.71,1.33-2.56,2c-1.12.87-2.25,1.71-3.35,2.55L328,268.39c-1.11.82-2.21,1.64-3.32,2.43l-.43.32c-.95.7-1.9,1.39-2.85,2.06q-6.18,4.47-12.19,8.49l-1.57,1c-.75.51-1.51,1-2.26,1.49-1,.69-2.08,1.36-3.11,2-35,22.43-52.21,25.14-56.71,24.27-.88-4.51,1.84-21.76,24.26-56.72.67-1,1.33-2.07,2-3.11,4.46-6.8,9.35-13.82,14.64-21,1.34-1.81,2.69-3.63,4.08-5.46,1-1.27,1.93-2.56,2.93-3.84s2.15-2.79,3.24-4.19h0q-10.5-11.22-20.31-22.44h0l-.44.57q-2.6,3.26-5.1,6.5c-1,1.24-1.92,2.49-2.86,3.73L266.93,206l-1.75,2.31c-1.73,2.31-3.41,4.61-5.07,6.89l-.3.41q-3,4.11-5.78,8.15c-.61.9-1.23,1.78-1.85,2.68l0,0c-1.61,2.36-3.19,4.71-4.72,7q-3.47,5.25-6.6,10.36t-5.93,10c-.91,1.63-1.81,3.23-2.66,4.81s-1.67,3.13-2.47,4.66-1.54,3.05-2.27,4.53q-2.16,4.45-3.95,8.65c-.58,1.41-1.14,2.78-1.67,4.13-9.15,23.58-8.33,40.46,2.39,51.17,5.79,5.79,13.37,8.69,22.85,8.69,16.11,0,37.67-8.4,65.1-25.26,1.13-.69,2.27-1.4,3.41-2.13,1.73-1.08,3.46-2.19,5.21-3.33,1.1-.72,2.2-1.43,3.31-2.18l1.94-1.29,3.53-2.39c2.64-1.82,5.32-3.69,8-5.62.94-.67,1.89-1.34,2.83-2,1.21-.87,2.44-1.77,3.66-2.67,2-1.46,4-2.94,5.95-4.44l1.44-1.1c1.25-.94,2.49-1.9,3.73-2.86l3.75-2.92c1.1-.86,2.2-1.74,3.32-2.61.14-.12.29-.25.45-.37q3.78-3,7.58-6.13c1.09-.88,2.17-1.78,3.26-2.67l2.38-2c1.94-1.62,3.89-3.28,5.84-4.94l3.75-3.21q11.16-9.66,22.41-20.11h0l.89-.83c1.25-1.15,2.48-2.31,3.72-3.48q6.75-6.36,13.48-13c1-1,2-2,3-3s2-2,3-3,2-2,3-3,2-2,3-3q6.61-6.74,13-13.48c1.18-1.25,2.33-2.48,3.48-3.72.28-.29.56-.59.83-.89.17.18.33.36.48.55s.3.36.46.55q7.53,8.81,14.43,17.47c.79,1,1.59,2,2.37,3l.26.34,1.1,1.38h0l1.07,1.37c2.77,3.55,5.43,7.07,8,10.55.81,1.09,1.61,2.18,2.4,3.26l.32.43,2.06,2.85q5.88,8.19,11,16l2,3.11c22.42,35,25.14,52.21,24.26,56.72-4.51.86-21.76-1.84-56.71-24.27-1-.66-2.07-1.33-3.12-2-.74-.48-1.5-1-2.25-1.49l-1.58-1c-8.21-5.52-16.74-11.66-25.45-18.34-.86-.64-1.7-1.3-2.56-2s-1.54-1.19-2.33-1.81l-.32-.24q-11.22,10.53-22.43,20.33,3.82,3,7.58,5.94c1.08.82,2.14,1.64,3.22,2.45.47.37,1,.74,1.44,1.1q2.31,1.75,4.6,3.45c1.69,1.24,3.35,2.46,5,3.66.94.69,1.89,1.36,2.82,2q4.05,2.9,8,5.62c1.18.81,2.36,1.6,3.53,2.39l1.94,1.29c1.11.75,2.21,1.46,3.31,2.18,1.75,1.14,3.48,2.25,5.21,3.33,1.14.73,2.28,1.44,3.41,2.13,43.55,26.78,72.32,32.19,87.95,16.57,5.79-5.79,8.69-13.38,8.69-22.85C555.58,292.83,547.19,271.27,530.33,243.85ZM388.22,220.07A49.74,49.74,0,1,1,435.3,173,49.76,49.76,0,0,1,388.22,220.07Z"/><circle class="cls-2" cx="385.63" cy="170.39" r="49.74"/><circle class="cls-3" cx="385.63" cy="170.39" r="24.87"/><circle class="cls-2" cx="377.17" cy="161.94" r="7.46"/><path class="cls-3" d="M99.76,210.71l5.92,7.89H75.88l-1.58-2c-5.92-7.9-15.79-21.12-21.31-28.42-6.51,8.68-19.14,25.65-21.12,28.42l-1.58,2H.5l5.72-7.89c2-2.57,24.67-33,32-42.63C32.07,160,15.3,137.5,10,130l-5.72-7.89h29.6L53,148l19.14-25.85h29.6L96.2,130c-5.32,7.3-22.1,29.8-28.21,38.08C74.3,176.37,92.06,200.25,99.76,210.71Z"/><path class="cls-3" d="M212.11,167.72l-71.74,16.55a24.67,24.67,0,0,0,11,9.35,25.28,25.28,0,0,0,16.83,1.94,25,25,0,0,0,16-11.68l2.21-4.08,22,9.92-2.6,4.48a47.87,47.87,0,0,1-11.63,14.41h-.2a48.2,48.2,0,0,1-20.24,10.12,57.07,57.07,0,0,1-11.42,1.36,49.73,49.73,0,0,1-48.3-38.54A48.85,48.85,0,0,1,150.79,122a43.33,43.33,0,0,1,11.42-1.37,49,49,0,0,1,26.45,7.6C210.71,141.83,212.11,167.72,212.11,167.72Zm-57.92-22c-11,3.7-16,13.62-17.43,21L183.45,156C180.45,150,167.62,141.05,154.19,145.73Z"/><path class="cls-3" d="M321.43,162.86V218.6H296.06V172.66c0-12.11-1.15-19.8-7.11-23.84a21.88,21.88,0,0,0-20.18.2c-5.58,3.07-12.5,9-12.5,23.26V218.6H231.09V124.8h25.18v11a32.57,32.57,0,0,1,26.53-13.64C314.51,122.11,321.43,147.48,321.43,162.86Z"/><path class="cls-3" d="M527.61,188.5c0,10.72-4.51,19.37-13.35,24.82-6.77,4.33-16.17,6.77-26.33,6.77-25.76,0-36.29-12-36.29-12V180.23s13.35,17.48,36.67,17.48c5.26,0,17.3-2.25,17.3-8.08,0-6.21-16.17-8.46-19-9-3.2-.56-15.8-2.63-23.7-7.14-8.84-5.08-13.54-13-13.54-23.89a24.47,24.47,0,0,1,3.39-12.78,30.8,30.8,0,0,1,9.4-9.78c6.77-4.14,15.42-6.4,24.63-6.4,24.64,0,33.67,10.91,33.67,10.91l-.57,26.7s-10.34-14.85-34.41-14.85c-3.57,0-13.73.94-13.73,6.39,0,8.09,18.05,9.59,22,10.34,7.15,1.32,14.67,2.82,20.88,6.4C523.29,171.39,527.61,178.91,527.61,188.5Z"/></svg>