<svg width="508" height="364" viewBox="0 0 508 364" fill="none" xmlns="http://www.w3.org/2000/svg">
<path d="M58.0657 116.145C90.1345 116.145 116.131 90.145 116.131 58.0724C116.131 25.9999 90.1345 -3.05031e-06 58.0657 -3.05031e-06C25.9969 -3.05031e-06 -6.09991e-06 25.9999 -6.09991e-06 58.0724C-6.09991e-06 90.145 25.9969 116.145 58.0657 116.145Z" transform="translate(391.869 83.6299)" fill="url(#paint0_radial)"/>
<path d="M0 7.89629C32.8806 47.9774 89.0474 46.678 115.332 -3.05032e-06" transform="translate(391.969 135.108)" stroke="black" stroke-miterlimit="10"/>
<g filter="url(#filter0_d)">
<path d="M59.7766 48.9768C63.0747 40.081 61.8754 30.8854 57.5779 23.6888C56.4785 16.1923 66.5726 2.39886 66.5726 2.39886C60.2763 -1.66814e-06 49.1828 -3.05031e-06 49.1828 -3.05031e-06C35.0911 3.19848 24.8971 13.1937 22.7984 15.3927C17.6014 18.4912 13.1041 23.289 10.3057 29.586C9.90598 30.4855 9.50621 31.3851 9.20638 32.2847L2.2105 36.1828C-3.3862 48.7769 3.40981 67.8678 3.40981 67.8678C3.01004 63.27 8.60673 54.874 9.60614 53.7745C12.0047 59.6717 16.4022 64.4694 22.3986 67.1682C24.4974 68.0677 26.5961 68.6674 28.7949 69.0673C41.5873 82.0611 62.1752 85.5594 62.1752 85.5594L81.2639 71.2662C65.6731 63.0701 59.7766 48.9768 59.7766 48.9768Z" transform="translate(391.258 91.1255)" fill="url(#paint1_linear)"/>
<path d="M59.7766 48.9768C63.0747 40.081 61.8754 30.8854 57.5779 23.6888C56.4785 16.1923 66.5726 2.39886 66.5726 2.39886C60.2763 -1.66814e-06 49.1828 -3.05031e-06 49.1828 -3.05031e-06C35.0911 3.19848 24.8971 13.1937 22.7984 15.3927C17.6014 18.4912 13.1041 23.289 10.3057 29.586C9.90598 30.4855 9.50621 31.3851 9.20638 32.2847L2.2105 36.1828C-3.3862 48.7769 3.40981 67.8678 3.40981 67.8678C3.01004 63.27 8.60673 54.874 9.60614 53.7745C12.0047 59.6717 16.4022 64.4694 22.3986 67.1682C24.4974 68.0677 26.5961 68.6674 28.7949 69.0673C41.5873 82.0611 62.1752 85.5594 62.1752 85.5594L81.2639 71.2662C65.6731 63.0701 59.7766 48.9768 59.7766 48.9768Z" transform="translate(391.258 91.1255)" stroke="black" stroke-miterlimit="10"/>
</g>
<path d="M16.89 33.784C26.2181 33.784 33.78 26.2212 33.78 16.892C33.78 7.56281 26.2181 0 16.89 0C7.56192 0 0 7.56281 0 16.892C0 26.2212 7.56192 33.784 16.89 33.784Z" transform="translate(355.963 109.024)" fill="url(#paint2_radial)"/>
<path d="M-1.21998e-05 2.29892C9.59433 13.8935 25.8847 13.5936 33.4802 0" transform="translate(355.79 123.912)" stroke="black" stroke-miterlimit="10"/>
<path d="M18.0894 8.39602C19.9882 11.4945 17.3897 15.7925 13.6919 15.5926L6.09992e-06 7.19659L4.39741 3.05031e-06L18.0894 8.39602Z" transform="translate(347.096 110.72)" fill="url(#paint3_linear)" stroke="black" stroke-miterlimit="10"/>
<path d="M8.29512 39.7812L0 21.5898L46.7725 -6.10063e-06C53.7683 3.19848 57.1663 9.49552 55.0676 18.1914L8.29512 39.7812Z" transform="translate(177.097 155.296)" fill="url(#paint4_linear)"/>
<path d="M14.0916 28.1867C21.8743 28.1867 28.1833 21.8769 28.1833 14.0933C28.1833 6.30981 21.8743 0 14.0916 0C6.30904 0 1.21998e-05 6.30981 1.21998e-05 14.0933C1.21998e-05 21.8769 6.30904 28.1867 14.0916 28.1867Z" transform="translate(331.206 58.3467)" fill="url(#paint5_linear)"/>
<path d="M16.2625 0.172028C23.958 1.37146 29.1549 8.56805 27.9556 16.2644C26.7563 23.9608 19.5606 29.1583 11.8651 27.9589C4.16966 26.7594 -1.02729 19.5628 0.172002 11.8665C1.47124 4.17013 8.667 -1.0274 16.2625 0.172028Z" transform="translate(221.798)" fill="url(#paint6_linear)"/>
<path d="M1.16333 19.4908C-0.535664 11.4946 -1.33518 3.99812 5.76061 0L67.7238 14.6931L63.1266 34.1839L1.16333 19.4908Z" transform="translate(240.594 4.46826)" fill="url(#paint7_linear)"/>
<path d="M8.29512 39.7812L0 21.5898L46.7725 -1.90645e-07C53.7683 3.19849 57.1663 9.49551 55.0676 18.1914L8.29512 39.7812Z" transform="translate(177.097 7.66931)" fill="url(#paint8_linear)"/>
<path d="M87.4485 174.917C135.745 174.917 174.897 135.761 174.897 87.4586C174.897 39.1565 135.745 0 87.4485 0C39.152 0 -3.04996e-06 39.1565 -3.04996e-06 87.4586C-3.04996e-06 135.761 39.152 174.917 87.4485 174.917Z" transform="translate(162.805 25.457)" fill="url(#paint9_linear)"/>
<path d="M13.9918 27.9868C21.7192 27.9868 27.9835 21.7217 27.9835 13.9934C27.9835 6.26505 21.7192 0 13.9918 0C6.26432 0 3.04996e-06 6.26505 3.04996e-06 13.9934C3.04996e-06 21.7217 6.26432 27.9868 13.9918 27.9868Z" transform="translate(142.417 63.7424)" fill="url(#paint10_linear)"/>
<path d="M16.3788 28.2866C10.1824 30.7854 -1.11089 24.1885 0.0884001 16.792L12.3811 -7.62578e-07L28.6715 11.4946L16.3788 28.2866Z" transform="translate(154.021 46.7468)" fill="url(#paint11_linear)"/>
<path d="M13.9918 27.9868C21.7192 27.9868 27.9835 21.7217 27.9835 13.9934C27.9835 6.26505 21.7192 0 13.9918 0C6.26432 0 -3.04996e-06 6.26505 -3.04996e-06 13.9934C-3.04996e-06 21.7217 6.26432 27.9868 13.9918 27.9868Z" transform="translate(166.802 29.1572)" fill="url(#paint12_linear)"/>
<path d="M13.9918 27.9868C21.7192 27.9868 27.9835 21.7217 27.9835 13.9934C27.9835 6.26505 21.7192 -3.05031e-06 13.9918 -3.05031e-06C6.26433 -3.05031e-06 6.09992e-06 6.26505 6.09992e-06 13.9934C6.09992e-06 21.7217 6.26433 27.9868 13.9918 27.9868Z" transform="translate(331.604 121.614)" fill="url(#paint13_linear)"/>
<path d="M16.2903 43.5263L0 32.9313L21.4873 1.24635C27.8835 -1.85218 37.3779 0.746582 38.877 9.94222L16.2903 43.5263Z" transform="translate(311.017 138.957)" fill="url(#paint14_linear)"/>
<path d="M33.4802 27.2871C33.78 34.5836 23.3861 40.081 18.8888 37.7821L-6.0999e-06 13.0938L13.6919 -3.81289e-07L33.4802 27.2871Z" transform="translate(312.915 31.3599)" fill="url(#paint15_linear)"/>
<path d="M13.9918 27.9868C21.7192 27.9868 27.9835 21.7217 27.9835 13.9934C27.9835 6.26505 21.7192 0 13.9918 0C6.26433 0 1.21998e-05 6.26505 1.21998e-05 13.9934C1.21998e-05 21.7217 6.26433 27.9868 13.9918 27.9868Z" transform="translate(300.722 18.4608)" fill="url(#paint16_linear)"/>
<path d="M9.69428 40.9806L-6.09991e-06 23.4889L42.7747 7.62579e-07C49.6707 0.199906 55.867 8.79584 52.469 17.4917L9.69428 40.9806Z" transform="translate(259.947 28.1589)" fill="url(#paint17_linear)"/>
<path d="M13.9918 27.9868C21.7192 27.9868 27.9835 21.7217 27.9835 13.9934C27.9835 6.26505 21.7192 0 13.9918 0C6.26432 0 0 6.26505 0 13.9934C0 21.7217 6.26432 27.9868 13.9918 27.9868Z" transform="translate(242.058 49.3457)" fill="url(#paint18_linear)"/>
<path d="M26.0846 26.4838C21.3874 31.8812 14.7913 33.3805 7.19575 32.9807L6.09991e-06 8.7922C1.1993 0.696041 12.7924 -2.60239 18.8888 2.29528L26.0846 26.4838Z" transform="translate(248.154 62.6443)" fill="url(#paint19_linear)"/>
<path d="M61.4901 33.884L2.62498 18.2914C-3.6713 10.695 2.32514 0.199905 10.4204 -7.6258e-07L67.9863 14.9929C63.7888 17.5917 63.7888 28.6865 61.4901 33.884Z" transform="translate(182.066 35.7573)" fill="url(#paint20_linear)"/>
<path d="M13.9918 27.9868C21.7192 27.9868 27.9835 21.7217 27.9835 13.9934C27.9835 6.26505 21.7192 -3.05031e-06 13.9918 -3.05031e-06C6.26432 -3.05031e-06 -3.04996e-06 6.26505 -3.04996e-06 13.9934C-3.04996e-06 21.7217 6.26432 27.9868 13.9918 27.9868Z" transform="translate(167.801 175.089)" fill="url(#paint21_linear)"/>
<path d="M13.9918 27.9868C21.7192 27.9868 27.9835 21.7217 27.9835 13.9934C27.9835 6.26505 21.7192 0 13.9918 0C6.26433 0 1.21998e-05 6.26505 1.21998e-05 13.9934C1.21998e-05 21.7217 6.26433 27.9868 13.9918 27.9868Z" transform="translate(300.722 166.391)" fill="url(#paint22_linear)"/>
<path d="M9.69429 41.9802L-6.09992e-06 24.4884L43.7742 -3.05032e-06C50.6701 0.199903 56.8665 8.79584 53.4685 17.4917L9.69429 41.9802Z" transform="translate(258.947 176.087)" fill="url(#paint23_linear)"/>
<path d="M13.9918 27.9867C21.7192 27.9867 27.9835 21.7217 27.9835 13.9934C27.9835 6.26504 21.7192 -6.10063e-06 13.9918 -6.10063e-06C6.26432 -6.10063e-06 0 6.26504 0 13.9934C0 21.7217 6.26432 27.9867 13.9918 27.9867Z" transform="translate(242.058 197.282)" fill="url(#paint24_linear)"/>
<path d="M61.4901 33.884L2.62498 18.2914C-3.6713 10.695 2.32514 0.199909 10.4204 3.05032e-06L67.9863 14.9929C63.7888 17.5917 63.7888 28.6865 61.4901 33.884Z" transform="translate(182.066 183.686)" fill="url(#paint25_linear)"/>
<g filter="url(#filter1_d)">
<path d="M13.9918 27.9868C21.7192 27.9868 27.9835 21.7217 27.9835 13.9934C27.9835 6.26505 21.7192 0 13.9918 0C6.26433 0 -3.04996e-06 6.26505 -3.04996e-06 13.9934C-3.04996e-06 21.7217 6.26433 27.9868 13.9918 27.9868Z" transform="translate(254.251 87.8292)" fill="url(#paint26_linear)"/>
</g>
<path d="M-3.04997e-06 -3.05031e-06H5.99648C12.5926 -3.05031e-06 17.9894 7.19659 17.9894 15.9924C17.9894 24.7883 12.5926 31.9848 5.99648 31.9848H-3.04997e-06" transform="translate(197.556 114.562) rotate(-8.47526)" fill="url(#paint27_linear)"/>
<path d="M-3.04997e-06 -3.05031e-06H5.99648C12.5926 -3.05031e-06 17.9894 7.19659 17.9894 15.9924C17.9894 24.7883 12.5926 31.9848 5.99648 31.9848H-3.04997e-06" transform="translate(197.556 114.562) rotate(-8.47526)" stroke="black" stroke-miterlimit="10"/>
<path d="M23.9914 15.6967C24.1913 24.4925 18.9944 31.7891 12.3983 31.989C5.80217 32.1889 0.205457 25.0922 0.00557488 16.2964C-0.194307 7.50061 5.00264 0.204087 11.5987 0.00418204C18.1949 -0.195723 23.7916 6.80095 23.9914 15.6967Z" transform="translate(185.701 116.417) rotate(-8.47526)" fill="url(#paint28_linear)" stroke="black" stroke-miterlimit="10"/>
<path d="M8.99472 26.5874C13.9624 26.5874 17.9894 20.6356 17.9894 13.2937C17.9894 5.95178 13.9624 0 8.99472 0C4.02707 0 -3.04997e-06 5.95178 -3.04997e-06 13.2937C-3.04997e-06 20.6356 4.02707 26.5874 8.99472 26.5874Z" transform="translate(189.058 118.56) rotate(-8.47526)" fill="url(#paint29_linear)" stroke="black" stroke-miterlimit="10"/>
<path d="M6.09998e-06 -3.05176e-06H5.59675" transform="translate(205.387 116.93) rotate(-8.47526)" stroke="black" stroke-miterlimit="10"/>
<path d="M6.09998e-06 0H5.59675" transform="translate(208.912 120.248) rotate(-8.47526)" stroke="black" stroke-miterlimit="10"/>
<path d="M6.09998e-06 1.52588e-06H5.59675" transform="translate(210.475 123.957) rotate(-8.47526)" stroke="black" stroke-miterlimit="10"/>
<path d="M6.09998e-06 -3.05176e-06H5.59675" transform="translate(212.023 127.563) rotate(-8.47526)" stroke="black" stroke-miterlimit="10"/>
<path d="M6.09998e-06 -1.52588e-06H5.59675" transform="translate(211.609 131.569) rotate(-8.47526)" stroke="black" stroke-miterlimit="10"/>
<path d="M6.09998e-06 0H5.59675" transform="translate(212.184 135.422) rotate(-8.47526)" stroke="black" stroke-miterlimit="10"/>
<path d="M6.09998e-06 3.05176e-06H5.59675" transform="translate(210.767 139.477) rotate(-8.47526)" stroke="black" stroke-miterlimit="10"/>
<path d="M6.09998e-06 -3.05176e-06H5.59675" transform="translate(207.387 143.917) rotate(-8.47526)" stroke="black" stroke-miterlimit="10"/>
<path d="M17.9894 -3.05032e-06H11.993C5.39684 -3.05032e-06 1.21998e-05 7.1966 1.21998e-05 15.9924C1.21998e-05 24.7883 5.39684 31.9849 11.993 31.9849H17.9894" transform="translate(295.073 100.873) rotate(4.30418)" fill="url(#paint30_linear)"/>
<path d="M17.9894 -3.05032e-06H11.993C5.39684 -3.05032e-06 1.21998e-05 7.1966 1.21998e-05 15.9924C1.21998e-05 24.7883 5.39684 31.9849 11.993 31.9849H17.9894" transform="translate(295.073 100.873) rotate(4.30418)" stroke="black" stroke-miterlimit="10"/>
<path d="M0.00559013 15.6967C-0.194292 24.4926 5.00261 31.7891 11.5987 31.989C18.1948 32.1889 23.7915 25.0923 23.9914 16.2965C24.1913 7.50063 18.9944 0.204087 12.3983 0.00418205C5.80216 -0.195723 0.205472 6.80096 0.00559013 15.6967Z" transform="translate(301.04 101.419) rotate(4.30418)" fill="url(#paint31_linear)" stroke="black" stroke-miterlimit="10"/>
<path d="M8.99472 26.5874C13.9624 26.5874 17.9894 20.6356 17.9894 13.2937C17.9894 5.95179 13.9624 0 8.99472 0C4.02708 0 1.21999e-05 5.95179 1.21999e-05 13.2937C1.21999e-05 20.6356 4.02708 26.5874 8.99472 26.5874Z" transform="translate(303.84 104.236) rotate(4.30418)" fill="url(#paint32_linear)" stroke="black" stroke-miterlimit="10"/>
<path d="M5.5967 -3.05176e-06H1.21999e-05" transform="translate(299.794 104.733) rotate(4.30418)" stroke="black" stroke-miterlimit="10"/>
<path d="M5.5967 0H1.21999e-05" transform="translate(296.519 108.299) rotate(4.30418)" stroke="black" stroke-miterlimit="10"/>
<path d="M5.5967 1.52588e-06H1.21999e-05" transform="translate(295.231 112.107) rotate(4.30418)" stroke="black" stroke-miterlimit="10"/>
<path d="M5.5967 -3.05176e-06H1.21999e-05" transform="translate(293.948 115.819) rotate(4.30418)" stroke="black" stroke-miterlimit="10"/>
<path d="M5.5967 -1.52588e-06H1.21999e-05" transform="translate(294.653 119.781) rotate(4.30418)" stroke="black" stroke-miterlimit="10"/>
<path d="M5.5967 0H1.21999e-05" transform="translate(294.36 123.669) rotate(4.30418)" stroke="black" stroke-miterlimit="10"/>
<path d="M5.5967 3.05176e-06H1.21999e-05" transform="translate(296.068 127.61) rotate(4.30418)" stroke="black" stroke-miterlimit="10"/>
<path d="M5.5967 -3.05176e-06H1.21999e-05" transform="translate(299.762 131.8) rotate(4.30418)" stroke="black" stroke-miterlimit="10"/>
<path d="M6.09991e-06 2.39886L0.299817 6.39697C0.59964 10.7949 7.99527 13.7935 16.7901 13.1938C25.5849 12.594 32.4808 8.39603 32.181 3.99811L31.8812 0" transform="translate(230.164 24.9578)" fill="url(#paint33_linear)"/>
<path d="M6.09991e-06 2.39886L0.299817 6.39697C0.59964 10.7949 7.99527 13.7935 16.7901 13.1938C25.5849 12.594 32.4808 8.39603 32.181 3.99811L31.8812 0" transform="translate(230.164 24.9578)" stroke="black" stroke-miterlimit="10"/>
<path d="M16.2914 16.0439C25.0863 15.5441 32.0821 11.546 31.9822 7.14808C31.8823 2.75017 24.4866 -0.448314 15.6918 0.0514494C6.89699 0.551212 -0.0988774 4.54932 0.00106367 8.94723C0.200946 13.3451 7.39669 16.5436 16.2914 16.0439Z" transform="translate(230.163 18.2097)" fill="url(#paint34_linear)" stroke="black" stroke-miterlimit="10"/>
<path d="M13.6969 12.0651C20.9926 11.5653 26.7892 8.36681 26.5893 5.06837C26.3894 1.76993 20.1931 -0.429026 12.8974 0.0707372C5.60171 0.570501 -0.194861 3.76899 0.00502111 7.06743C0.204903 10.3659 6.40124 12.6648 13.6969 12.0651Z" transform="translate(232.858 20.0955)" fill="url(#paint35_linear)" stroke="black" stroke-miterlimit="10"/>
<path d="M-6.10353e-06 -1.52516e-06L0.299998 3.69825" transform="translate(233.962 32.057)" stroke="black" stroke-miterlimit="10"/>
<path d="M-6.10353e-06 -7.62578e-07L0.299998 3.69825" transform="translate(237.96 33.7527)" stroke="black" stroke-miterlimit="10"/>
<path d="M3.05176e-06 7.62578e-07L0.2 3.69825" transform="translate(241.858 34.1567)" stroke="black" stroke-miterlimit="10"/>
<path d="M-3.05176e-06 -1.52516e-06L0.199994 3.69825" transform="translate(245.756 34.553)" stroke="black" stroke-miterlimit="10"/>
<path d="M0 -1.52516e-06L0.199997 3.69825" transform="translate(249.553 33.5547)" stroke="black" stroke-miterlimit="10"/>
<path d="M3.05177e-06 1.52516e-06L0.300007 3.69825" transform="translate(253.351 33.3564)" stroke="black" stroke-miterlimit="10"/>
<path d="M6.10353e-06 7.62578e-07L0.199988 3.69825" transform="translate(257.148 31.6609)" stroke="black" stroke-miterlimit="10"/>
<path d="M1.22071e-05 -7.62578e-07L0.300001 3.69825" transform="translate(260.747 28.761)" stroke="black" stroke-miterlimit="10"/>
<path d="M32.7806 27.3601C31.7812 34.3568 23.7859 40.354 15.7906 38.3549L-6.0999e-06 11.4676C0.599639 2.77172 9.09461 -2.22592 16.9899 0.972572L32.7806 27.3601Z" transform="translate(152.51 148.728)" fill="url(#paint36_linear)"/>
<path d="M13.9918 27.9867C21.7192 27.9867 27.9835 21.7217 27.9835 13.9934C27.9835 6.26504 21.7192 -6.10063e-06 13.9918 -6.10063e-06C6.26432 -6.10063e-06 -3.04996e-06 6.26504 -3.04996e-06 13.9934C-3.04996e-06 21.7217 6.26432 27.9867 13.9918 27.9867Z" transform="translate(142.318 132.81)" fill="url(#paint37_linear)"/>
<path d="M19.0887 33.4842C11.2933 38.9816 0.599649 34.9835 3.04996e-06 27.587L8.99468 -3.05032e-06L28.0834 5.89722L19.0887 33.4842Z" transform="translate(249.353 171.088)" fill="url(#paint38_linear)"/>
<path d="M12.9924 25.9877C20.1678 25.9877 25.9847 20.1702 25.9847 12.9939C25.9847 5.81754 20.1678 -6.10063e-06 12.9924 -6.10063e-06C5.81688 -6.10063e-06 -3.04996e-06 5.81754 -3.04996e-06 12.9939C-3.04996e-06 20.1702 5.81688 25.9877 12.9924 25.9877Z" transform="translate(255.249 156.802)" fill="url(#paint39_linear)"/>
<path d="M19.9882 53.7246C14.5914 59.222 4.5973 59.222 6.09992e-06 53.7246V3.74823C3.59789 -1.24941 16.5902 -1.24941 19.9882 3.74823V53.7246Z" transform="translate(258.648 107.071)" fill="url(#paint40_linear)"/>
<path d="M19.8883 47.0006C15.1911 52.6979 4.5973 52.7978 1.21998e-05 47.9001V3.92096C3.59789 -0.476964 13.9918 -2.07621 19.9882 3.92096L19.8883 47.0006Z" transform="translate(335.203 78.5155)" fill="url(#paint41_linear)"/>
<path d="M9.59432 3.89815C9.49438 1.79915 7.39563 -3.05031e-06 4.79717 -3.05031e-06C2.1987 -3.05031e-06 0.199894 1.69919 1.21998e-05 3.89815V35.1833C0.0999532 37.2823 2.1987 39.0815 4.79717 39.0815C7.39563 39.0815 9.39444 37.3823 9.59432 35.1833V3.89815Z" transform="translate(261.246 117.114)" fill="#333333" stroke="black" stroke-width="2" stroke-miterlimit="10"/>
<path d="M19.1887 52.6751C13.9917 57.9726 4.3974 57.9726 0 52.6751V3.5983C3.49793 -1.19943 15.9906 -1.19943 19.1887 3.5983V52.6751Z" transform="translate(146.114 84.2322)" fill="url(#paint42_linear)"/>
<path d="M9.19455 3.69824C9.09461 1.59924 7.09581 0 4.59728 0C2.09876 0 0.0999408 1.59924 0 3.69824V33.784C0.0999408 35.883 2.09876 37.4822 4.59728 37.4822C7.09581 37.4822 9.09461 35.883 9.19455 33.784V3.69824Z" transform="translate(148.612 94.9286)" fill="#333333" stroke="black" stroke-width="2" stroke-miterlimit="10"/>
<path d="M9.09461 33.0203L0.699597 33.3202L0 2.03504C1.09935 -0.263867 5.8965 -1.0635 7.99526 2.03503L9.09461 33.0203Z" transform="translate(261.846 142.073)" fill="url(#paint43_linear)" stroke="black" stroke-miterlimit="10"/>
<path d="M16.89 33.784C26.2181 33.784 33.7801 26.2212 33.7801 16.892C33.7801 7.56281 26.2181 6.10063e-06 16.89 6.10063e-06C7.56194 6.10063e-06 3.04996e-06 7.56281 3.04996e-06 16.892C3.04996e-06 26.2212 7.56194 33.784 16.89 33.784Z" transform="translate(250.825 157.998)" fill="url(#paint44_radial)"/>
<path d="M6.09992e-06 2.29892C9.59434 13.8935 25.8847 13.5936 33.4802 3.05032e-06" transform="translate(250.652 172.688)" stroke="black" stroke-miterlimit="10"/>
<path d="M29.868 5.49741C35.5646 46.2782 21.6729 73.7652 21.6729 73.7652C9.08036 57.3729 6.58183 21.09 6.98159 5.59735L1.98455 0.599711C-6.81023 56.7732 16.476 85.1598 16.476 85.1598L28.8686 85.2598C49.6563 40.9807 35.2648 3.05032e-06 35.2648 3.05032e-06L29.868 5.49741Z" transform="translate(249.068 174.187)" fill="url(#paint45_linear)" stroke="black" stroke-miterlimit="10"/>
<path d="M58.0657 116.145C90.1345 116.145 116.131 90.145 116.131 58.0724C116.131 25.9999 90.1345 0 58.0657 0C25.9969 0 0 25.9999 0 58.0724C0 90.145 25.9969 116.145 58.0657 116.145Z" transform="translate(218.072 246.858)" fill="url(#paint46_radial)"/>
<path d="M-3.04996e-06 7.89628C32.8806 47.9774 89.0474 46.678 115.332 0" transform="translate(218.272 298.328)" stroke="black" stroke-miterlimit="10"/>
<g filter="url(#filter2_d)">
<path d="M6.0999e-06 6.4393L12.0928 30.328L36.0786 28.5288L45.3731 2.74105C45.4731 2.6411 25.0851 -5.35512 6.0999e-06 6.4393Z" transform="translate(248.653 247.114)" fill="url(#paint47_linear)"/>
<path d="M6.0999e-06 6.4393L12.0928 30.328L36.0786 28.5288L45.3731 2.74105C45.4731 2.6411 25.0851 -5.35512 6.0999e-06 6.4393Z" transform="translate(248.653 247.114)" stroke="black" stroke-miterlimit="10"/>
</g>
<path d="M16.0905 -3.05031e-06C20.288 0.299855 24.4856 0.499763 28.5831 1.29938C33.7801 2.29891 38.977 3.89816 43.7742 6.09711C48.2715 8.19612 52.4691 10.7949 56.1669 14.1933C57.1663 15.0929 58.1657 16.1923 58.3656 17.4917C58.5655 18.891 57.7659 20.1904 56.7665 21.09C54.9676 22.5893 52.4691 23.289 50.1704 23.9886C47.1722 24.8882 43.0746 25.5879 39.9764 25.7878C33.1804 26.3875 26.3844 26.9872 19.5884 26.4874C16.0905 26.2875 12.5926 25.7878 9.19458 24.7883C7.49559 24.2885 5.79659 23.6888 4.19753 22.9891C2.79836 22.3894 1.39917 21.5898 -6.09992e-06 20.9901C-6.09992e-06 20.9901 7.59553 21.4898 12.6925 19.2909C33.0805 22.4893 46.8724 17.9915 49.171 16.4922C49.171 16.4922 42.8747 7.29654 20.4879 6.29702" transform="translate(367.883 113.121)" fill="url(#paint48_linear)"/>
<path d="M16.0905 -3.05031e-06C20.288 0.299855 24.4856 0.499763 28.5831 1.29938C33.7801 2.29891 38.977 3.89816 43.7742 6.09711C48.2715 8.19612 52.4691 10.7949 56.1669 14.1933C57.1663 15.0929 58.1657 16.1923 58.3656 17.4917C58.5655 18.891 57.7659 20.1904 56.7665 21.09C54.9676 22.5893 52.4691 23.289 50.1704 23.9886C47.1722 24.8882 43.0746 25.5879 39.9764 25.7878C33.1804 26.3875 26.3844 26.9872 19.5884 26.4874C16.0905 26.2875 12.5926 25.7878 9.19458 24.7883C7.49559 24.2885 5.79659 23.6888 4.19753 22.9891C2.79836 22.3894 1.39917 21.5898 -6.09992e-06 20.9901C-6.09992e-06 20.9901 7.59553 21.4898 12.6925 19.2909C33.0805 22.4893 46.8724 17.9915 49.171 16.4922C49.171 16.4922 42.8747 7.29654 20.4879 6.29702" transform="translate(367.883 113.121)" stroke="black" stroke-miterlimit="10"/>
<path d="M6.09992e-06 14.4646C6.09992e-06 18.0629 4.49735 20.4618 7.49558 18.3628L14.8912 4.06948C13.1922 0.471177 10.5937 -0.4284 7.39563 0.171317L6.09992e-06 14.4646Z" transform="translate(142.718 121.647)" fill="url(#paint49_linear)" stroke="black" stroke-miterlimit="10"/>
<path d="M16.89 33.784C26.2181 33.784 33.7801 26.2212 33.7801 16.892C33.7801 7.56281 26.2181 6.10063e-06 16.89 6.10063e-06C7.56192 6.10063e-06 3.04996e-06 7.56281 3.04996e-06 16.892C3.04996e-06 26.2212 7.56192 33.784 16.89 33.784Z" transform="translate(119.929 134.506)" fill="url(#paint50_radial)"/>
<path d="M32.181 -6.10064e-06C27.3838 14.2932 11.9929 19.7907 0 9.79537" transform="translate(120.63 145.305)" stroke="black" stroke-miterlimit="10"/>
<path d="M38.6861 9.39557C28.4922 18.0915 16.7991 26.4875 8.00428 42.7798C11.5022 42.38 32.9895 32.9845 51.9782 17.1919C58.0746 17.0919 65.1704 13.1938 65.1704 13.1938C64.171 14.5931 63.2716 15.8925 62.1722 17.1919C61.0729 18.5912 59.9735 19.8906 58.7742 21.19C51.7784 28.9863 43.3833 34.4838 34.4886 39.6813C31.0906 41.6804 26.6932 43.8793 23.1953 45.6785C19.8972 47.2777 15.9995 48.9769 12.5016 49.9765C9.00369 50.976 7.20475 51.4757 3.80676 51.2758C1.90788 51.1759 0.608657 50.1764 0.108953 48.1773C-0.0909292 47.1778 0.00901014 46.2782 0.208892 45.3786C1.00842 41.8803 2.40759 38.5818 4.10659 35.4833C6.00546 31.885 8.20416 28.3866 10.6027 25.1881C18.2982 14.893 28.9919 5.29751 40.4851 6.10064e-06C38.886 2.99859 38.6861 5.89722 38.6861 9.39557Z" transform="translate(81.0431 143.007)" fill="url(#paint51_linear)" stroke="black" stroke-miterlimit="10"/>
<path d="M58.0657 116.145C90.1345 116.145 116.131 90.145 116.131 58.0724C116.131 25.9999 90.1345 -6.10062e-06 58.0657 -6.10062e-06C25.9969 -6.10062e-06 0 25.9999 0 58.0724C0 90.145 25.9969 116.145 58.0657 116.145Z" transform="translate(1 146.802)" fill="url(#paint52_radial)"/>
<path d="M5.95694e-09 7.89628C32.8806 47.9774 89.0474 46.678 115.332 -6.10064e-06" transform="translate(1.09909 198.28)" stroke="black" stroke-miterlimit="10"/>
<g filter="url(#filter3_d)">
<path d="M-7.62489e-07 1.82315C-7.62489e-07 1.82315 8.09522 9.21964 11.893 15.8165C11.893 15.8165 27.9835 12.3182 42.8747 23.8127C42.8747 23.8127 48.5713 33.2083 58.3655 42.304C58.3655 42.304 60.8641 55.1979 50.3703 72.0899C50.3703 72.0899 60.4643 82.8848 65.0616 83.9843C65.0616 83.9843 81.5519 59.4959 62.5631 27.6109C43.5743 -4.27396 8.69487 -1.27539 -7.62489e-07 1.82315Z" transform="translate(45.974 146.377)" fill="url(#paint53_linear)"/>
<path d="M-7.62489e-07 1.82315C-7.62489e-07 1.82315 8.09522 9.21964 11.893 15.8165C11.893 15.8165 27.9835 12.3182 42.8747 23.8127C42.8747 23.8127 48.5713 33.2083 58.3655 42.304C58.3655 42.304 60.8641 55.1979 50.3703 72.0899C50.3703 72.0899 60.4643 82.8848 65.0616 83.9843C65.0616 83.9843 81.5519 59.4959 62.5631 27.6109C43.5743 -4.27396 8.69487 -1.27539 -7.62489e-07 1.82315Z" transform="translate(45.974 146.377)" stroke="black" stroke-miterlimit="10"/>
</g>
<path d="M17.8734 3.05032e-06C-4.4135 28.3866 -6.21244 69.1673 14.4754 100.752" transform="translate(39.9927 162.198)" stroke="black" stroke-miterlimit="10"/>
<path d="M-6.09992e-06 86.4592C-6.09992e-06 86.4592 15.6908 51.0759 6.2963 -6.10064e-06" transform="translate(271.441 276.246)" stroke="black" stroke-miterlimit="10"/>
<path d="M20.288 112.447C44.6736 99.053 58.0657 15.4927 1.21998e-05 3.05031e-06" transform="translate(449.636 83.733)" stroke="black" stroke-miterlimit="10"/>
<defs>
<filter id="filter0_d" x="386.758" y="90.6255" width="90.6973" height="94.5883" filterUnits="userSpaceOnUse" color-interpolation-filters="sRGB">
<feFlood flood-opacity="0" result="BackgroundImageFix"/>
<feColorMatrix in="SourceAlpha" type="matrix" values="0 0 0 0 0 0 0 0 0 0 0 0 0 0 0 0 0 0 255 0"/>
<feOffset dy="4"/>
<feGaussianBlur stdDeviation="2"/>
<feColorMatrix type="matrix" values="0 0 0 0 0 0 0 0 0 0 0 0 0 0 0 0 0 0 0.25 0"/>
<feBlend mode="normal" in2="BackgroundImageFix" result="effect1_dropShadow"/>
<feBlend mode="normal" in="SourceGraphic" in2="effect1_dropShadow" result="shape"/>
</filter>
<filter id="filter1_d" x="250.251" y="87.8292" width="35.9835" height="35.9868" filterUnits="userSpaceOnUse" color-interpolation-filters="sRGB">
<feFlood flood-opacity="0" result="BackgroundImageFix"/>
<feColorMatrix in="SourceAlpha" type="matrix" values="0 0 0 0 0 0 0 0 0 0 0 0 0 0 0 0 0 0 255 0"/>
<feOffset dy="4"/>
<feGaussianBlur stdDeviation="2"/>
<feColorMatrix type="matrix" values="0 0 0 0 0 0 0 0 0 0 0 0 0 0 0 0 0 0 0.25 0"/>
<feBlend mode="normal" in2="BackgroundImageFix" result="effect1_dropShadow"/>
<feBlend mode="normal" in="SourceGraphic" in2="effect1_dropShadow" result="shape"/>
</filter>
<filter id="filter2_d" x="243.975" y="246.614" width="54.5476" height="39.3515" filterUnits="userSpaceOnUse" color-interpolation-filters="sRGB">
<feFlood flood-opacity="0" result="BackgroundImageFix"/>
<feColorMatrix in="SourceAlpha" type="matrix" values="0 0 0 0 0 0 0 0 0 0 0 0 0 0 0 0 0 0 255 0"/>
<feOffset dy="4"/>
<feGaussianBlur stdDeviation="2"/>
<feColorMatrix type="matrix" values="0 0 0 0 0 0 0 0 0 0 0 0 0 0 0 0 0 0 0.25 0"/>
<feBlend mode="normal" in2="BackgroundImageFix" result="effect1_dropShadow"/>
<feBlend mode="normal" in="SourceGraphic" in2="effect1_dropShadow" result="shape"/>
</filter>
<filter id="filter3_d" x="41.0228" y="145.877" width="81.154" height="93.0512" filterUnits="userSpaceOnUse" color-interpolation-filters="sRGB">
<feFlood flood-opacity="0" result="BackgroundImageFix"/>
<feColorMatrix in="SourceAlpha" type="matrix" values="0 0 0 0 0 0 0 0 0 0 0 0 0 0 0 0 0 0 255 0"/>
<feOffset dy="4"/>
<feGaussianBlur stdDeviation="2"/>
<feColorMatrix type="matrix" values="0 0 0 0 0 0 0 0 0 0 0 0 0 0 0 0 0 0 0.25 0"/>
<feBlend mode="normal" in2="BackgroundImageFix" result="effect1_dropShadow"/>
<feBlend mode="normal" in="SourceGraphic" in2="effect1_dropShadow" result="shape"/>
</filter>
<radialGradient id="paint0_radial" cx="0.5" cy="0.5" r="0.5" gradientUnits="userSpaceOnUse" gradientTransform="translate(9.08963 -53.2244) scale(143.942 143.958)">
<stop stop-color="#494949"/>
<stop offset="1" stop-color="#2A2A29"/>
</radialGradient>
<linearGradient id="paint1_linear" x2="1" gradientUnits="userSpaceOnUse" gradientTransform="translate(87.2579 55.2361) scale(64.653 64.6604) rotate(138.691)">
<stop stop-color="#494949"/>
<stop offset="1" stop-color="#2A2A29"/>
</linearGradient>
<radialGradient id="paint2_radial" cx="0.5" cy="0.5" r="0.5" gradientUnits="userSpaceOnUse" gradientTransform="translate(0.103439 0.00559735) scale(34.1312 34.1353)">
<stop stop-color="#494949"/>
<stop offset="1" stop-color="#2A2A29"/>
</radialGradient>
<linearGradient id="paint3_linear" x2="1" gradientUnits="userSpaceOnUse" gradientTransform="matrix(8.77482 -11.3939 4.71878 6.37824 2.90683 11.1014)">
<stop stop-color="#494949"/>
<stop offset="1" stop-color="#2A2A29"/>
</linearGradient>
<linearGradient id="paint4_linear" x2="1" gradientUnits="userSpaceOnUse" gradientTransform="translate(30.3603 8.79755) scale(13.319 13.3206) rotate(59.0363)">
<stop stop-color="#494949"/>
<stop offset="1" stop-color="#333332"/>
</linearGradient>
<linearGradient id="paint5_linear" x2="1" gradientUnits="userSpaceOnUse" gradientTransform="translate(0.0356789 0.0697171) scale(28.1252 28.1286)">
<stop stop-color="#5D5C5D"/>
<stop offset="1" stop-color="#484849"/>
</linearGradient>
<linearGradient id="paint6_linear" x2="1" gradientUnits="userSpaceOnUse" gradientTransform="translate(1.02445 -0.942666) scale(28.0601 28.0633) rotate(3.84851)">
<stop stop-color="#5D5C5D"/>
<stop offset="1" stop-color="#484849"/>
</linearGradient>
<linearGradient id="paint7_linear" x2="1" gradientUnits="userSpaceOnUse" gradientTransform="translate(44.9606 9.81018) scale(20.4055 20.408) rotate(104.036)">
<stop stop-color="#494949"/>
<stop offset="1" stop-color="#343433"/>
</linearGradient>
<linearGradient id="paint8_linear" x2="1" gradientUnits="userSpaceOnUse" gradientTransform="translate(30.3603 8.72018) scale(13.319 13.3206) rotate(59.0363)">
<stop stop-color="#494949"/>
<stop offset="1" stop-color="#333332"/>
</linearGradient>
<linearGradient id="paint9_linear" x2="1" gradientUnits="userSpaceOnUse" gradientTransform="translate(92.7954 -41.9523) scale(194.809 194.831) rotate(46.9749)">
<stop stop-color="#494949"/>
<stop offset="1" stop-color="#121212"/>
</linearGradient>
<linearGradient id="paint10_linear" x2="1" gradientUnits="userSpaceOnUse" gradientTransform="translate(-0.088248 -0.0496265) scale(28.0614 28.0646)">
<stop stop-color="#5D5C5D"/>
<stop offset="1" stop-color="#484849"/>
</linearGradient>
<linearGradient id="paint11_linear" x2="1" gradientUnits="userSpaceOnUse" gradientTransform="translate(10.3347 3.12547) scale(18.5664 18.5686) rotate(31.3729)">
<stop stop-color="#494949"/>
<stop offset="1" stop-color="#2A2A29"/>
</linearGradient>
<linearGradient id="paint12_linear" x2="1" gradientUnits="userSpaceOnUse" gradientTransform="translate(1.40232 -1.31645) scale(28.0605 28.0638) rotate(5.48021)">
<stop stop-color="#5D5C5D"/>
<stop offset="1" stop-color="#484849"/>
</linearGradient>
<linearGradient id="paint13_linear" x2="1" gradientUnits="userSpaceOnUse" gradientTransform="translate(-0.0500705 -0.0174417) scale(28.0596 28.0628)">
<stop stop-color="#5D5C5D"/>
<stop offset="1" stop-color="#484849"/>
</linearGradient>
<linearGradient id="paint14_linear" x2="1" gradientUnits="userSpaceOnUse" gradientTransform="matrix(-23.6428 -14.7619 12.206 -20.5478 29.3749 39.4801)">
<stop stop-color="#232322"/>
<stop offset="1" stop-color="#363636"/>
</linearGradient>
<linearGradient id="paint15_linear" x2="1" gradientUnits="userSpaceOnUse" gradientTransform="matrix(-20.7963 16.247 -20.969 -28.7826 38.4355 27.0749)">
<stop stop-color="#232322"/>
<stop offset="1" stop-color="#363636"/>
</linearGradient>
<linearGradient id="paint16_linear" x2="1" gradientUnits="userSpaceOnUse" gradientTransform="translate(1.38848 -1.28451) scale(28.0605 28.0638) rotate(5.48021)">
<stop stop-color="#5D5C5D"/>
<stop offset="1" stop-color="#484849"/>
</linearGradient>
<linearGradient id="paint17_linear" x2="1" gradientUnits="userSpaceOnUse" gradientTransform="translate(32.5497 5.94783) scale(20.6351 20.6375) rotate(60.1241)">
<stop stop-color="#494949"/>
<stop offset="1" stop-color="#2A2A29"/>
</linearGradient>
<linearGradient id="paint18_linear" x2="1" gradientUnits="userSpaceOnUse" gradientTransform="translate(1.37156 -1.27965) scale(28.0604 28.0637) rotate(5.48021)">
<stop stop-color="#5D5C5D"/>
<stop offset="1" stop-color="#484849"/>
</linearGradient>
<linearGradient id="paint19_linear" x2="1" gradientUnits="userSpaceOnUse" gradientTransform="translate(1.21069 0.802501) scale(28.3924 28.3957) rotate(8.41857)">
<stop stop-color="#494949"/>
<stop offset="1" stop-color="#2A2A29"/>
</linearGradient>
<linearGradient id="paint20_linear" x2="1" gradientUnits="userSpaceOnUse" gradientTransform="translate(48.6193 9.55325) scale(27.0537 27.0569) rotate(103.841)">
<stop stop-color="#494949"/>
<stop offset="1" stop-color="#2A2A29"/>
</linearGradient>
<linearGradient id="paint21_linear" x2="1" gradientUnits="userSpaceOnUse" gradientTransform="translate(1.40188 -1.32074) scale(28.0605 28.0638) rotate(5.48021)">
<stop stop-color="#5D5C5D"/>
<stop offset="1" stop-color="#484849"/>
</linearGradient>
<linearGradient id="paint22_linear" x2="1" gradientUnits="userSpaceOnUse" gradientTransform="translate(1.38809 -1.28877) scale(28.0604 28.0637) rotate(5.48021)">
<stop stop-color="#5D5C5D"/>
<stop offset="1" stop-color="#484849"/>
</linearGradient>
<linearGradient id="paint23_linear" x2="1" gradientUnits="userSpaceOnUse" gradientTransform="translate(23.9316 34.9264) scale(22.9096 22.9123) rotate(-118.258)">
<stop stop-color="#232322"/>
<stop offset="1" stop-color="#363636"/>
</linearGradient>
<linearGradient id="paint24_linear" x2="1" gradientUnits="userSpaceOnUse" gradientTransform="translate(1.37108 -1.28402) scale(28.0605 28.0638) rotate(5.48021)">
<stop stop-color="#5D5C5D"/>
<stop offset="1" stop-color="#484849"/>
</linearGradient>
<linearGradient id="paint25_linear" x2="1" gradientUnits="userSpaceOnUse" gradientTransform="translate(42.8997 7.62666) scale(16.8198 16.8218) rotate(95.1945)">
<stop stop-color="#494949"/>
<stop offset="1" stop-color="#333332"/>
</linearGradient>
<linearGradient id="paint26_linear" x2="1" gradientUnits="userSpaceOnUse" gradientTransform="translate(0.00229865 -0.0777132) scale(28.0596 28.0628)">
<stop stop-color="#5D5C5D"/>
<stop offset="1" stop-color="#484849"/>
</linearGradient>
<linearGradient id="paint27_linear" x2="1" gradientUnits="userSpaceOnUse" gradientTransform="translate(0.00229865 7.04546) scale(17.9894 17.9915)">
<stop stop-color="#494949"/>
<stop offset="1" stop-color="#2A2A29"/>
</linearGradient>
<linearGradient id="paint28_linear" x2="1" gradientUnits="userSpaceOnUse" gradientTransform="translate(-0.276562 4.23785) scale(23.9854 23.9881) rotate(-1.35957)">
<stop stop-color="#494949"/>
<stop offset="1" stop-color="#2A2A29"/>
</linearGradient>
<linearGradient id="paint29_linear" x2="1" gradientUnits="userSpaceOnUse" gradientTransform="translate(0.00229865 4.34673) scale(17.9894 17.9915)">
<stop stop-color="#161715"/>
<stop offset="1" stop-color="#0C0C08"/>
</linearGradient>
<linearGradient id="paint30_linear" x2="1" gradientUnits="userSpaceOnUse" gradientTransform="translate(17.9891 7.04547) scale(-17.9894 17.9915)">
<stop stop-color="#494949"/>
<stop offset="1" stop-color="#2A2A29"/>
</linearGradient>
<linearGradient id="paint31_linear" x2="1" gradientUnits="userSpaceOnUse" gradientTransform="translate(24.3493 4.23625) scale(-23.9854 23.9882) rotate(-1.35957)">
<stop stop-color="#494949"/>
<stop offset="1" stop-color="#2A2A29"/>
</linearGradient>
<linearGradient id="paint32_linear" x2="1" gradientUnits="userSpaceOnUse" gradientTransform="translate(17.9891 4.34674) scale(-17.9894 17.9915)">
<stop stop-color="#161715"/>
<stop offset="1" stop-color="#0C0C08"/>
</linearGradient>
<linearGradient id="paint33_linear" x2="1" gradientUnits="userSpaceOnUse" gradientTransform="translate(9.90318 1.76191) scale(11.993 -11.9944) rotate(-85.7703)">
<stop stop-color="#494949"/>
<stop offset="1" stop-color="#2A2A29"/>
</linearGradient>
<linearGradient id="paint34_linear" x2="1" gradientUnits="userSpaceOnUse" gradientTransform="translate(7.67115 0.290194) scale(15.9961 -15.998) rotate(-87.1296)">
<stop stop-color="#494949"/>
<stop offset="1" stop-color="#2A2A29"/>
</linearGradient>
<linearGradient id="paint35_linear" x2="1" gradientUnits="userSpaceOnUse" gradientTransform="translate(6.76762 0.649604) scale(11.9928 -11.9942) rotate(-85.7703)">
<stop stop-color="#161715"/>
<stop offset="1" stop-color="#0C0C08"/>
</linearGradient>
<linearGradient id="paint36_linear" x2="1" gradientUnits="userSpaceOnUse" gradientTransform="translate(27.6375 22.7096) scale(17.5659 17.568) rotate(150.101)">
<stop stop-color="#494949"/>
<stop offset="1" stop-color="#333332"/>
</linearGradient>
<linearGradient id="paint37_linear" x2="1" gradientUnits="userSpaceOnUse" gradientTransform="translate(0.00229865 -0.0777132) scale(28.0596 28.0628)">
<stop stop-color="#5D5C5D"/>
<stop offset="1" stop-color="#484849"/>
</linearGradient>
<linearGradient id="paint38_linear" x2="1" gradientUnits="userSpaceOnUse" gradientTransform="matrix(26.3193 5.46962 -1.13169 17.2722 1.28903 7.64937)">
<stop stop-color="#494949"/>
<stop offset="1" stop-color="#2A2A29"/>
</linearGradient>
<linearGradient id="paint39_linear" x2="1" gradientUnits="userSpaceOnUse" gradientTransform="translate(0.0783538 -0.00164922) scale(25.9086 25.9117)">
<stop stop-color="#5D5C5D"/>
<stop offset="1" stop-color="#484849"/>
</linearGradient>
<linearGradient id="paint40_linear" x2="1" gradientUnits="userSpaceOnUse" gradientTransform="translate(-0.0160905 19.0175) scale(19.9882 19.9905)">
<stop stop-color="#494949"/>
<stop offset="1" stop-color="#2A2A29"/>
</linearGradient>
<linearGradient id="paint41_linear" x2="1" gradientUnits="userSpaceOnUse" gradientTransform="translate(20.7433 36.7526) scale(22.0945 22.097) rotate(-179.985)">
<stop stop-color="#232322"/>
<stop offset="1" stop-color="#363636"/>
</linearGradient>
<linearGradient id="paint42_linear" x2="1" gradientUnits="userSpaceOnUse" gradientTransform="translate(18.7914 37.5141) scale(18.677 18.6792) rotate(178.831)">
<stop stop-color="#494949"/>
<stop offset="1" stop-color="#2A2A29"/>
</linearGradient>
<linearGradient id="paint43_linear" x2="1" gradientUnits="userSpaceOnUse" gradientTransform="translate(-1.60197 8.53072) scale(14.6046 14.6064) rotate(9.44347)">
<stop stop-color="#494949"/>
<stop offset="1" stop-color="#2A2A29"/>
</linearGradient>
<radialGradient id="paint44_radial" cx="0.5" cy="0.5" r="0.5" gradientUnits="userSpaceOnUse" gradientTransform="translate(0.0804525 -0.0165922) scale(34.1312 34.1353)">
<stop stop-color="#494949"/>
<stop offset="1" stop-color="#2A2A29"/>
</radialGradient>
<linearGradient id="paint45_linear" x2="1" gradientUnits="userSpaceOnUse" gradientTransform="translate(-0.286549 17.2359) scale(43.3061 43.3113) rotate(7.54504)">
<stop stop-color="#494949"/>
<stop offset="1" stop-color="#2A2A29"/>
</linearGradient>
<radialGradient id="paint46_radial" cx="0.5" cy="0.5" r="0.5" gradientUnits="userSpaceOnUse" gradientTransform="translate(-37.9842 -32.5881) scale(155.957 155.975)">
<stop stop-color="#494949"/>
<stop offset="1" stop-color="#2A2A29"/>
</radialGradient>
<linearGradient id="paint47_linear" x2="1" gradientUnits="userSpaceOnUse" gradientTransform="translate(-0.771339 -6.41645) scale(45.5591 45.5645) rotate(-3.5947)">
<stop stop-color="#494949"/>
<stop offset="1" stop-color="#2A2A29"/>
</linearGradient>
<linearGradient id="paint48_linear" x2="1" gradientUnits="userSpaceOnUse" gradientTransform="translate(-2.27522 18.7534) scale(44.1009 44.106) rotate(-45.846)">
<stop stop-color="#494949"/>
<stop offset="1" stop-color="#2A2A29"/>
</linearGradient>
<linearGradient id="paint49_linear" x2="1" gradientUnits="userSpaceOnUse" gradientTransform="matrix(-13.414 -5.18312 -0.722003 7.90095 14.4706 8.23862)">
<stop stop-color="#494949"/>
<stop offset="1" stop-color="#2A2A29"/>
</linearGradient>
<radialGradient id="paint50_radial" cx="0.5" cy="0.5" r="0.5" gradientUnits="userSpaceOnUse" gradientTransform="translate(26.5486 -4.92029) scale(-34.1304 34.1344) rotate(20.9289)">
<stop stop-color="#494949"/>
<stop offset="1" stop-color="#2A2A29"/>
</radialGradient>
<linearGradient id="paint51_linear" x2="1" gradientUnits="userSpaceOnUse" gradientTransform="matrix(-55.221 -17.7821 -11.1405 57.6785 65.8982 9.21979)">
<stop stop-color="#494949"/>
<stop offset="1" stop-color="#2A2A29"/>
</linearGradient>
<radialGradient id="paint52_radial" cx="0.5" cy="0.5" r="0.5" gradientUnits="userSpaceOnUse" gradientTransform="translate(-29.6707 -46.0166) scale(144.482 144.499)">
<stop stop-color="#494949"/>
<stop offset="1" stop-color="#2A2A29"/>
</radialGradient>
<linearGradient id="paint53_linear" x2="1" gradientUnits="userSpaceOnUse" gradientTransform="translate(62.6819 7.87033) scale(62.1355 62.1428) rotate(72.4233)">
<stop stop-color="#494949"/>
<stop offset="1" stop-color="#2A2A29"/>
</linearGradient>
</defs>
</svg>
