<svg width="516" height="769" viewBox="0 0 516 769" fill="none" xmlns="http://www.w3.org/2000/svg">
<g opacity="0.3">
<path d="M6.68478 0.510093L7.83334 3.60741C7.91604 3.8188 8.08144 3.99342 8.29278 4.06695L11.3894 5.21581C12.0693 5.46396 12.0693 6.429 11.3894 6.68634L8.29278 7.8352C8.08144 7.91791 7.90685 8.08335 7.83334 8.29474L6.68478 11.3921C6.43668 12.0722 5.47187 12.0722 5.21459 11.3921L4.066 8.29474C3.9833 8.08335 3.81791 7.90872 3.60657 7.8352L0.509981 6.68634C-0.169982 6.43819 -0.169982 5.47315 0.509981 5.21581L3.60657 4.06695C3.81791 3.98423 3.99249 3.8188 4.066 3.60741L5.21459 0.510093C5.46268 -0.17003 6.4275 -0.17003 6.68478 0.510093Z" transform="translate(240 90.0001)" fill="#FFD41D"/>
<path d="M3.79952 0.289503L4.45192 2.04496C4.49787 2.16444 4.58975 2.26554 4.71839 2.31149L6.47343 2.96405C6.85936 3.1111 6.85936 3.65337 6.47343 3.80042L4.71839 4.45296C4.59894 4.49892 4.49787 4.59084 4.45192 4.71951L3.79952 6.47495C3.65251 6.86096 3.11037 6.86096 2.96335 6.47495L2.31096 4.71951C2.26501 4.60003 2.17313 4.49892 2.04448 4.45296L0.289444 3.80042C-0.0964813 3.65337 -0.0964813 3.1111 0.289444 2.96405L2.04448 2.31149C2.16394 2.26554 2.26501 2.17364 2.31096 2.04496L2.96335 0.289503C3.11037 -0.0965129 3.66169 -0.0965129 3.79952 0.289503Z" transform="translate(9 239.701)" fill="#FFD41D"/>
<path d="M2.83242 0.220583L3.31941 1.53487C3.35617 1.62678 3.4205 1.70031 3.51238 1.72788L4.82636 2.21499C5.11121 2.32528 5.11121 2.72968 4.82636 2.83997L3.51238 3.32708C3.4205 3.36385 3.34698 3.42819 3.31941 3.5201L2.83242 4.83438C2.72215 5.1193 2.31785 5.1193 2.20758 4.83438L1.72059 3.5201C1.68383 3.42819 1.6195 3.35466 1.52762 3.32708L0.213639 2.83997C-0.0712101 2.72968 -0.0712101 2.32528 0.213639 2.21499L1.52762 1.72788C1.6195 1.69112 1.69302 1.62678 1.72059 1.53487L2.20758 0.220583C2.31785 -0.0735245 2.72215 -0.0735245 2.83242 0.220583Z" transform="translate(184.653 104.343)" fill="#FFD41D"/>
<path d="M2.83242 0.213696L3.31942 1.52797C3.35618 1.61988 3.42049 1.69341 3.51237 1.72099L4.82636 2.20811C5.11121 2.3184 5.11121 2.7228 4.82636 2.83309L3.51237 3.32018C3.42049 3.35695 3.34699 3.42129 3.31942 3.5132L2.83242 4.8275C2.72215 5.11241 2.31785 5.11241 2.20758 4.8275L1.72058 3.5132C1.68382 3.42129 1.61952 3.34776 1.52763 3.32018L0.213642 2.83309C-0.0712079 2.7228 -0.0712079 2.3184 0.213642 2.20811L1.52763 1.72099C1.61952 1.68422 1.69301 1.61988 1.72058 1.52797L2.20758 0.213696C2.30866 -0.0712201 2.72215 -0.0712201 2.83242 0.213696Z" transform="translate(265.413 372.511)" fill="#FFD41D"/>
<path d="M2.10651 0.164304L2.46486 1.13853C2.49243 1.20287 2.54757 1.25802 2.61189 1.28559L3.58589 1.64403C3.79723 1.72675 3.79723 2.03005 3.58589 2.10357L2.61189 2.46202C2.54757 2.48959 2.49243 2.54473 2.46486 2.60907L2.10651 3.5833C2.02381 3.79469 1.72058 3.79469 1.64707 3.5833L1.28871 2.60907C1.26115 2.54473 1.20602 2.48959 1.1417 2.46202L0.158505 2.11276C-0.052835 2.03005 -0.052835 1.72675 0.158505 1.65322L1.1325 1.29478C1.19683 1.26721 1.25196 1.21206 1.27953 1.14772L1.63788 0.173495C1.72058 -0.0562764 2.02381 -0.0562764 2.10651 0.164304Z" transform="translate(78.2667 0.99292)" fill="#FFD41D"/>
<path d="M6.68478 0.510092L7.83337 3.6074C7.91607 3.81879 8.08147 3.99342 8.29281 4.06695L11.3894 5.2158C12.0694 5.46395 12.0694 6.42899 11.3894 6.68634L8.29281 7.83519C8.08147 7.91791 7.90688 8.08335 7.83337 8.29474L6.68478 11.392C6.43669 12.0722 5.47188 12.0722 5.21459 11.392L4.06601 8.29474C3.98331 8.08335 3.81791 7.90872 3.60657 7.83519L0.509964 6.68634C-0.17 6.43818 -0.17 5.47315 0.509964 5.2158L3.60657 4.06695C3.81791 3.98423 3.9925 3.81879 4.06601 3.6074L5.21459 0.510092C5.46269 -0.170031 6.4275 -0.170031 6.68478 0.510092Z" transform="translate(225.155 279.286)" fill="#FFD41D"/>
<path d="M6.68477 0.510097L7.83336 3.60741C7.91606 3.8188 8.08146 3.99342 8.2928 4.06695L11.3894 5.21581C12.0693 5.46396 12.0693 6.429 11.3894 6.68634L8.2928 7.8352C8.08146 7.91792 7.90687 8.08335 7.83336 8.29474L6.68477 11.3921C6.43668 12.0722 5.47187 12.0722 5.21458 11.3921L4.066 8.29474C3.9833 8.08335 3.8179 7.90872 3.60656 7.8352L0.509977 6.68634C-0.169986 6.43819 -0.169986 5.47315 0.509977 5.21581L3.60656 4.06695C3.8179 3.98423 3.99249 3.8188 4.066 3.60741L5.21458 0.510097C5.47187 -0.170026 6.43668 -0.170026 6.68477 0.510097Z" transform="translate(150.12 313.366)" fill="#FFD41D"/>
<path d="M3.79951 0.2964L4.45191 2.05186C4.49786 2.17134 4.58973 2.27243 4.71838 2.31839L6.47343 2.97095C6.85935 3.118 6.85935 3.66025 6.47343 3.8073L4.71838 4.45986C4.59892 4.50581 4.49786 4.59771 4.45191 4.72638L3.79951 6.48185C3.65249 6.86786 3.11039 6.86786 2.96337 6.48185L2.31097 4.72638C2.26502 4.6069 2.17314 4.50581 2.0445 4.45986L0.289453 3.8073C-0.0964723 3.66025 -0.0964723 3.118 0.289453 2.97095L2.0445 2.31839C2.16396 2.27243 2.26502 2.18053 2.31097 2.05186L2.96337 0.2964C3.1012 -0.0988061 3.65249 -0.0988061 3.79951 0.2964Z" transform="translate(439 264)" fill="#FFD41D"/>
<path d="M6.68477 0.510092L7.83335 3.6074C7.91605 3.81879 8.08145 3.99342 8.29279 4.06695L11.3894 5.2158C12.0694 5.46395 12.0694 6.42899 11.3894 6.68634L8.29279 7.83519C8.08145 7.91791 7.90686 8.08335 7.83335 8.29474L6.68477 11.3921C6.43667 12.0722 5.47186 12.0722 5.21457 11.3921L4.06599 8.29474C3.98329 8.08335 3.81789 7.90872 3.60655 7.83519L0.50999 6.68634C-0.169973 6.43818 -0.169973 5.47315 0.50999 5.2158L3.60655 4.06695C3.81789 3.98423 3.99248 3.81879 4.06599 3.6074L5.21457 0.510092C5.47186 -0.170031 6.43667 -0.170031 6.68477 0.510092Z" transform="translate(468.499 175.292)" fill="#FFD41D"/>
<path d="M78.8757 -1.12193e-06L-8.97333e-06 78.8942" transform="translate(324 548)" stroke="url(#paint0_linear)" stroke-opacity="0.5" stroke-width="15" stroke-miterlimit="10" stroke-linecap="round"/>
<path d="M78.8849 0L0 78.8943" transform="translate(3 20.0001)" stroke="url(#paint1_linear)" stroke-opacity="0.5" stroke-width="5" stroke-miterlimit="10" stroke-linecap="round"/>
<path d="M1.3048 2.61089C2.02541 2.61089 2.60959 2.02645 2.60959 1.30547C2.60959 0.584488 2.02541 0 1.3048 0C0.584178 0 0 0.584488 0 1.30547C0 2.02645 0.584178 2.61089 1.3048 2.61089Z" transform="translate(69.0987 471.196)" fill="#FFED00"/>
<path d="M1.30479 2.61089C2.0254 2.61089 2.6096 2.02643 2.6096 1.30545C2.6096 0.584465 2.0254 0 1.30479 0C0.584167 0 -4.48667e-06 0.584465 -4.48667e-06 1.30545C-4.48667e-06 2.02643 0.584167 2.61089 1.30479 2.61089Z" transform="translate(262.631 198.503)" fill="#FFED00"/>
<path d="M1.30481 2.61091C2.02543 2.61091 2.60958 2.02642 2.60958 1.30544C2.60958 0.584461 2.02543 -4.48892e-06 1.30481 -4.48892e-06C0.584194 -4.48892e-06 0 0.584461 0 1.30544C0 2.02642 0.584194 2.61091 1.30481 2.61091Z" transform="translate(479.098 289.879)" fill="#FFED00"/>
<path d="M1.30479 2.6109C2.0254 2.6109 2.6096 2.02643 2.6096 1.30545C2.6096 0.584465 2.0254 0 1.30479 0C0.584167 0 1.79467e-05 0.584465 1.79467e-05 1.30545C1.79467e-05 2.02643 0.584167 2.6109 1.30479 2.6109Z" transform="translate(513.39 99.6097)" fill="#FFED00"/>
<path d="M2.88525 5.77184C4.47872 5.77184 5.7705 4.47977 5.7705 2.88592C5.7705 1.29206 4.47872 0 2.88525 0C1.29177 0 4.48667e-06 1.29206 4.48667e-06 2.88592C4.48667e-06 4.47977 1.29177 5.77184 2.88525 5.77184Z" transform="translate(142.084 410.168)" fill="#FFED00"/>
<path d="M2.88525 5.77184C4.47872 5.77184 5.7705 4.47977 5.7705 2.88592C5.7705 1.29206 4.47872 0 2.88525 0C1.29177 0 4.48667e-06 1.29206 4.48667e-06 2.88592C4.48667e-06 4.47977 1.29177 5.77184 2.88525 5.77184Z" transform="translate(113 604.831)" fill="#FFED00"/>
<path d="M3.96952 7.94088C6.16183 7.94088 7.93904 6.16328 7.93904 3.97046C7.93904 1.77765 6.16183 0 3.96952 0C1.77722 0 -8.97333e-06 1.77765 -8.97333e-06 3.97046C-8.97333e-06 6.16328 1.77722 7.94088 3.96952 7.94088Z" transform="translate(415 492)" fill="#FF5F6D"/>
<path d="M2.83242 0.220583L3.31941 1.53487C3.35617 1.62678 3.4205 1.70031 3.51238 1.72788L4.82636 2.21499C5.11121 2.32528 5.11121 2.72968 4.82636 2.83997L3.51238 3.32708C3.4205 3.36385 3.34698 3.42819 3.31941 3.5201L2.83242 4.83438C2.72215 5.1193 2.31785 5.1193 2.20758 4.83438L1.72059 3.5201C1.68383 3.42819 1.6195 3.35466 1.52762 3.32708L0.213639 2.83997C-0.0712101 2.72968 -0.0712101 2.32528 0.213639 2.21499L1.52762 1.72788C1.6195 1.69112 1.69302 1.62678 1.72059 1.53487L2.20758 0.220583C2.31785 -0.0735245 2.72215 -0.0735245 2.83242 0.220583Z" transform="translate(184.653 540.226)" fill="#FFD41D"/>
<path d="M2.10651 0.164304L2.46486 1.13853C2.49243 1.20287 2.54757 1.25802 2.61189 1.28559L3.58589 1.64403C3.79723 1.72675 3.79723 2.03005 3.58589 2.10357L2.61189 2.46202C2.54757 2.48959 2.49243 2.54473 2.46486 2.60907L2.10651 3.5833C2.02381 3.79469 1.72058 3.79469 1.64707 3.5833L1.28871 2.60907C1.26115 2.54473 1.20602 2.48959 1.1417 2.46202L0.158505 2.11276C-0.052835 2.03005 -0.052835 1.72675 0.158505 1.65322L1.1325 1.29478C1.19683 1.26721 1.25196 1.21206 1.27953 1.14772L1.63788 0.173495C1.72058 -0.0562764 2.02381 -0.0562764 2.10651 0.164304Z" transform="translate(78.2667 436.876)" fill="#FFD41D"/>
<path d="M6.68478 0.510092L7.83337 3.6074C7.91607 3.81879 8.08147 3.99342 8.29281 4.06695L11.3894 5.2158C12.0694 5.46395 12.0694 6.42899 11.3894 6.68634L8.29281 7.83519C8.08147 7.91791 7.90688 8.08335 7.83337 8.29474L6.68478 11.392C6.43669 12.0722 5.47188 12.0722 5.21459 11.392L4.06601 8.29474C3.98331 8.08335 3.81791 7.90872 3.60657 7.83519L0.509964 6.68634C-0.17 6.43818 -0.17 5.47315 0.509964 5.2158L3.60657 4.06695C3.81791 3.98423 3.9925 3.81879 4.06601 3.6074L5.21459 0.510092C5.46269 -0.170031 6.4275 -0.170031 6.68478 0.510092Z" transform="translate(315.155 695.175)" fill="#FFD41D"/>
<path d="M6.68477 0.510097L7.83336 3.60741C7.91606 3.8188 8.08146 3.99342 8.2928 4.06695L11.3894 5.21581C12.0693 5.46396 12.0693 6.429 11.3894 6.68634L8.2928 7.8352C8.08146 7.91792 7.90687 8.08335 7.83336 8.29474L6.68477 11.3921C6.43668 12.0722 5.47187 12.0722 5.21458 11.3921L4.066 8.29474C3.9833 8.08335 3.8179 7.90872 3.60656 7.8352L0.509977 6.68634C-0.169986 6.43819 -0.169986 5.47315 0.509977 5.21581L3.60656 4.06695C3.8179 3.98423 3.99249 3.8188 4.066 3.60741L5.21458 0.510097C5.47187 -0.170026 6.43668 -0.170026 6.68477 0.510097Z" transform="translate(150 722)" fill="#FFD41D"/>
<path d="M3.79951 0.2964L4.45191 2.05186C4.49786 2.17134 4.58973 2.27243 4.71838 2.31839L6.47343 2.97095C6.85935 3.118 6.85935 3.66025 6.47343 3.8073L4.71838 4.45986C4.59892 4.50581 4.49786 4.59771 4.45191 4.72638L3.79951 6.48185C3.65249 6.86786 3.11039 6.86786 2.96337 6.48185L2.31097 4.72638C2.26502 4.6069 2.17314 4.50581 2.0445 4.45986L0.289453 3.8073C-0.0964723 3.66025 -0.0964723 3.118 0.289453 2.97095L2.0445 2.31839C2.16396 2.27243 2.26502 2.18053 2.31097 2.05186L2.96337 0.2964C3.1012 -0.0988061 3.65249 -0.0988061 3.79951 0.2964Z" transform="translate(399.52 762.229)" fill="#FFD41D"/>
<path d="M6.68477 0.510092L7.83335 3.6074C7.91605 3.81879 8.08145 3.99342 8.29279 4.06695L11.3894 5.2158C12.0694 5.46395 12.0694 6.42899 11.3894 6.68634L8.29279 7.83519C8.08145 7.91791 7.90686 8.08335 7.83335 8.29474L6.68477 11.3921C6.43667 12.0722 5.47186 12.0722 5.21457 11.3921L4.06599 8.29474C3.98329 8.08335 3.81789 7.90872 3.60655 7.83519L0.50999 6.68634C-0.169973 6.43818 -0.169973 5.47315 0.50999 5.2158L3.60655 4.06695C3.81789 3.98423 3.99248 3.81879 4.06599 3.6074L5.21457 0.510092C5.47186 -0.170031 6.43667 -0.170031 6.68477 0.510092Z" transform="translate(468.499 611.175)" fill="#FFD41D"/>
<path d="M78.8849 0L0 78.8943" transform="translate(165 313)" stroke="url(#paint2_linear)" stroke-opacity="0.5" stroke-width="10" stroke-miterlimit="10" stroke-linecap="round"/>
<path d="M1.30479 2.61089C2.0254 2.61089 2.6096 2.02643 2.6096 1.30545C2.6096 0.584465 2.0254 0 1.30479 0C0.584167 0 -4.48667e-06 0.584465 -4.48667e-06 1.30545C-4.48667e-06 2.02643 0.584167 2.61089 1.30479 2.61089Z" transform="translate(262.631 634.386)" fill="#FFED00"/>
<path d="M1.30481 2.61091C2.02543 2.61091 2.60958 2.02642 2.60958 1.30544C2.60958 0.584461 2.02543 -4.48892e-06 1.30481 -4.48892e-06C0.584194 -4.48892e-06 0 0.584461 0 1.30544C0 2.02642 0.584194 2.61091 1.30481 2.61091Z" transform="translate(479.098 725.762)" fill="#FFED00"/>
<path d="M1.30479 2.6109C2.0254 2.6109 2.6096 2.02643 2.6096 1.30545C2.6096 0.584465 2.0254 0 1.30479 0C0.584167 0 1.79467e-05 0.584465 1.79467e-05 1.30545C1.79467e-05 2.02643 0.584167 2.6109 1.30479 2.6109Z" transform="translate(513.39 535.493)" fill="#FFED00"/>
<path d="M3.96952 7.94088C6.16183 7.94088 7.93904 6.16328 7.93904 3.97046C7.93904 1.77765 6.16183 0 3.96952 0C1.77722 0 -8.97333e-06 1.77765 -8.97333e-06 3.97046C-8.97333e-06 6.16328 1.77722 7.94088 3.96952 7.94088Z" transform="translate(246 600)" fill="#FF5F6D"/>
<path d="M3.96952 7.94088C6.16183 7.94088 7.93904 6.16328 7.93904 3.97046C7.93904 1.77765 6.16183 0 3.96952 0C1.77722 0 -8.97333e-06 1.77765 -8.97333e-06 3.97046C-8.97333e-06 6.16328 1.77722 7.94088 3.96952 7.94088Z" transform="translate(271 450)" fill="#FF5F6D"/>
<path d="M3.96847 7.94301C6.16019 7.94301 7.93692 6.16493 7.93692 3.97153C7.93692 1.77812 6.16019 0 3.96847 0C1.77675 0 0 1.77812 0 3.97153C0 6.16493 1.77675 7.94301 3.96847 7.94301Z" transform="translate(47.9385 587) rotate(88.06)" fill="#FF5F6D"/>
<path d="M1.30479 2.6109C2.0254 2.6109 2.6096 2.02643 2.6096 1.30545C2.6096 0.584474 2.0254 8.97784e-06 1.30479 8.97784e-06C0.584167 8.97784e-06 1.79467e-05 0.584474 1.79467e-05 1.30545C1.79467e-05 2.02643 0.584167 2.6109 1.30479 2.6109Z" transform="translate(509.118 336.375)" fill="#FF5F6D"/>
<path d="M1.3048 2.61091C2.02542 2.61091 2.60959 2.02642 2.60959 1.30544C2.60959 0.584461 2.02542 -4.48892e-06 1.3048 -4.48892e-06C0.584185 -4.48892e-06 -8.97333e-06 0.584461 -8.97333e-06 1.30544C-8.97333e-06 2.02642 0.584185 2.61091 1.3048 2.61091Z" transform="translate(336.067 327.975)" fill="#FF5F6D"/>
<path d="M1.30481 2.6109C2.02543 2.6109 2.60958 2.02641 2.60958 1.30543C2.60958 0.584452 2.02543 8.97784e-06 1.30481 8.97784e-06C0.584194 8.97784e-06 0 0.584452 0 1.30543C0 2.02641 0.584194 2.6109 1.30481 2.6109Z" transform="translate(399.616 395.84)" fill="#FF5F6D"/>
<path d="M1.30479 2.6109C2.02541 2.6109 2.60958 2.02643 2.60958 1.30545C2.60958 0.584474 2.02541 8.97784e-06 1.30479 8.97784e-06C0.584172 8.97784e-06 0 0.584474 0 1.30545C0 2.02643 0.584172 2.6109 1.30479 2.6109Z" transform="translate(357.761 261.7)" fill="#0085AE"/>
<path d="M1.30479 2.6109C2.02541 2.6109 2.60959 2.02643 2.60959 1.30545C2.60959 0.584474 2.02541 -2.24446e-06 1.30479 -2.24446e-06C0.584175 -2.24446e-06 0 0.584474 0 1.30545C0 2.02643 0.584175 2.6109 1.30479 2.6109Z" transform="translate(54.7275 146.262)" fill="#FF5F6D"/>
<path d="M1.30479 2.6109C2.02541 2.6109 2.60958 2.02643 2.60958 1.30545C2.60958 0.584472 2.02541 0 1.30479 0C0.584176 0 4.48667e-06 0.584472 4.48667e-06 1.30545C4.48667e-06 2.02643 0.584176 2.6109 1.30479 2.6109Z" transform="translate(118.561 94.9407)" fill="#0085AE"/>
<path d="M1.30479 2.6109C2.02541 2.6109 2.60958 2.02643 2.60958 1.30545C2.60958 0.58447 2.02541 0 1.30479 0C0.584176 0 4.48667e-06 0.58447 4.48667e-06 1.30545C4.48667e-06 2.02643 0.584176 2.6109 1.30479 2.6109Z" transform="translate(327 47)" fill="#0085AE"/>
<path d="M1.30479 2.6109C2.02541 2.6109 2.60959 2.02643 2.60959 1.30545C2.60959 0.58447 2.02541 0 1.30479 0C0.584176 0 0 0.58447 0 1.30545C0 2.02643 0.584176 2.6109 1.30479 2.6109Z" transform="translate(53.2758 19.9617)" fill="#0085AE"/>
<path d="M4.18086 8.36369C6.48988 8.36369 8.36171 6.49142 8.36171 4.18185C8.36171 1.87229 6.48988 1.79509e-05 4.18086 1.79509e-05C1.87183 1.79509e-05 0 1.87229 0 4.18185C0 6.49142 1.87183 8.36369 4.18086 8.36369Z" transform="translate(17.5961 473.5)" fill="#0085AE"/>
<path d="M4.18086 8.36369C6.48988 8.36369 8.36171 6.49142 8.36171 4.18185C8.36171 1.87229 6.48988 1.79509e-05 4.18086 1.79509e-05C1.87183 1.79509e-05 0 1.87229 0 4.18185C0 6.49142 1.87183 8.36369 4.18086 8.36369Z" transform="translate(319 500)" fill="#0085AE"/>
<path d="M5.18242 10.3673C8.0446 10.3673 10.3648 8.04649 10.3648 5.18365C10.3648 2.3208 8.0446 1.79509e-05 5.18242 1.79509e-05C2.32025 1.79509e-05 8.97333e-06 2.3208 8.97333e-06 5.18365C8.97333e-06 8.04649 2.32025 10.3673 5.18242 10.3673Z" transform="translate(424 68.0001)" fill="#FFC371"/>
<path d="M1.3048 2.61089C2.02541 2.61089 2.60959 2.02645 2.60959 1.30547C2.60959 0.584488 2.02541 0 1.3048 0C0.584178 0 0 0.584488 0 1.30547C0 2.02645 0.584178 2.61089 1.3048 2.61089Z" transform="translate(320.126 71.5712) scale(1.00013 0.999866) rotate(-135)" fill="#FFED00"/>
<path d="M3.96899 7.94195C6.161 7.94195 7.93797 6.16411 7.93797 3.971C7.93797 1.77789 6.161 0 3.96899 0C1.77698 0 -8.97213e-06 1.77789 -8.97213e-06 3.971C-8.97213e-06 6.16411 1.77698 7.94195 3.96899 7.94195Z" transform="translate(284.614 163.227) scale(1.00013 0.999866) rotate(-135)" fill="#FF5F6D"/>
<path d="M5.18173 10.3687C8.04352 10.3687 10.3634 8.04757 10.3634 5.18434C10.3634 2.32111 8.04352 1.79533e-05 5.18173 1.79533e-05C2.31994 1.79533e-05 8.97213e-06 2.32111 8.97213e-06 5.18434C8.97213e-06 8.04757 2.31994 10.3687 5.18173 10.3687Z" transform="translate(169.329 30.6578) scale(1.00013 0.999866) rotate(-135)" fill="#FFC371"/>
</g>
<defs>
<linearGradient id="paint0_linear" x2="1" gradientUnits="userSpaceOnUse" gradientTransform="matrix(81 -76.9794 77.0387 81.019 -38.5193 38.4694)">
<stop stop-color="#FDEA18"/>
<stop offset="1" stop-color="#FDEA18" stop-opacity="0"/>
</linearGradient>
<linearGradient id="paint1_linear" x2="1" gradientUnits="userSpaceOnUse" gradientTransform="matrix(74.5 -78.9788 79.0397 74.5175 -39.5199 41.7201)">
<stop stop-color="#FF5F6D"/>
<stop offset="1" stop-color="#FF5F6D" stop-opacity="0"/>
</linearGradient>
<linearGradient id="paint2_linear" x2="1" gradientUnits="userSpaceOnUse" gradientTransform="matrix(79 -82.4779 82.5415 79.0185 -41.2707 39.4696)">
<stop stop-color="#FF5F6D"/>
<stop offset="1" stop-color="#FF5F6D" stop-opacity="0"/>
</linearGradient>
</defs>
</svg>
