<svg width="1440" height="987" viewBox="0 0 1440 987" fill="none" xmlns="http://www.w3.org/2000/svg">
<path d="M275.469 502.13C188.977 572.159 134.487 587.469 0 636.99V986.5C29.8307 960.329 81.8074 924.145 163.48 913.384C284.968 897.378 427.453 987.334 600.329 828.571C731.705 707.919 761.42 828.571 949.401 702.714C1105.48 598.215 1121.38 557.5 1279.37 538.145C1352.78 529.151 1406.92 518.944 1440 508.943V0.523354C1417.14 -1.0403 1389.28 -0.189718 1330.26 18.73C1193.88 62.4447 1229.11 80.9538 967.4 224.513C816.915 307.06 734.923 332.058 554.441 351.566C373.959 371.075 361.96 432.1 275.469 502.13Z" fill="url(#paint0_linear)"/>
<defs>
<linearGradient id="paint0_linear" x2="1" gradientUnits="userSpaceOnUse" gradientTransform="translate(-296.441 451.876) scale(1440 986.5) rotate(-41.5997)">
<stop stop-color="#FF5F6D"/>
<stop offset="1" stop-color="#FFC371"/>
</linearGradient>
</defs>
</svg>
