<?xml version="1.0" encoding="utf-8"?>
<!-- Generator: Adobe Illustrator 22.1.0, SVG Export Plug-In . SVG Version: 6.00 Build 0)  -->
<svg version="1.1" id="Calque_1" xmlns="http://www.w3.org/2000/svg" xmlns:xlink="http://www.w3.org/1999/xlink" x="0px" y="0px"
	 viewBox="0 0 516 354" style="enable-background:new 0 0 516 354;" xml:space="preserve">
<style type="text/css">
	.st0{fill:url(#SVGID_1_);}
	.st1{fill:none;stroke:#000000;stroke-miterlimit:10;}
	.st2{fill:url(#SVGID_2_);}
	.st3{fill:url(#SVGID_3_);}
	.st4{fill:url(#SVGID_4_);stroke:#000000;stroke-miterlimit:10;}
	.st5{fill:url(#SVGID_5_);}
	.st6{fill:url(#SVGID_6_);}
	.st7{fill:url(#SVGID_7_);}
	.st8{fill:url(#SVGID_8_);}
	.st9{fill:url(#SVGID_9_);}
	.st10{fill:url(#SVGID_10_);}
	.st11{fill:url(#SVGID_11_);}
	.st12{fill:url(#SVGID_12_);}
	.st13{fill:url(#SVGID_13_);}
	.st14{fill:url(#SVGID_14_);}
	.st15{fill:url(#SVGID_15_);}
	.st16{fill:url(#SVGID_16_);}
	.st17{fill:url(#SVGID_17_);}
	.st18{fill:url(#SVGID_18_);}
	.st19{fill:url(#SVGID_19_);}
	.st20{fill:url(#SVGID_20_);}
	.st21{fill:url(#SVGID_21_);}
	.st22{fill:url(#SVGID_22_);}
	.st23{fill:url(#SVGID_23_);}
	.st24{fill:url(#SVGID_24_);}
	.st25{fill:url(#SVGID_25_);}
	.st26{fill:url(#SVGID_26_);}
	.st27{fill:url(#SVGID_27_);}
	.st28{fill:url(#SVGID_28_);}
	.st29{fill:url(#SVGID_29_);stroke:#000000;stroke-miterlimit:10;}
	.st30{fill:url(#SVGID_30_);stroke:#000000;stroke-miterlimit:10;}
	.st31{fill:url(#SVGID_31_);}
	.st32{fill:url(#SVGID_32_);stroke:#000000;stroke-miterlimit:10;}
	.st33{fill:url(#SVGID_33_);stroke:#000000;stroke-miterlimit:10;}
	.st34{fill:url(#SVGID_34_);}
	.st35{fill:url(#SVGID_35_);stroke:#000000;stroke-miterlimit:10;}
	.st36{fill:url(#SVGID_36_);stroke:#000000;stroke-miterlimit:10;}
	.st37{fill:url(#SVGID_37_);}
	.st38{fill:url(#SVGID_38_);}
	.st39{fill:url(#SVGID_39_);}
	.st40{fill:url(#SVGID_40_);}
	.st41{fill:url(#SVGID_41_);}
	.st42{fill:url(#SVGID_42_);}
	.st43{fill:url(#SVGID_43_);stroke:#000000;stroke-width:2;stroke-miterlimit:10;}
	.st44{fill:url(#SVGID_44_);}
	.st45{fill:url(#SVGID_45_);stroke:#000000;stroke-width:2;stroke-miterlimit:10;}
	.st46{fill:url(#SVGID_46_);stroke:#000000;stroke-miterlimit:10;}
	.st47{fill:url(#SVGID_47_);}
	.st48{fill:url(#SVGID_48_);stroke:#000000;stroke-miterlimit:10;}
	.st49{fill:url(#SVGID_49_);}
	.st50{fill:url(#SVGID_50_);}
	.st51{fill:url(#SVGID_51_);}
	.st52{fill:url(#SVGID_52_);stroke:#000000;stroke-miterlimit:10;}
	.st53{fill:url(#SVGID_53_);}
	.st54{fill:url(#SVGID_54_);stroke:#000000;stroke-miterlimit:10;}
	.st55{fill:url(#SVGID_55_);}
	.st56{fill:url(#SVGID_56_);}
	.st57{fill:#A8A8A8;}
</style>
<g>
	
		<radialGradient id="SVGID_1_" cx="215.0002" cy="0.125" r="0.5" gradientTransform="matrix(144.027 0 0 144.027 -30485.5684 83.4507)" gradientUnits="userSpaceOnUse">
		<stop  offset="0" style="stop-color:#494949"/>
		<stop  offset="1" style="stop-color:#2A2A29"/>
	</radialGradient>
	<path class="st0" d="M457.2,198.9c32.1,0,58.1-26,58.1-58.1s-26-58.1-58.1-58.1s-58.1,26-58.1,58.1S425.1,198.9,457.2,198.9z"/>
	<path class="st1" d="M399.3,142.1c32.9,40.1,89.1,38.8,115.4-7.9"/>
	<g>
		<g>
			<g>
				
					<linearGradient id="SVGID_2_" gradientUnits="userSpaceOnUse" x1="217.957" y1="3.3329" x2="218.957" y2="3.3329" gradientTransform="matrix(-48.5934 42.7039 -42.7039 -48.5934 11198.0459 -9024.5752)">
					<stop  offset="0" style="stop-color:#494949"/>
					<stop  offset="1" style="stop-color:#2A2A29"/>
				</linearGradient>
				<path class="st2" d="M458.4,139.2c3.3-8.9,2.1-18.1-2.2-25.3c-1.1-7.5,9-21.3,9-21.3c-6.3-2.4-17.4-2.4-17.4-2.4
					c-14.1,3.2-24.3,13.2-26.4,15.4c-5.2,3.1-9.7,7.9-12.5,14.2c-0.4,0.9-0.8,1.8-1.1,2.7l-7,3.9c-5.6,12.6,1.2,31.7,1.2,31.7
					c-0.4-4.6,5.2-13,6.2-14.1c2.4,5.9,6.8,10.7,12.8,13.4c2.1,0.9,4.2,1.5,6.4,1.9c12.8,13,33.4,16.5,33.4,16.5l19.1-14.3
					C464.3,153.3,458.4,139.2,458.4,139.2z"/>
				<path class="st1" d="M458.4,139.2c3.3-8.9,2.1-18.1-2.2-25.3c-1.1-7.5,9-21.3,9-21.3c-6.3-2.4-17.4-2.4-17.4-2.4
					c-14.1,3.2-24.3,13.2-26.4,15.4c-5.2,3.1-9.7,7.9-12.5,14.2c-0.4,0.9-0.8,1.8-1.1,2.7l-7,3.9c-5.6,12.6,1.2,31.7,1.2,31.7
					c-0.4-4.6,5.2-13,6.2-14.1c2.4,5.9,6.8,10.7,12.8,13.4c2.1,0.9,4.2,1.5,6.4,1.9c12.8,13,33.4,16.5,33.4,16.5l19.1-14.3
					C464.3,153.3,458.4,139.2,458.4,139.2z"/>
			</g>
		</g>
	</g>
	
		<radialGradient id="SVGID_3_" cx="209.9814" cy="0.6096" r="0.5" gradientTransform="matrix(32.9877 8.839 -8.839 32.9877 -6541.0415 -1750.8696)" gradientUnits="userSpaceOnUse">
		<stop  offset="0" style="stop-color:#494949"/>
		<stop  offset="1" style="stop-color:#2A2A29"/>
	</radialGradient>
	<path class="st3" d="M375.8,141.4c9,2.4,18.3-2.9,20.7-12c2.4-9-2.9-18.3-12-20.7c-9-2.4-18.3,2.9-20.7,12S366.8,138.9,375.8,141.4
		z"/>
	<path class="st1" d="M363.6,120.9c6.3,13.7,22.1,17.6,33,6.4"/>
	
		<linearGradient id="SVGID_4_" gradientUnits="userSpaceOnUse" x1="205.7741" y1="-26.2257" x2="206.774" y2="-26.2257" gradientTransform="matrix(8.78 -11.3993 4.7215 6.3813 -1327.1799 2640.1497)">
		<stop  offset="0" style="stop-color:#494949"/>
		<stop  offset="1" style="stop-color:#2A2A29"/>
	</linearGradient>
	<path class="st4" d="M368.5,121.2c1.9,3.1-0.7,7.4-4.4,7.2l-13.7-8.4l4.4-7.2L368.5,121.2z"/>
	
		<linearGradient id="SVGID_5_" gradientUnits="userSpaceOnUse" x1="204.1866" y1="12.3112" x2="205.1866" y2="12.3112" gradientTransform="matrix(6.8566 11.4277 -11.4277 6.8566 -1054.3912 -2250.1775)">
		<stop  offset="0" style="stop-color:#494949"/>
		<stop  offset="1" style="stop-color:#333332"/>
	</linearGradient>
	<path class="st5" d="M188.6,195.2l-8.3-18.2l46.8-21.6c7,3.2,10.4,9.5,8.3,18.2L188.6,195.2z"/>
	
		<linearGradient id="SVGID_6_" gradientUnits="userSpaceOnUse" x1="208.3245" y1="-1.4203" x2="209.3245" y2="-1.4203" gradientTransform="matrix(28.1419 0 0 28.1419 -5528.1465 112.4701)">
		<stop  offset="0" style="stop-color:#5D5C5D"/>
		<stop  offset="1" style="stop-color:#484849"/>
	</linearGradient>
	<path class="st6" d="M348.6,86.6c7.8,0,14.1-6.3,14.1-14.1s-6.3-14.1-14.1-14.1s-14.1,6.3-14.1,14.1S340.8,86.6,348.6,86.6z"/>
	
		<linearGradient id="SVGID_7_" gradientUnits="userSpaceOnUse" x1="208.195" y1="-0.9038" x2="209.195" y2="-0.9038" gradientTransform="matrix(28.0132 1.8845 -1.8845 28.0132 -5608.8159 -353.9686)">
		<stop  offset="0" style="stop-color:#5D5C5D"/>
		<stop  offset="1" style="stop-color:#484849"/>
	</linearGradient>
	<path class="st7" d="M239.1,28c7.7,0,14-6.3,14-14s-6.3-14-14-14s-14,6.3-14,14S231.4,28,239.1,28z"/>
	
		<linearGradient id="SVGID_8_" gradientUnits="userSpaceOnUse" x1="216" y1="11.3129" x2="217" y2="11.3129" gradientTransform="matrix(-4.9519 19.808 -19.808 -4.9519 1574.4027 -4210.2178)">
		<stop  offset="0" style="stop-color:#494949"/>
		<stop  offset="1" style="stop-color:#343433"/>
	</linearGradient>
	<path class="st8" d="M244.9,24c-1.7-8-2.5-15.5,4.6-19.5l66,15.7l-8.6,18.5L244.9,24z"/>
	<g>
		
			<linearGradient id="SVGID_9_" gradientUnits="userSpaceOnUse" x1="204.1866" y1="12.3335" x2="205.1866" y2="12.3335" gradientTransform="matrix(6.8566 11.4277 -11.4277 6.8566 -1054.3912 -2397.9551)">
			<stop  offset="0" style="stop-color:#494949"/>
			<stop  offset="1" style="stop-color:#333332"/>
		</linearGradient>
		<path class="st9" d="M188.6,48.5l-8.3-18.2l46.8-22.6c7,3.2,10.4,9.5,8.3,18.2L188.6,48.5z"/>
	</g>
	
		<linearGradient id="SVGID_10_" gradientUnits="userSpaceOnUse" x1="214.7659" y1="0.1913" x2="215.7659" y2="0.1913" gradientTransform="matrix(175 0 0 175 -37418.0391 79.5234)">
		<stop  offset="0" style="stop-color:#494949"/>
		<stop  offset="1" style="stop-color:#2A2A29"/>
	</linearGradient>
	<path class="st10" d="M253.5,200.5c48.3,0,87.5-39.2,87.5-87.5s-39.2-87.5-87.5-87.5S166,64.7,166,113S205.2,200.5,253.5,200.5z"/>
	<g>
		<g>
			<g>
				
					<linearGradient id="SVGID_11_" gradientUnits="userSpaceOnUse" x1="208.3078" y1="-1.4228" x2="209.3078" y2="-1.4228" gradientTransform="matrix(28.0779 0 0 28.0779 -5703.3467 117.7504)">
					<stop  offset="0" style="stop-color:#5D5C5D"/>
					<stop  offset="1" style="stop-color:#484849"/>
				</linearGradient>
				<path class="st11" d="M159.5,91.8c7.7,0,14-6.3,14-14s-6.3-14-14-14s-14,6.3-14,14S151.8,91.8,159.5,91.8z"/>
			</g>
		</g>
	</g>
	<g>
		
			<linearGradient id="SVGID_12_" gradientUnits="userSpaceOnUse" x1="204.5596" y1="4.0096" x2="205.5596" y2="4.0096" gradientTransform="matrix(15.8613 9.6715 -9.6715 15.8613 -3042.5244 -1985.1072)">
			<stop  offset="0" style="stop-color:#494949"/>
			<stop  offset="1" style="stop-color:#2A2A29"/>
		</linearGradient>
		<path class="st12" d="M173.6,75.1c-6.2,2.5-17.5-4.1-16.3-11.5l13.3-18.8l16.3,11.5L173.6,75.1z"/>
	</g>
	
		<linearGradient id="SVGID_13_" gradientUnits="userSpaceOnUse" x1="208.1584" y1="-0.6792" x2="209.1584" y2="-0.6792" gradientTransform="matrix(27.9488 2.6814 -2.6814 27.9488 -5649.5723 -497.3134)">
		<stop  offset="0" style="stop-color:#5D5C5D"/>
		<stop  offset="1" style="stop-color:#484849"/>
	</linearGradient>
	<path class="st13" d="M184,57.2c7.7,0,14-6.3,14-14s-6.3-14-14-14s-14,6.3-14,14S176.3,57.2,184,57.2z"/>
	<g>
		
			<linearGradient id="SVGID_14_" gradientUnits="userSpaceOnUse" x1="208.3066" y1="-1.4241" x2="209.3066" y2="-1.4241" gradientTransform="matrix(28.0762 0 0 28.0762 -5513.6411 175.6821)">
			<stop  offset="0" style="stop-color:#5D5C5D"/>
			<stop  offset="1" style="stop-color:#484849"/>
		</linearGradient>
		<path class="st14" d="M348.9,149.7c7.7,0,14-6.3,14-14s-6.3-14-14-14s-14,6.3-14,14S341.2,149.7,348.9,149.7z"/>
	</g>
	
		<linearGradient id="SVGID_15_" gradientUnits="userSpaceOnUse" x1="223.6496" y1="-2.3691" x2="224.6496" y2="-2.3691" gradientTransform="matrix(-23.6568 -14.7689 12.2133 -20.5575 5669.5239 3422.6316)">
		<stop  offset="0" style="stop-color:#232322"/>
		<stop  offset="1" style="stop-color:#363636"/>
	</linearGradient>
	<path class="st15" d="M330.6,182.6L314.3,172l21.5-31.7c6.4-3.1,15.9-0.5,17.4,8.7L330.6,182.6z"/>
	
		<linearGradient id="SVGID_16_" gradientUnits="userSpaceOnUse" x1="221.4102" y1="5.4317" x2="222.4102" y2="5.4317" gradientTransform="matrix(-20.8085 16.2548 -20.9814 -28.7961 5065.2617 -3398.5422)">
		<stop  offset="0" style="stop-color:#232322"/>
		<stop  offset="1" style="stop-color:#363636"/>
	</linearGradient>
	<path class="st16" d="M349.7,58.7c0.3,7.3-10.1,12.8-14.6,10.5l-18.9-24.7l13.7-13.1L349.7,58.7z"/>
	
		<linearGradient id="SVGID_17_" gradientUnits="userSpaceOnUse" x1="208.1584" y1="-0.6804" x2="209.1584" y2="-0.6804" gradientTransform="matrix(27.9488 2.6814 -2.6814 27.9488 -5515.5859 -507.9813)">
		<stop  offset="0" style="stop-color:#5D5C5D"/>
		<stop  offset="1" style="stop-color:#484849"/>
	</linearGradient>
	<path class="st17" d="M318,46.5c7.7,0,14-6.3,14-14s-6.3-14-14-14s-14,6.3-14,14S310.3,46.5,318,46.5z"/>
	<g>
		
			<linearGradient id="SVGID_18_" gradientUnits="userSpaceOnUse" x1="208.5212" y1="8.2675" x2="209.5212" y2="8.2675" gradientTransform="matrix(10.2849 17.9034 -17.9034 10.2849 -1709.802 -3778.9851)">
			<stop  offset="0" style="stop-color:#494949"/>
			<stop  offset="1" style="stop-color:#2A2A29"/>
		</linearGradient>
		<path class="st18" d="M272.9,69.2l-9.7-17.5L306,28.2c6.9,0.2,13.1,8.8,9.7,17.5L272.9,69.2z"/>
	</g>
	
		<linearGradient id="SVGID_19_" gradientUnits="userSpaceOnUse" x1="208.1584" y1="-0.6806" x2="209.1584" y2="-0.6806" gradientTransform="matrix(27.9488 2.6814 -2.6814 27.9488 -5574.3027 -477.077)">
		<stop  offset="0" style="stop-color:#5D5C5D"/>
		<stop  offset="1" style="stop-color:#484849"/>
	</linearGradient>
	<path class="st19" d="M259.3,77.4c7.7,0,14-6.3,14-14s-6.3-14-14-14c-7.7,0-14,6.3-14,14C245.3,71.1,251.6,77.4,259.3,77.4z"/>
	
		<linearGradient id="SVGID_20_" gradientUnits="userSpaceOnUse" x1="208.2007" y1="-0.266" x2="209.2007" y2="-0.266" gradientTransform="matrix(28.1031 4.1592 -4.1592 28.1031 -5601.6919 -780.8878)">
		<stop  offset="0" style="stop-color:#494949"/>
		<stop  offset="1" style="stop-color:#2A2A29"/>
	</linearGradient>
	<path class="st20" d="M277.5,89.2c-4.7,5.4-11.3,6.9-18.9,6.5l-7.2-24.2c1.2-8.1,12.8-11.4,18.9-6.5L277.5,89.2z"/>
	<g>
		<g>
			<g>
				
					<linearGradient id="SVGID_21_" gradientUnits="userSpaceOnUse" x1="215.972" y1="8.7269" x2="216.972" y2="8.7269" gradientTransform="matrix(-6.4758 26.2837 -26.2837 -6.4758 1848.6713 -5577.9336)">
					<stop  offset="0" style="stop-color:#494949"/>
					<stop  offset="1" style="stop-color:#2A2A29"/>
				</linearGradient>
				<path class="st21" d="M246.7,69.7l-58.9-15.6c-6.3-7.6-0.3-18.1,7.8-18.3l57.6,15C249.1,53.4,249.1,64.5,246.7,69.7z"/>
			</g>
		</g>
	</g>
	
		<linearGradient id="SVGID_22_" gradientUnits="userSpaceOnUse" x1="208.1584" y1="-0.679" x2="209.1584" y2="-0.679" gradientTransform="matrix(27.9488 2.6814 -2.6814 27.9488 -5648.5728 -351.3182)">
		<stop  offset="0" style="stop-color:#5D5C5D"/>
		<stop  offset="1" style="stop-color:#484849"/>
	</linearGradient>
	<path class="st22" d="M185,203.2c7.7,0,14-6.3,14-14s-6.3-14-14-14s-14,6.3-14,14S177.3,203.2,185,203.2z"/>
	<g>
		
			<linearGradient id="SVGID_23_" gradientUnits="userSpaceOnUse" x1="208.1584" y1="-0.6802" x2="209.1584" y2="-0.6802" gradientTransform="matrix(27.9488 2.6814 -2.6814 27.9488 -5515.5864 -359.9862)">
			<stop  offset="0" style="stop-color:#5D5C5D"/>
			<stop  offset="1" style="stop-color:#484849"/>
		</linearGradient>
		<path class="st23" d="M318,194.5c7.7,0,14-6.3,14-14s-6.3-14-14-14s-14,6.3-14,14S310.3,194.5,318,194.5z"/>
	</g>
	
		<linearGradient id="SVGID_24_" gradientUnits="userSpaceOnUse" x1="222.5362" y1="-6.6829" x2="223.5362" y2="-6.6829" gradientTransform="matrix(-10.8528 -20.1912 20.1912 -10.8528 2846.3262 4626.4536)">
		<stop  offset="0" style="stop-color:#232322"/>
		<stop  offset="1" style="stop-color:#363636"/>
	</linearGradient>
	<path class="st24" d="M271.9,218.2l-9.7-17.5l43.8-24.5c6.9,0.2,13.1,8.8,9.7,17.5L271.9,218.2z"/>
	
		<linearGradient id="SVGID_25_" gradientUnits="userSpaceOnUse" x1="208.1584" y1="-0.6805" x2="209.1584" y2="-0.6805" gradientTransform="matrix(27.9488 2.6814 -2.6814 27.9488 -5574.3032 -329.0809)">
		<stop  offset="0" style="stop-color:#5D5C5D"/>
		<stop  offset="1" style="stop-color:#484849"/>
	</linearGradient>
	<path class="st25" d="M259.3,225.4c7.7,0,14-6.3,14-14s-6.3-14-14-14c-7.7,0-14,6.3-14,14S251.6,225.4,259.3,225.4z"/>
	<g>
		<g>
			<g>
				
					<linearGradient id="SVGID_26_" gradientUnits="userSpaceOnUse" x1="213.9666" y1="13.5757" x2="214.9666" y2="13.5757" gradientTransform="matrix(-1.5237 16.7606 -16.7606 -1.5237 773.2921 -3374.8611)">
					<stop  offset="0" style="stop-color:#494949"/>
					<stop  offset="1" style="stop-color:#333332"/>
				</linearGradient>
				<path class="st26" d="M246.7,217.7l-58.9-15.6c-6.3-7.6-0.3-18.1,7.8-18.3l57.6,15C249.1,201.4,249.1,212.5,246.7,217.7z"/>
			</g>
		</g>
	</g>
	
		<linearGradient id="SVGID_27_" gradientUnits="userSpaceOnUse" x1="208.3066" y1="-1.4219" x2="209.3066" y2="-1.4219" gradientTransform="matrix(28.0761 0 0 28.0761 -5590.9668 141.8225)">
		<stop  offset="0" style="stop-color:#5D5C5D"/>
		<stop  offset="1" style="stop-color:#484849"/>
	</linearGradient>
	<path class="st27" d="M271.5,115.9c7.7,0,14-6.3,14-14s-6.3-14-14-14s-14,6.3-14,14S263.8,115.9,271.5,115.9z"/>
	
		<linearGradient id="SVGID_28_" gradientUnits="userSpaceOnUse" x1="203.9165" y1="-2.1457" x2="204.9165" y2="-2.1457" gradientTransform="matrix(17.9921 0.5325 -0.5325 17.9921 -3461.5955 59.3829)">
		<stop  offset="0" style="stop-color:#494949"/>
		<stop  offset="1" style="stop-color:#2A2A29"/>
	</linearGradient>
	<path class="st28" d="M208.9,113.4l6,0.2c6.6,0.2,11.8,7.6,11.5,16.3c-0.3,8.8-5.9,15.8-12.5,15.6l-6-0.2"/>
	<path class="st1" d="M208.9,113.4l6,0.2c6.6,0.2,11.8,7.6,11.5,16.3c-0.3,8.8-5.9,15.8-12.5,15.6l-6-0.2"/>
	
		<linearGradient id="SVGID_29_" gradientUnits="userSpaceOnUse" x1="206.9868" y1="-1.6971" x2="207.9869" y2="-1.6971" gradientTransform="matrix(23.9992 0.1407 -0.1407 23.9992 -4771.2979 140.9349)">
		<stop  offset="0" style="stop-color:#494949"/>
		<stop  offset="1" style="stop-color:#2A2A29"/>
	</linearGradient>
	<path class="st29" d="M220.5,129.5c-0.1,8.8-5.5,15.9-12.1,15.9s-12-7.3-11.9-16.1s5.5-15.9,12.1-15.9
		C215.2,113.4,220.5,120.6,220.5,129.5z"/>
	
		<linearGradient id="SVGID_30_" gradientUnits="userSpaceOnUse" x1="203.9165" y1="-2.1493" x2="204.9171" y2="-2.1493" gradientTransform="matrix(17.9921 0.5325 -0.5325 17.9921 -3470.5916 59.1168)">
		<stop  offset="0" style="stop-color:#161715"/>
		<stop  offset="1" style="stop-color:#0C0C08"/>
	</linearGradient>
	<path class="st30" d="M208.1,142.6c5,0.1,9.2-5.7,9.4-13s-3.6-13.4-8.6-13.6c-5-0.1-9.2,5.7-9.4,13
		C199.3,136.3,203.1,142.5,208.1,142.6z"/>
	<path class="st1" d="M216.2,117.1l5.6,0.2"/>
	<path class="st1" d="M219.1,121l5.6,0.2"/>
	<path class="st1" d="M220,124.9l5.6,0.2"/>
	<path class="st1" d="M220.9,128.7l5.6,0.2"/>
	<path class="st1" d="M219.8,132.6l5.6,0.2"/>
	<path class="st1" d="M219.7,136.5l5.6,0.2"/>
	<path class="st1" d="M217.6,140.2l5.6,0.2"/>
	<path class="st1" d="M213.4,144l5.6,0.2"/>
	
		<linearGradient id="SVGID_31_" gradientUnits="userSpaceOnUse" x1="228.1124" y1="-2.0105" x2="229.1124" y2="-2.0105" gradientTransform="matrix(-17.985 -0.7344 -0.7344 17.985 4415.751 319.406)">
		<stop  offset="0" style="stop-color:#494949"/>
		<stop  offset="1" style="stop-color:#2A2A29"/>
	</linearGradient>
	<path class="st31" d="M315.3,99.7l-6-0.2c-6.6-0.3-12.3,6.7-12.6,15.5s4.7,16.2,11.3,16.5l6,0.2"/>
	<path class="st1" d="M315.3,99.7l-6-0.2c-6.6-0.3-12.3,6.7-12.6,15.5s4.7,16.2,11.3,16.5l6,0.2"/>
	
		<linearGradient id="SVGID_32_" gradientUnits="userSpaceOnUse" x1="225.1266" y1="-1.164" x2="226.1269" y2="-1.164" gradientTransform="matrix(-23.9496 -1.5478 -1.5478 23.9496 5716.5708 492.9063)">
		<stop  offset="0" style="stop-color:#494949"/>
		<stop  offset="1" style="stop-color:#2A2A29"/>
	</linearGradient>
	<path class="st32" d="M302.7,115c-0.6,8.8,4.3,16.3,10.9,16.8s12.5-6.4,13-15.2c0.6-8.8-4.3-16.3-10.9-16.8
		C309.1,99.4,303.2,106.1,302.7,115z"/>
	
		<linearGradient id="SVGID_33_" gradientUnits="userSpaceOnUse" x1="228.1134" y1="-2.0117" x2="229.1134" y2="-2.0117" gradientTransform="matrix(-17.985 -0.7344 -0.7344 17.985 4424.7432 319.7732)">
		<stop  offset="0" style="stop-color:#161715"/>
		<stop  offset="1" style="stop-color:#0C0C08"/>
	</linearGradient>
	<path class="st33" d="M314.1,129c5,0.2,9.2-5.6,9.5-12.9s-3.5-13.5-8.4-13.7c-5-0.2-9.2,5.6-9.5,12.9
		C305.3,122.7,309.1,128.8,314.1,129z"/>
	<path class="st1" d="M307.7,102.9l-5.5-0.2"/>
	<path class="st1" d="M304.5,106.6l-5.5-0.2"/>
	<path class="st1" d="M303.3,110.5l-5.5-0.2"/>
	<path class="st1" d="M302.2,114.2l-5.5-0.2"/>
	<path class="st1" d="M303,118.1l-5.5-0.2"/>
	<path class="st1" d="M302.9,122l-5.5-0.2"/>
	<path class="st1" d="M304.7,125.9l-5.5-0.2"/>
	<path class="st1" d="M308.6,130l-5.5-0.2"/>
	
		<linearGradient id="SVGID_34_" gradientUnits="userSpaceOnUse" x1="210.6183" y1="-20.1823" x2="211.6183" y2="-20.1823" gradientTransform="matrix(0.1421 10.7693 10.3993 -0.1912 431.0309 -2242.8113)">
		<stop  offset="0" style="stop-color:#494949"/>
		<stop  offset="1" style="stop-color:#2A2A29"/>
	</linearGradient>
	<path class="st34" d="M237.2,29.4l0.1,3.6c0,4,6.3,7,13.9,6.9c7.6-0.2,13.8-3.5,13.8-7.5l-0.1-3.6"/>
	<path class="st1" d="M237.2,29.4l0.1,3.6c0,4,6.3,7,13.9,6.9c7.6-0.2,13.8-3.5,13.8-7.5l-0.1-3.6"/>
	
		<linearGradient id="SVGID_35_" gradientUnits="userSpaceOnUse" x1="212.3344" y1="-15.1208" x2="213.3348" y2="-15.1208" gradientTransform="matrix(-0.1396 14.3661 13.8713 8.582681e-02 490.4074 -3027.2483)">
		<stop  offset="0" style="stop-color:#494949"/>
		<stop  offset="1" style="stop-color:#2A2A29"/>
	</linearGradient>
	<path class="st35" d="M250.8,36.4c7.6,0,13.9-3.2,14-7.2c0.1-4-6.1-7.2-13.7-7.2c-7.6,0-13.9,3.2-14,7.2
		C236.9,33.2,243.2,36.4,250.8,36.4z"/>
	
		<linearGradient id="SVGID_36_" gradientUnits="userSpaceOnUse" x1="210.6184" y1="-20.1844" x2="211.6184" y2="-20.1844" gradientTransform="matrix(0.1421 10.7695 10.3995 -0.1912 430.9603 -2248.2402)">
		<stop  offset="0" style="stop-color:#161715"/>
		<stop  offset="1" style="stop-color:#0C0C08"/>
	</linearGradient>
	<path class="st36" d="M251.1,34.5c6.3-0.1,11.5-2.7,11.5-5.6c0-3-5.3-5.3-11.6-5.2c-6.3,0.1-11.5,2.7-11.5,5.6
		C239.5,32.3,244.7,34.7,251.1,34.5z"/>
	<path class="st1" d="M240.2,33.8v3.3"/>
	<path class="st1" d="M243.5,35.5l0.1,3.3"/>
	<path class="st1" d="M246.8,36.1l0.1,3.3"/>
	<path class="st1" d="M250.2,36.6l0.1,3.3"/>
	<path class="st1" d="M253.5,35.9l0.1,3.3"/>
	<path class="st1" d="M256.9,36l0.1,3.3"/>
	<path class="st1" d="M260.2,34.6l0.1,3.3"/>
	<path class="st1" d="M263.6,32.2l0.1,3.3"/>
	
		<linearGradient id="SVGID_37_" gradientUnits="userSpaceOnUse" x1="225.1222" y1="9.292" x2="226.1222" y2="9.292" gradientTransform="matrix(-15.2369 8.7613 -8.7613 -15.2369 3690.5076 -1666.8898)">
		<stop  offset="0" style="stop-color:#494949"/>
		<stop  offset="1" style="stop-color:#333332"/>
	</linearGradient>
	<path class="st37" d="M188.5,176.2c-1,7-9,13-17,11l-15.8-26.9c0.6-8.7,9.1-13.7,17-10.5L188.5,176.2z"/>
	<g>
		<g>
			<g>
				
					<linearGradient id="SVGID_38_" gradientUnits="userSpaceOnUse" x1="208.3066" y1="-1.4219" x2="209.3066" y2="-1.4219" gradientTransform="matrix(28.0761 0 0 28.0761 -5702.9668 186.8225)">
					<stop  offset="0" style="stop-color:#5D5C5D"/>
					<stop  offset="1" style="stop-color:#484849"/>
				</linearGradient>
				<path class="st38" d="M159.5,160.9c7.7,0,14-6.3,14-14s-6.3-14-14-14s-14,6.3-14,14S151.8,160.9,159.5,160.9z"/>
			</g>
		</g>
	</g>
	
		<linearGradient id="SVGID_39_" gradientUnits="userSpaceOnUse" x1="207.7756" y1="-2.387422e-02" x2="208.775" y2="-2.387422e-02" gradientTransform="matrix(26.3348 5.4722 -1.1324 17.2803 -5218.4458 -949.1382)">
		<stop  offset="0" style="stop-color:#494949"/>
		<stop  offset="1" style="stop-color:#2A2A29"/>
	</linearGradient>
	<path class="st39" d="M271.7,204.7c-7.8,5.5-18.5,1.5-19.1-5.9l9-27.6l19.1,5.9L271.7,204.7z"/>
	
		<linearGradient id="SVGID_40_" gradientUnits="userSpaceOnUse" x1="207.668" y1="-1.5815" x2="208.668" y2="-1.5815" gradientTransform="matrix(25.9239 0 0 25.9239 -5125.0161 210.8982)">
		<stop  offset="0" style="stop-color:#5D5C5D"/>
		<stop  offset="1" style="stop-color:#484849"/>
	</linearGradient>
	<path class="st40" d="M271.5,182.9c7.2,0,13-5.8,13-13s-5.8-13-13-13s-13,5.8-13,13S264.3,182.9,271.5,182.9z"/>
	
		<linearGradient id="SVGID_41_" gradientUnits="userSpaceOnUse" x1="205.2" y1="-2.2044" x2="206.2" y2="-2.2044" gradientTransform="matrix(20 0 0 20 -3842.1479 180.1763)">
		<stop  offset="0" style="stop-color:#494949"/>
		<stop  offset="1" style="stop-color:#2A2A29"/>
	</linearGradient>
	<path class="st41" d="M281.9,160.9c-5.4,5.5-15.4,5.5-20,0v-50c3.6-5,16.6-5,20,0V160.9z"/>
	
		<linearGradient id="SVGID_42_" gradientUnits="userSpaceOnUse" x1="225.771" y1="2.9394" x2="226.771" y2="2.9394" gradientTransform="matrix(-22.1075 -5.787494e-03 5.787494e-03 -22.1075 5350.4434 170.5979)">
		<stop  offset="0" style="stop-color:#232322"/>
		<stop  offset="1" style="stop-color:#363636"/>
	</linearGradient>
	<path class="st42" d="M358.4,125.6c-4.7,5.7-15.3,5.8-19.9,0.9v-44c3.6-4.4,14-6,20,0L358.4,125.6z"/>
	
		<linearGradient id="SVGID_43_" gradientUnits="userSpaceOnUse" x1="200.0914" y1="-15.4701" x2="201.0914" y2="-15.4701" gradientTransform="matrix(7.1789 -25.9594 6.3737 29.239 -1068.233 5796.3486)">
		<stop  offset="0" style="stop-color:#FF5F6D"/>
		<stop  offset="1" style="stop-color:#FFC371"/>
	</linearGradient>
	<path class="st43" d="M278,121.1c-0.1-2.1-2.2-3.9-4.8-3.9s-4.6,1.7-4.8,3.9v31.3c0.1,2.1,2.2,3.9,4.8,3.9s4.6-1.7,4.8-3.9V121.1z"
		/>
	<g>
		<g>
			<g>
				
					<linearGradient id="SVGID_44_" gradientUnits="userSpaceOnUse" x1="227.4968" y1="3.6268" x2="228.4968" y2="3.6268" gradientTransform="matrix(-18.6841 0.3813 -0.3813 -18.6841 4419.8486 93.4712)">
					<stop  offset="0" style="stop-color:#494949"/>
					<stop  offset="1" style="stop-color:#2A2A29"/>
				</linearGradient>
				<path class="st44" d="M168.5,137c-5.2,5.3-14.8,5.3-19.2,0V87.9c3.5-4.8,16-4.8,19.2,0V137z"/>
			</g>
		</g>
	</g>
	
		<linearGradient id="SVGID_45_" gradientUnits="userSpaceOnUse" x1="179.9964" y1="-5.2975" x2="180.9965" y2="-5.2975" gradientTransform="matrix(5.9994 0 0 9.3217 -928.8937 163.3319)">
		<stop  offset="0.4551" style="stop-color:#FFC371"/>
		<stop  offset="1" style="stop-color:#FF5F6D"/>
	</linearGradient>
	<path class="st45" d="M157,98.7c-0.1-2.1-1.4-3.7-3-3.7s-2.9,1.6-3,3.7v30.5c0.1,2.1,1.4,3.7,3,3.7s2.9-1.6,3-3.7V98.7z"/>
	
		<linearGradient id="SVGID_46_" gradientUnits="userSpaceOnUse" x1="200.7892" y1="-0.3797" x2="201.7892" y2="-0.3797" gradientTransform="matrix(14.3572 2.7239 -2.7239 14.3572 -2617.4973 -383.7941)">
		<stop  offset="0" style="stop-color:#494949"/>
		<stop  offset="1" style="stop-color:#2A2A29"/>
	</linearGradient>
	<path class="st46" d="M277.8,175.3l-8.4,0.1l-0.6-31.3c1.2-2.3,6.4-3.3,8.4-0.1L277.8,175.3z"/>
	
		<radialGradient id="SVGID_47_" cx="210.1752" cy="-1.0812" r="0.5" gradientTransform="matrix(34.1514 0 0 34.1514 -6902.5542 212.0835)" gradientUnits="userSpaceOnUse">
		<stop  offset="0" style="stop-color:#494949"/>
		<stop  offset="1" style="stop-color:#2A2A29"/>
	</radialGradient>
	<path class="st47" d="M274.9,191.9c9.3,0,16.9-7.6,16.9-16.9s-7.6-16.9-16.9-16.9S258,165.7,258,175S265.6,191.9,274.9,191.9z"/>
	<path class="st1" d="M257.9,175.1c9.6,11.6,25.9,11.3,33.5-2.3"/>
	
		<linearGradient id="SVGID_48_" gradientUnits="userSpaceOnUse" x1="210.8494" y1="-0.2863" x2="211.8498" y2="-0.2863" gradientTransform="matrix(42.8059 4.8693 -5.6697 36.7623 -8774.3105 -808.9998)">
		<stop  offset="0" style="stop-color:#494949"/>
		<stop  offset="1" style="stop-color:#2A2A29"/>
	</linearGradient>
	<path class="st48" d="M285.8,178.7c5.7,34.9-8.2,58.5-8.2,58.5c-12.6-14-15-45.1-14.6-58.4l-5-4.3c-8.8,48.1,14.4,72.4,14.4,72.4
		l12.4,0.1c20.7-37.9,6.4-73,6.4-73L285.8,178.7z"/>
	
		<radialGradient id="SVGID_49_" cx="215.1158" cy="0.154" r="0.5" gradientTransform="matrix(156.049 0 0 156.049 -33303.3203 258.3963)" gradientUnits="userSpaceOnUse">
		<stop  offset="0" style="stop-color:#494949"/>
		<stop  offset="1" style="stop-color:#2A2A29"/>
	</radialGradient>
	<path class="st49" d="M283.4,353.2c32.1,0,58.1-26,58.1-58.1s-26-58.1-58.1-58.1s-58.1,26-58.1,58.1
		C225.3,327.2,251.3,353.2,283.4,353.2z"/>
	<path class="st1" d="M225.4,296.4c32.9,40.1,89.1,38.8,115.4-7.9"/>
	<g>
		<g>
			<g>
				
					<linearGradient id="SVGID_50_" gradientUnits="userSpaceOnUse" x1="211.3454" y1="-0.9793" x2="212.3445" y2="-0.9793" gradientTransform="matrix(45.4963 -2.8581 2.8581 45.4963 -9356.1143 902.1914)">
					<stop  offset="0" style="stop-color:#494949"/>
					<stop  offset="1" style="stop-color:#2A2A29"/>
				</linearGradient>
				<path class="st50" d="M255.9,243.7l12.1,23.9l24-1.8l9.3-25.8C301.3,239.9,281,231.9,255.9,243.7z"/>
				<path class="st1" d="M255.9,243.7l12.1,23.9l24-1.8l9.3-25.8C301.3,239.9,281,231.9,255.9,243.7z"/>
			</g>
		</g>
	</g>
	
		<linearGradient id="SVGID_51_" gradientUnits="userSpaceOnUse" x1="213.2155" y1="-3.7198" x2="214.2152" y2="-3.7198" gradientTransform="matrix(32.5506 -29.7931 29.7931 32.5506 -6440.7612 6619.918)">
		<stop  offset="0" style="stop-color:#494949"/>
		<stop  offset="1" style="stop-color:#2A2A29"/>
	</linearGradient>
	<path class="st51" d="M392,113c4.2,0.5,10,0.9,14,2c5.1,1.3,10.2,3.2,14.9,5.7c4.4,2.4,8.4,5.2,11.9,8.8c0.9,1,1.9,2.1,2,3.4
		c0.1,1.4-0.8,2.7-1.8,3.5c-1.9,1.4-4.4,1.9-6.8,2.5c-3,0.7-7.2,1.2-10.3,1.2c-6.8,0.2-13.6,0.4-20.4-0.5c-3.5-0.4-6.9-1.1-10.3-2.3
		c-1.7-0.6-3.3-1.3-4.9-2.1c-1.4-0.7-2.7-1.6-4.1-2.2c0,0,7.6,0.9,12.8-0.9c20.2,4.4,34.2,0.7,36.6-0.6c0,0-7.4-9.6-29.7-11.9"/>
	<path class="st1" d="M391.5,112.5c4.2,0.5,10.5,1.4,14.5,2.5c5.1,1.3,10.2,3.2,14.9,5.7c4.4,2.4,8.4,5.2,11.9,8.8
		c0.9,1,1.9,2.1,2,3.4c0.1,1.4-0.8,2.7-1.8,3.5c-1.9,1.4-4.4,1.9-6.8,2.5c-3,0.7-7.2,1.2-10.3,1.2c-6.8,0.2-13.6,0.4-20.4-0.5
		c-3.5-0.4-6.9-1.1-10.3-2.3c-1.7-0.6-3.3-1.3-4.9-2.1c-1.4-0.7-2.7-1.6-4.1-2.2c0,0,7.6,0.9,12.8-0.9c20.2,4.4,34.2,0.7,36.6-0.6
		c0,0-7.4-9.6-29.7-11.9"/>
	
		<linearGradient id="SVGID_52_" gradientUnits="userSpaceOnUse" x1="232.0426" y1="10.61" x2="233.0426" y2="10.61" gradientTransform="matrix(-11.8863 -8.1091 -2.5056 7.5318 2939.0603 1938.4006)">
		<stop  offset="0" style="stop-color:#494949"/>
		<stop  offset="1" style="stop-color:#2A2A29"/>
	</linearGradient>
	<path class="st52" d="M140.1,135.6c-0.8,3.5,3,6.9,6.4,5.5l10.5-12.2c-0.8-3.9-3.2-5.4-6.4-5.5L140.1,135.6z"/>
	
		<radialGradient id="SVGID_53_" cx="221.8428" cy="-3.2362" r="0.5" gradientTransform="matrix(-31.8974 12.1989 12.1989 31.8974 7248.4053 -2454.8264)" gradientUnits="userSpaceOnUse">
		<stop  offset="0" style="stop-color:#494949"/>
		<stop  offset="1" style="stop-color:#2A2A29"/>
	</radialGradient>
	<path class="st53" d="M132.9,164.8c9.3,0,16.9-7.6,16.9-16.9s-7.6-16.9-16.9-16.9s-16.9,7.6-16.9,16.9S123.6,164.8,132.9,164.8z"/>
	<path class="st1" d="M148.4,142.4c-4.8,14.3-19.5,19-31.5,9"/>
	
		<linearGradient id="SVGID_54_" gradientUnits="userSpaceOnUse" x1="219.8978" y1="0.5266" x2="220.8978" y2="0.5266" gradientTransform="matrix(-55.3311 -14.2065 -11.1627 46.0806 12310.5684 3272.9377)">
		<stop  offset="0" style="stop-color:#494949"/>
		<stop  offset="1" style="stop-color:#2A2A29"/>
	</linearGradient>
	<path class="st54" d="M115.8,150.5c-10.2,6.9-21.9,13.7-30.7,26.7c3.5-0.3,25-7.8,44.1-20.4c6.1-0.1,12.9-4.2,12.9-4.2
		c-1,1.1-1.6,3.2-2.7,4.2c-1.1,1.1-2.2,2.2-3.4,3.2c-7,6.2-15.4,10.6-24.3,14.8c-3.4,1.6-7.8,3.4-11.3,4.8
		c-3.3,1.3-7.2,2.6-10.7,3.4c-3.5,0.8-5.3,1.2-8.7,1c-1.9-0.1-3.2-0.9-3.7-2.5c-0.2-0.8-0.1-1.5,0.1-2.2c0.8-2.8,2.2-5.4,3.9-7.9
		c1.9-2.9,4.1-5.7,6.5-8.2c7.7-8.2,17.9-16.4,29.4-20.6C115.5,144.9,115.8,147.7,115.8,150.5z"/>
	
		<radialGradient id="SVGID_55_" cx="215.0058" cy="0.1264" r="0.5" gradientTransform="matrix(144.568 0 0 144.568 -31039.3066 154.86)" gradientUnits="userSpaceOnUse">
		<stop  offset="0" style="stop-color:#494949"/>
		<stop  offset="1" style="stop-color:#2A2A29"/>
	</radialGradient>
	<path class="st55" d="M59.1,263.1c32.1,0,58.1-26,58.1-58.1s-26-58.1-58.1-58.1S1,172.9,1,205S27,263.1,59.1,263.1z"/>
	<path class="st1" d="M1.2,206.3c32.9,40.1,89.1,38.8,115.4-7.9"/>
	<g>
		<g>
			<g>
				
					<linearGradient id="SVGID_56_" gradientUnits="userSpaceOnUse" x1="214.1228" y1="3.5492" x2="215.1228" y2="3.5492" gradientTransform="matrix(18.7749 59.2696 -59.2696 18.7749 -3730.5925 -12593.8848)">
					<stop  offset="0" style="stop-color:#494949"/>
					<stop  offset="1" style="stop-color:#2A2A29"/>
				</linearGradient>
				<path class="st56" d="M46.1,148.3c0,0,8.1,7.4,11.9,14c0,0,16.1-3.5,31,8c0,0,5.7,9.4,15.5,18.5c0,0,2.5,12.9-8,29.8
					c0,0,10.1,10.8,14.7,11.9c0,0,16.5-24.5-2.5-56.4S54.8,145.2,46.1,148.3z"/>
				<path class="st1" d="M46.1,148.3c0,0,8.1,7.4,11.9,14c0,0,16.1-3.5,31,8c0,0,5.7,9.4,15.5,18.5c0,0,2.5,12.9-8,29.8
					c0,0,10.1,10.8,14.7,11.9c0,0,16.5-24.5-2.5-56.4S54.8,145.2,46.1,148.3z"/>
			</g>
		</g>
	</g>
	<path class="st1" d="M61,162.3c-22.3,28.4-24.1,69.2-3.4,100.8"/>
	<path class="st1" d="M278.7,352.9c0,0,15.7-35.4,6.3-86.5"/>
	<path class="st1" d="M477.3,195.3c24.4-13.4,37.8-97-20.3-112.5"/>
	
		<ellipse transform="matrix(8.336004e-02 -0.9965 0.9965 8.336004e-02 65.6983 316.1381)" class="st57" cx="204.7" cy="122.4" rx="1.7" ry="1.3"/>
	<ellipse transform="matrix(0.982 -0.1887 0.1887 0.982 -14.7217 61.9325)" class="st57" cx="317.9" cy="108.3" rx="1.3" ry="1.7"/>
	
		<ellipse transform="matrix(0.9958 -9.109731e-02 9.109731e-02 0.9958 -1.2917 22.907)" class="st57" cx="250.3" cy="25.6" rx="1" ry="0.6"/>
</g>
</svg>
